<svg id="圖層_1" data-name="圖層 1" xmlns="http://www.w3.org/2000/svg" viewBox="0 0 203.67 28"><defs><style>.cls-1{isolation:isolate;}.cls-2{fill:#fff;}</style></defs><g id="桃園八德_0公里" data-name="桃園八德 0公里" class="cls-1"><g class="cls-1"><path class="cls-2" d="M8,20c0,7.12,0,11.71,0,13.81,0,.56-.22.87-.61.87A3.2,3.2,0,0,1,4.4,32.24c0-.36.14-.56.47-.56a7.64,7.64,0,0,1,2,1.37c0-1.45,0-3,0-4.62,0-4.11,0-8-.16-11.73-.23.64-.45,1.32-.73,2a20.42,20.42,0,0,1-1.6,3.11A19.49,19.49,0,0,1,2.6,24.18a.51.51,0,0,1-.25.11.79.79,0,0,1-.31.08.28.28,0,0,1-.3-.31.7.7,0,0,1,.19-.47A25.52,25.52,0,0,0,4,20.06a22.75,22.75,0,0,0,1.4-3.61,25.81,25.81,0,0,0,.73-2.66c-.76.36-1.46.67-2.13,1-.33.11-.56.17-.67.2a3.44,3.44,0,0,1-.7.05c-.36,0-.56-.28-.62-.75,0-.2.17-.4.54-.59.22-.09.47-.17.78-.28a27.63,27.63,0,0,0,3.08-1.18c-.06-.75-.14-1.51-.22-2.27-.06-.56-.09-.95-.09-1.2a.68.68,0,0,1,.76-.64c.31,0,.53.25.67.64s.17,1.12.25,1.76c0,.4,0,.76,0,1.15a20.86,20.86,0,0,0,3-1.43.46.46,0,0,1,.33.14c0,.06,0,.12,0,.2A.62.62,0,0,1,11,11,8.94,8.94,0,0,1,7.87,13c0,.73,0,1.49,0,2.27l.23.08a17.92,17.92,0,0,1,2.27,3.92,4.17,4.17,0,0,1,.47,1.43c0,.31-.14.45-.39.45a.47.47,0,0,1-.36-.25,13,13,0,0,1-.93-1.51L8,17.4ZM11,16.73a1.08,1.08,0,0,1-.3-.81.69.69,0,0,1,.42-.45h.3a3.6,3.6,0,0,1,2.52,1.15.62.62,0,0,1,.31.36.64.64,0,0,1-.45.7C13,17.37,12,17.06,11,16.73Zm4.62,1.76a38.12,38.12,0,0,0-.42-6.21,12.71,12.71,0,0,0-.78-2.78.63.63,0,0,1-.2-.53,1.09,1.09,0,0,1,.2-.56A.69.69,0,0,1,15,8.1a.77.77,0,0,1,.25.12c1,.81,1.52,3.66,1.74,8.54,0,.67,0,1.28,0,1.84a36.64,36.64,0,0,1-1.21,9.8,19.84,19.84,0,0,1-1.62,3.92,3.63,3.63,0,0,1-1.48,1.6h-.37c-.28,0-.42-.2-.42-.53s.14-.42.45-.59a14.57,14.57,0,0,0,1.29-2,19.84,19.84,0,0,0,1.45-5.34c.14-.9.26-1.82.37-2.78a15.75,15.75,0,0,1-1.85,2.61,7.33,7.33,0,0,1-1.68,1.37,1.71,1.71,0,0,1-.5.08c-.4,0-.59-.22-.65-.7a.73.73,0,0,1,.09-.39,2.74,2.74,0,0,1,.81-.87c.5-.36.89-.7,1.23-1a24.87,24.87,0,0,0,2.69-3.16C15.6,19.92,15.62,19.22,15.62,18.49Zm9.52,5.71c-.05.12-.14.2-.22.2a.49.49,0,0,1-.31.11,5.16,5.16,0,0,1-2.71-1.43,8.64,8.64,0,0,1-1.8-1.62C20.05,23.53,20,25,20,25.72c0,3.36.62,5.51,1.88,6.49a2.76,2.76,0,0,0,1.56.51A1.77,1.77,0,0,0,25,31.88a3.39,3.39,0,0,0,.64-2.08,8,8,0,0,0-.5-2.6.82.82,0,0,1-.17-.53.37.37,0,0,1,.42-.42.93.93,0,0,1,.42.19,5,5,0,0,1,1.12,3.42,5.7,5.7,0,0,1-.36,1.93,4.33,4.33,0,0,1-1.43,1.82,3.89,3.89,0,0,1-1.88.67A4,4,0,0,1,21,33.7c-1.18-.84-1.88-2.52-2.16-5-.08-.76-.11-1.74-.11-2.94l.14-9.55c0-1,0-2.19,0-3.53,0-1.18-.08-2.66-.25-4.4a.8.8,0,0,1,.08-.33c.06-.2.26-.31.54-.34s.5.2.67.53a63.38,63.38,0,0,1,.33,6.81c0,.84,0,2.35,0,4.56v.17l0,0a11.93,11.93,0,0,1,1,.92,11.47,11.47,0,0,0,3.84,3.11.29.29,0,0,1,.17.28A.39.39,0,0,1,25.14,24.2Zm-3.36-6.44c-.25,0-.39-.11-.39-.36a.63.63,0,0,1,.11-.28,1.3,1.3,0,0,1,.17-.28c.39-.92.76-1.88,1.09-2.88.14-.51.31-1,.48-1.54a.64.64,0,0,1,.62-.4c.42,0,.64.23.67.59a7.63,7.63,0,0,1-.76,2.27,10.43,10.43,0,0,1-1.37,2.49A.68.68,0,0,1,21.78,17.76Z" transform="translate(-1.74 -6.68)"/><path class="cls-2" d="M35.08,14.49c0,.75-.25,3.33-.58,7.73-.12,2.32-.14,4.42-.14,6.27a22.73,22.73,0,0,0,.11,2.29,13.78,13.78,0,0,0,.39,1.68v.17a.52.52,0,0,1-.56.53c-.2,0-.36-.16-.5-.44a12,12,0,0,1-.9-5.3q0-3.53.76-11.9c.08-1.4.14-2.82.14-4.28a1,1,0,0,1,.25-.59,1.22,1.22,0,0,1,.45-.25h.19a.75.75,0,0,1,.59.67C35.22,12.47,35.17,13.59,35.08,14.49Zm17.28,18.7c-.11-1.57-.22-3.39-.36-5.51-.12-1.49-.28-3.28-.51-5.41-.28-3.53-.39-6-.39-7.39a18.46,18.46,0,0,1,.31-3.11,22.56,22.56,0,0,0,.25-3.11c0-.44-.22-.7-.56-.7a33.6,33.6,0,0,0-3.64.76C46,9,44.24,9.39,42.14,9.78a57.22,57.22,0,0,0-6.1.93c-.42,0-.65-.23-.65-.7a.76.76,0,0,1,.53-.73,37.1,37.1,0,0,1,4.32-.59c2.52-.36,5.2-.89,8.12-1.57a17.62,17.62,0,0,1,2.71-.44h.59c1,0,1.43.72,1.43,2.18,0,.42-.11,1.32-.28,2.66a23.11,23.11,0,0,0-.34,3.39q0,2.94.59,9.57c.17,2.38.34,4.32.48,5.77.11,1.68.19,2.77.19,3.28a1,1,0,0,1-1,1.06,3.24,3.24,0,0,1-2.32-.84l-1.54-.17a38.48,38.48,0,0,0-4-.14,40.75,40.75,0,0,0-4.37.26c-1.4.16-2.61.33-3.67.53-.25,0-.42.05-.53.05a.62.62,0,0,1-.48-.25.79.79,0,0,1-.31-.56c0-.39.26-.64.79-.78.81-.14,1.73-.25,2.74-.37s1.85-.16,2.69-.19C43,32.07,44,32,45,32a34.42,34.42,0,0,1,6.14.4c.5.08.75.3.75.64A2,2,0,0,0,52.36,33.19ZM41,23.34c-.44-.82-.92-1.8-1.42-3-.06-.06-.06-.11-.06-.23a.31.31,0,0,1,.08-.19.55.55,0,0,1,.54-.34c.11,0,.22.09.36.14a.22.22,0,0,1,.08.17,27.61,27.61,0,0,1,2.92-1.32A9.94,9.94,0,0,1,46.7,18a1.58,1.58,0,0,1,.54.12.47.47,0,0,1,.22.39,4.19,4.19,0,0,1-1.37,2.69l-.2.19H46s.09.06.17.11.06.09.06.12l0,.05a2.87,2.87,0,0,1-.81.67c-.73.42-1.4.76-2,1a.83.83,0,0,1,.11.36,3.48,3.48,0,0,1-.81,1.54c-.05.06-.08.09-.08.12s0,0,.08,0a.73.73,0,0,1,.51.25.79.79,0,0,1,.16.5v4.15c0,.17,0,.31,0,.47s-.28.37-.45.37a.6.6,0,0,1-.56-.39,1.18,1.18,0,0,1-.17-.62V28.88c0-.78,0-1.65,0-2.55v-.28a20.31,20.31,0,0,1-4.39,4.59.66.66,0,0,1-.37.14c-.36,0-.56-.19-.56-.53s.17-.42.56-.7a24.74,24.74,0,0,0,4.82-5.65,3.29,3.29,0,0,1-1.09.3.34.34,0,0,1-.23-.05.38.38,0,0,1-.14-.23c-.05-.05-.05-.11-.05-.22a.29.29,0,0,1,.14-.28A.24.24,0,0,0,41,23.34Zm7.28-9.24q-.87,1.08-4.62,2.6c-1.37.56-2.66,1.06-3.86,1.51-.39.11-.64.17-.78.23s-.45,0-.65,0-.47-.22-.5-.67c0-.17.14-.33.42-.5l.73-.23a22.32,22.32,0,0,0,3.16-1.12c.22-.53.39-.95.48-1.26a8.38,8.38,0,0,0,.11-.95c-.81.28-1.63.56-2.44.79a2.08,2.08,0,0,1-.73.22h-.14A.75.75,0,0,1,39,14a.48.48,0,0,1,.25-.42,2.9,2.9,0,0,1,.7-.22c1-.28,2-.56,2.8-.87A5,5,0,0,0,42.06,11a.79.79,0,0,1-.17-.39.44.44,0,0,1,.36-.45l.2,0a1,1,0,0,1,.56.31,5.37,5.37,0,0,1,.73,1.76,17.36,17.36,0,0,0,1.9-.78A3,3,0,0,1,46.73,11a.84.84,0,0,1,.34.08.78.78,0,0,1,.25.31.62.62,0,0,1-.25.48,9.39,9.39,0,0,1-1.93,1,11.49,11.49,0,0,1-1.29.47,9.64,9.64,0,0,1-.31,2.1,40.43,40.43,0,0,0,4.56-2,.36.36,0,0,1,.31.17c0,.05,0,.11,0,.16A.59.59,0,0,1,48.24,14.1Zm-2.1,4.78a19.08,19.08,0,0,0-5.26,1.68c.22.48.39.9.56,1.29s.31.87.36,1.12c.9-.39,1.66-.7,2.27-.95A16.69,16.69,0,0,0,46.14,18.88Zm3.7,11c-3.53-1.12-5.26-2.1-5.26-2.94A1.71,1.71,0,0,1,45,26a11.53,11.53,0,0,1,.89-1.24c.54-.72,1-1.31,1.26-1.73a.6.6,0,0,1,.51-.28.82.82,0,0,1,.36.14.63.63,0,0,1,.23.53A9.2,9.2,0,0,1,46,26.81c0,.05.3.22,1,.5,1.23.53,2.4,1.07,3.58,1.57a.64.64,0,0,1,.34.48.61.61,0,0,1-.17.42.45.45,0,0,1-.42.19A1.12,1.12,0,0,1,49.84,29.86Z" transform="translate(-1.74 -6.68)"/><path class="cls-2" d="M68.35,19.78a43.72,43.72,0,0,1-2.63,5.15c-.73,1.23-1.43,2.35-2,3.36-.42.67-.87,1.37-1.34,2.07a8.45,8.45,0,0,1-1.15,1.4.86.86,0,0,1-.5.26c-.17-.12-.26-.2-.26-.31a.78.78,0,0,1,.14-.45A3.81,3.81,0,0,1,61.12,30c.37-.67.9-1.57,1.57-2.63.9-1.43,1.85-3,2.8-4.68A28,28,0,0,0,67,19.56a25.31,25.31,0,0,0,.9-2.72.7.7,0,0,1,.56-.39h.19a.7.7,0,0,1,.4.7A10,10,0,0,1,68.35,19.78Zm10.5,6.94a62.24,62.24,0,0,1-3.78-6.66,72.27,72.27,0,0,0-4.54-7.7c-.19-.31-.42-.67-.67-1.12a1.38,1.38,0,0,1-.17-.62.53.53,0,0,1,.23-.42.78.78,0,0,1,.47-.19.81.81,0,0,1,.65.33c.28.51.5.9.67,1.15,1.51,2.21,4.09,6.67,7.78,13.33a38.28,38.28,0,0,0,4.43,5.94,1.22,1.22,0,0,1,.47.81c0,.39-.17.61-.5.64a1.41,1.41,0,0,1-.81-.36A29.15,29.15,0,0,1,78.85,26.72Z" transform="translate(-1.74 -6.68)"/><path class="cls-2" d="M95.51,10.9a12.51,12.51,0,0,1-1.79,1.74L89.26,16.7a.88.88,0,0,1-.42.08c-.19,0-.28-.08-.28-.22A1.13,1.13,0,0,1,88.7,16a2,2,0,0,1,.28-.42c.23-.28.45-.53.68-.76S91.48,13,94.81,9.73a.91.91,0,0,1,.47-.2.65.65,0,0,1,.45.28.77.77,0,0,1,.17.53A.71.71,0,0,1,95.51,10.9Zm1.71,4.43a8.48,8.48,0,0,1-.79,1.26c-.56.61-1.23,1.4-2,2.32a1.46,1.46,0,0,1,.08.48c-.08,1.54-.11,2.71-.11,3.55l-.08,3.45c-.06,1.06-.12,2-.2,2.71a9.66,9.66,0,0,1-1,3.95c-.11.48-.36.73-.73.73s-.45-.25-.45-.73a12,12,0,0,0,.76-3.39L92.9,27l0-3c0-1.09,0-2.26.06-3.52-.51.53-1,1.06-1.54,1.59s-1.18,1.32-1.88,2.13a.71.71,0,0,1-.5.25q-.51,0-.51-.42a.76.76,0,0,1,.2-.5c.31-.39.76-.9,1.32-1.51.61-.79,1.45-1.77,2.49-3,.81-1,1.71-2,2.66-3.14A13.21,13.21,0,0,1,96,14.66a1.35,1.35,0,0,0,.25-.51,2.4,2.4,0,0,1,.65-.08.53.53,0,0,1,.5.56A2.11,2.11,0,0,1,97.22,15.33Zm3.13,2a19.36,19.36,0,0,0,.39,2c.23,1,.42,1.71.59,2.33,0,.39-.08.58-.22.64a.48.48,0,0,1-.37.14.46.46,0,0,1-.39-.22,1.37,1.37,0,0,1-.17-.31A4.09,4.09,0,0,1,99.46,20a9,9,0,0,0-.23-1.42,20.11,20.11,0,0,0-.42-2.08,8.34,8.34,0,0,1-.33-1.56c0-.37.19-.56.61-.59h.31c.17,0,.34.14.45.39a4,4,0,0,1,.31,1.46,3.53,3.53,0,0,1,.89-.54l.79-.33a18.55,18.55,0,0,0,1.48-3.19c.06-.2.08-.4.14-.59-.84.19-1.62.36-2.41.47a13.92,13.92,0,0,1-1.93.14H98.5a.56.56,0,0,1-.56-.64v-.28a1.13,1.13,0,0,1,.65-.67,2.08,2.08,0,0,0,.47,0,22.52,22.52,0,0,0,4.37-.45.71.71,0,0,0,.25-.06c0-.42.06-.87.06-1.31a2.27,2.27,0,0,0-.17-.82.54.54,0,0,1,.59-.61h.17a.81.81,0,0,1,.73.42,4,4,0,0,1,.14,1c0,.33,0,.67-.06,1,1.2-.28,2.44-.61,3.72-1,.28-.09.54-.17.76-.26a1.41,1.41,0,0,1,.5.14c.2.14.31.28.31.4a.88.88,0,0,1-.14.39,1.12,1.12,0,0,1-.45.39A28.33,28.33,0,0,1,105.7,11l-.81.23c-.14.39-.28.81-.39,1.2a12.15,12.15,0,0,1-1,2.27A21,21,0,0,1,107,14c.56-.06,1.14-.09,1.76-.14h.73c1.4.11,2.1.7,2.1,1.73a4.36,4.36,0,0,1-.76,2.33h0a.34.34,0,0,1,.2.33.53.53,0,0,1-.26.51,6.5,6.5,0,0,1-2.63,1.45,32.85,32.85,0,0,0-3.27.95c-.68.23-1.29.45-1.85.68a2.75,2.75,0,0,1-.67.16.48.48,0,0,1-.37-.22.52.52,0,0,1-.17-.31.86.86,0,0,1,.31-.59,2.7,2.7,0,0,1,.79-.44v0a5.3,5.3,0,0,1,.22-.79c0-.53.06-1,.06-1.37a6.43,6.43,0,0,0-.31-1.54l-.17-.42C102,16.59,101.14,17,100.35,17.37Zm.14,17a.59.59,0,0,1-.33.14.53.53,0,0,1-.42-.23.7.7,0,0,1-.23-.31A5.54,5.54,0,0,1,99,32.1a13.64,13.64,0,0,0-.19-1.4c-.12-.73-.23-1.43-.34-2a8.33,8.33,0,0,1-.28-1.54c0-.37.2-.56.59-.59h.36c.17,0,.31.14.45.36a5.15,5.15,0,0,1,.22,1.49c.2,1.2.37,2.21.54,3.08s.28,1.68.42,2.29A.75.75,0,0,1,100.49,34.4ZM109.62,23a9.44,9.44,0,0,1-3.33,1.65c-1,.36-1.93.67-2.83.92a2.28,2.28,0,0,1-.56.14,6.63,6.63,0,0,1-.73,0c-.39,0-.61-.28-.64-.78,0-.23.17-.42.53-.62a4.2,4.2,0,0,1,.84-.22,29.63,29.63,0,0,0,3.14-.93,22.73,22.73,0,0,0,3.38-1.2.54.54,0,0,1,.45.22c0,.06,0,.14,0,.23A.84.84,0,0,1,109.62,23Zm.36,5a2.24,2.24,0,0,1-.22.11,5,5,0,0,1,1.6,1.74,2.62,2.62,0,0,1-.59,3.27,3.44,3.44,0,0,1-2.07.73,5.7,5.7,0,0,1-3.53-1.62,9.74,9.74,0,0,1-2.55-4,.76.76,0,0,1-.14-.42.67.67,0,0,1,.14-.45.65.65,0,0,1,.56-.3.84.84,0,0,1,.59.28c1.4,3.16,3,4.87,5,5.09a1.53,1.53,0,0,0,1.71-1.62,2.46,2.46,0,0,0-.39-1.23,5.54,5.54,0,0,0-1.07-1.1,1.9,1.9,0,0,1-.53.23,3.24,3.24,0,0,1-1.06.28c-.31,0-.51-.2-.56-.62l0-.28a.49.49,0,0,1,.31-.45,10.83,10.83,0,0,0,1.37-.53,14.48,14.48,0,0,0,3.11-1.71l1.31-.95a1.11,1.11,0,0,1,.37-.11.53.53,0,0,1,.47.53.64.64,0,0,1-.14.42C113.2,26.08,112,27,110,28.07ZM104.05,20c.45-.11,1-.25,1.71-.47a5.4,5.4,0,0,1,.33-1.32,7.56,7.56,0,0,0,.25-1.85,2.24,2.24,0,0,0-.44-1.06c-.7.17-1.4.34-2.08.56a3.2,3.2,0,0,1,.31.9,5.36,5.36,0,0,1,.14,1,12.65,12.65,0,0,1-.08,1.42c-.09.4-.14.68-.2.87Zm2.91-.89c.53-.17,1.15-.37,1.85-.65a4.48,4.48,0,0,0,1.26-1.84,3.54,3.54,0,0,0,.17-1,1.3,1.3,0,0,0-1.35-.73,13.69,13.69,0,0,0-1.82.19,2.16,2.16,0,0,1,.34,1.15,8.67,8.67,0,0,1-.62,2.94A.18.18,0,0,0,107,19.11Z" transform="translate(-1.74 -6.68)"/><path class="cls-2" d="M147.11,28.4a5.78,5.78,0,0,1-4.9,2.47,5,5,0,0,1-4.48-2.24,10.09,10.09,0,0,1-1.43-5.74,10.89,10.89,0,0,1,1.66-6,7.4,7.4,0,0,1,4.2-3.42c.11-.84.5-1.26,1.14-1.26a3.61,3.61,0,0,1,2.27.92A8.73,8.73,0,0,1,148,17a14.55,14.55,0,0,1,.84,4.84A11,11,0,0,1,147.11,28.4Zm-.45-10.33a9,9,0,0,0-2.07-3.75,1.23,1.23,0,0,1-1.06.62,5,5,0,0,0-3.89,2.57,9.13,9.13,0,0,0-1.74,5.35A8.14,8.14,0,0,0,139,27.37a3.76,3.76,0,0,0,3.42,1.87,4.21,4.21,0,0,0,3.41-2,8.42,8.42,0,0,0,1.49-5.1A13.72,13.72,0,0,0,146.66,18.07Z" transform="translate(-1.74 -6.68)"/><path class="cls-2" d="M160.75,11.63a5.11,5.11,0,0,1-.79,2,49.79,49.79,0,0,1-4.36,6.83,7,7,0,0,1-1.68,1.85.59.59,0,0,1-.31.06c-.34,0-.48-.17-.48-.51a.7.7,0,0,1,.11-.36,46.59,46.59,0,0,1,3.17-4.84c1.34-2.05,2.41-3.78,3.19-5.24a.62.62,0,0,1,.5-.31A.57.57,0,0,1,160.75,11.63Zm8.76,14c0-.45.2-.73.59-.78a.62.62,0,0,1,.48.22,30.11,30.11,0,0,1,3,7,4.13,4.13,0,0,1,.42,1.29.65.65,0,0,1-.67.75.75.75,0,0,1-.67-.47c-.93-2-1.77-3.92-2.55-6-.34.3-.7.61-1.09.92a33,33,0,0,1-6.5,3.56,14.45,14.45,0,0,1-5,1.12,1.34,1.34,0,0,1-.76-.28,1.05,1.05,0,0,1-.28-.76c0-.53.65-2.13,1.94-4.82s2.46-5.09,3.44-7.44a.82.82,0,0,1,.81-.59.54.54,0,0,1,.56.61c0,.59-.78,2.52-2.32,5.8-.95,2.1-1.91,4.12-2.86,6a27.31,27.31,0,0,0,6.47-2.38q2.61-1.38,5.18-2.94A2.56,2.56,0,0,1,169.51,25.66Zm8.62-5.26c0,.19-.16.3-.39.36h-.58a5.66,5.66,0,0,1-1.54-.45,12.85,12.85,0,0,1-3.23-2.43,23.79,23.79,0,0,1-3.83-4.26q-1.51-2-3.28-4.68a.68.68,0,0,1-.25-.42.81.81,0,0,1,.25-.58.5.5,0,0,1,.42-.2,1.14,1.14,0,0,1,.45.11,3.87,3.87,0,0,1,.64.79c.59.75,1.24,1.62,1.91,2.57a34.3,34.3,0,0,0,2.24,2.91,24.81,24.81,0,0,0,5.66,5.16l1.09.67C178,20.09,178.13,20.23,178.13,20.4Z" transform="translate(-1.74 -6.68)"/><path class="cls-2" d="M186.9,19.3a20.85,20.85,0,0,1-1.35-6.88c-.05-1-.05-1.94-.05-2.94.05-.28.28-.48.67-.59h.2a.62.62,0,0,1,.56.7v1.09a28.77,28.77,0,0,1,4.76-1.4,31.45,31.45,0,0,1,4.84-.45,19.71,19.71,0,0,1,2.83.2A4.42,4.42,0,0,1,202,10.34a3.13,3.13,0,0,1,.73,1.94,7.06,7.06,0,0,1-1,3,10.93,10.93,0,0,1-1.54,2,.8.8,0,0,1,.42.28c.06.14.09.25.14.34a.82.82,0,0,1-.31.64,28.89,28.89,0,0,1-6.07,2.21c0,.53,0,1,0,1.35v3c.87-.06,1.65-.08,2.35-.08,1.29,0,2.38,0,3.22.05a.73.73,0,0,1,.53.76.42.42,0,0,1-.3.45,25.36,25.36,0,0,1-3.39.22l-2.44.14v1.54c0,1.12,0,2.18,0,3.3,1.18-.08,2.33-.14,3.39-.16,1.34-.09,2.63-.14,3.86-.2,1-.06,2-.06,2.92-.06.58,0,.89.23.95.68a.72.72,0,0,1-.62.72c-.84.06-1.76.09-2.71.14l-3.79.2q-3.9.16-8,.42c-2.49.14-4.78.31-6.85.53a5.8,5.8,0,0,1-.82.09c-.17,0-.28-.14-.39-.4a2.39,2.39,0,0,1,0-.53c.06-.25.42-.45,1.12-.59,1.29-.16,3-.3,5.07-.47,1.37-.09,2.69-.17,4-.23a3.69,3.69,0,0,1,.73-.05c-.06-.87-.06-2-.06-3.42v-1.4c-.9.11-1.93.25-3.08.48a16.83,16.83,0,0,1-2.13.17.46.46,0,0,1-.28-.12c-.14-.11-.19-.36-.19-.7a.63.63,0,0,1,.36-.56c.9-.19,1.85-.39,2.91-.56l2.41-.25c0-1.31,0-2.55,0-3.72v-.42a8.31,8.31,0,0,1-1,.25,27.18,27.18,0,0,1-4,.5.81.81,0,0,1-.61-.25.85.85,0,0,1-.25-.61.51.51,0,0,1,.25-.51A5.91,5.91,0,0,1,186.9,19.3Zm6.27-8.2a1.37,1.37,0,0,1,0-.39v0c-.4.08-.76.17-1.07.25a29.58,29.58,0,0,0-4.62,1.29,1,1,0,0,1-.45.17,16.32,16.32,0,0,0,.09,1.71,13.19,13.19,0,0,0,.28,1.93,55.55,55.55,0,0,1,5.79-1.77C193.14,13.28,193.17,12.22,193.17,11.1Zm0,4.65c-.95.28-2,.56-3,.84-1.24.33-2.08.56-2.55.67a13,13,0,0,0,1.2,3c.95-.11,2-.28,3-.5a9.56,9.56,0,0,0,1.23-.25C193.09,18.32,193.12,17.06,193.14,15.75Zm4,2.55a11.38,11.38,0,0,0,2.21-2.13,8.91,8.91,0,0,0,1.85-3.64c0-1.43-1.38-2.16-4.09-2.21a19.42,19.42,0,0,0-2.58.16,3.35,3.35,0,0,1,.06.59c0,.67,0,1.6-.06,2.83.48-.11,1-.25,1.43-.36a11.27,11.27,0,0,1,2.27-.31.79.79,0,0,1,.36.19.8.8,0,0,1,.17.37c0,.17-.14.31-.39.39-1,.34-2.33.73-3.86,1.15a7.86,7.86,0,0,0,0,.84c-.06,1.12-.09,2.15-.11,3,1-.25,1.84-.53,2.68-.81A.26.26,0,0,1,197.15,18.3Z" transform="translate(-1.74 -6.68)"/></g></g></svg>