<svg id="圖層_1" data-name="圖層 1" xmlns="http://www.w3.org/2000/svg" viewBox="0 0 175.84 28.87"><defs><style>.cls-1{isolation:isolate;}.cls-2{fill:#fff;}</style></defs><g id="宜蘭_214公里" data-name="宜蘭 214公里" class="cls-1"><g class="cls-1"><path class="cls-2" d="M25.14,32.8c-.78,0-1.56.08-2.35.17-1.29.05-2.63.14-4.06.31-2.07.22-4.62.56-7.67,1-1.85.23-3.72.54-5.66.9a2.72,2.72,0,0,1-.56.14A.43.43,0,0,1,4.37,35a.65.65,0,0,1-.11-.47c0-.23.19-.42.56-.56a28.55,28.55,0,0,1,4.56-1c1.6-.26,3-.45,4.28-.62s2.78-.39,4.12-.53c.2-.11.42-.23.67-.34q-.25-2.48-.33-5.46a19.39,19.39,0,0,1-2.64,1.23,27.28,27.28,0,0,1-4.17,1.24c-.05.84-.11,1.56-.17,2.18a5.13,5.13,0,0,1-.25,1.18.62.62,0,0,1-.45.39c-.53,0-.78-.14-.78-.39a32.33,32.33,0,0,0,.42-6.39V20.7c0-1.06,0-2.15.08-3.3a.67.67,0,0,1,.48-.67H11a.66.66,0,0,1,.53.64v.31A48.51,48.51,0,0,1,16.27,16,8.87,8.87,0,0,1,18,15.78c.78,0,1.23.56,1.31,1.59q0,.42.09,5.46.07,2.57.33,6.22c0,.81,0,1.65.11,2.6.84-.11,1.71-.19,2.58-.25,1.23-.08,2.1-.11,2.63-.11s.76.22.79.67A.84.84,0,0,1,25.14,32.8ZM6.61,16.67a12.21,12.21,0,0,1-.56,1.93,2.56,2.56,0,0,1-.48.87.67.67,0,0,1-.59.28c-.28,0-.42-.17-.42-.47a3.87,3.87,0,0,1,.28-1,13,13,0,0,0,.56-2.18,12,12,0,0,0,.14-1.74,6.19,6.19,0,0,0-.33-2.24A1.39,1.39,0,0,1,5,11.41a.87.87,0,0,1,.22-.67.89.89,0,0,1,.42-.17.72.72,0,0,1,.5.17,1.81,1.81,0,0,1,.37.53A6.69,6.69,0,0,1,6.94,14,12.76,12.76,0,0,1,6.61,16.67Zm13.58-.81a.47.47,0,0,1-.25-.39.39.39,0,0,1,.14-.31c.42-.45.81-.92,1.2-1.4a11.25,11.25,0,0,0,1.48-2.41,40.66,40.66,0,0,0-6.07,1A42.09,42.09,0,0,0,9.1,14.8a1.45,1.45,0,0,1-.42.19c-.42,0-.64-.28-.64-.75a.62.62,0,0,1,.14-.45,1.66,1.66,0,0,1,.33-.31,24.27,24.27,0,0,1,4.2-1.76,41.22,41.22,0,0,1,6.41-1.49A30.42,30.42,0,0,1,23,9.92a1.43,1.43,0,0,1,1,.31,1,1,0,0,1,.33.67,3.84,3.84,0,0,1-.61,1.71,10.67,10.67,0,0,1-1.29,1.88A5.84,5.84,0,0,1,21,15.8a.63.63,0,0,1-.42.17A.66.66,0,0,1,20.19,15.86ZM11.59,8.1a1.2,1.2,0,0,1-.33-.86.72.72,0,0,1,.44-.48h.37a15.66,15.66,0,0,1,5.51.92.71.71,0,0,1,.31.4c0,.39-.17.64-.45.7C15.71,8.55,13.75,8.33,11.59,8.1ZM13,26.75c1.43-.42,2.74-.87,3.95-1.31.56-.26,1-.42,1.12-.48C18,23.84,18,22.64,18,21.38a16.19,16.19,0,0,1-2.43,1.2,24.77,24.77,0,0,1-3.81,1.15.66.66,0,0,1-.28.05c-.06,0-.08,0-.08,0v2.66c0,.28,0,.53,0,.75C12,27,12.54,26.86,13,26.75ZM13.33,22a31.27,31.27,0,0,0,3.5-1.14,5.18,5.18,0,0,1,1.09-.45s.06,0,.08,0c0-.87,0-1.76,0-2.69a.47.47,0,0,0-.34-.45,36.5,36.5,0,0,0-6.1,2.05,2.32,2.32,0,0,0-.06.61c-.06.84-.08,1.71-.08,2.61A19.08,19.08,0,0,0,13.33,22Z" transform="translate(-4.26 -6.45)"/><path class="cls-2" d="M32.65,33.25c-.28,0-.39-.23-.39-.62.22-1.59.36-3.36.47-5.37l.14-9q0-1.84.09-4.11a.63.63,0,0,1,.72-.7c.4,0,.59.28.59.78v.14a.39.39,0,0,0,.2-.06A17.3,17.3,0,0,1,37.3,14a9.32,9.32,0,0,1,2.91.34,1.84,1.84,0,0,1,1.43,1.79,5.29,5.29,0,0,1-1.35,2.94,5.9,5.9,0,0,1-.95.87,6.69,6.69,0,0,1-1.26.81c-1.18.61-2.38,1.15-3.61,1.65a.55.55,0,0,1-.37.17c0,1.62-.05,2.94-.11,4a28.93,28.93,0,0,1-.7,6.05C33.18,33,33,33.25,32.65,33.25Zm6.41-20.44a.41.41,0,0,1-.39-.28,14.17,14.17,0,0,1-.11-1.85c-.17,0-.28,0-.4,0a24.77,24.77,0,0,1-2.85.17h-.9a.51.51,0,0,1-.45-.56V10a1,1,0,0,1,.48-.54,2,2,0,0,0,.42,0c1.15,0,2.32,0,3.56-.14,0-.14,0-.28,0-.39a3.75,3.75,0,0,0-.25-.87,1.36,1.36,0,0,1-.26-.45,1.51,1.51,0,0,1-.05-.5A.44.44,0,0,1,38,6.79a.82.82,0,0,1,.56-.2.66.66,0,0,1,.42.25,3.55,3.55,0,0,1,.37.73,3.59,3.59,0,0,1,.28,1.09c0,.23,0,.42,0,.62.58-.06,1.2-.11,1.82-.2,1.17-.14,2.4-.3,3.64-.5A6.92,6.92,0,0,1,45,7.85a2.48,2.48,0,0,1-.11-.67,1.1,1.1,0,0,1,.17-.62,2.11,2.11,0,0,1,.45-.11,1.29,1.29,0,0,1,.45.11,2.08,2.08,0,0,1,.3.51,12,12,0,0,1,.14,1.31c1.12-.16,2.24-.39,3.36-.61l1.1-.23a1.14,1.14,0,0,1,.39.12c.17.08.25.16.25.28a1.39,1.39,0,0,1-.11.33,1.23,1.23,0,0,1-.34.25c-1.37.37-2.91.7-4.59,1v.31a4,4,0,0,1-.14.9,3.82,3.82,0,0,1-.28.67l-.22.28a.65.65,0,0,1-.45.2c-.25,0-.37-.12-.37-.34a.56.56,0,0,1,.06-.28c0-.2.06-.42.11-.64s0-.34,0-.48V9.73a.73.73,0,0,1-.22,0c-1.71.33-3.48.58-5.3.78,0,.9,0,1.54-.05,1.88S39.42,12.81,39.06,12.81Zm-4.9,8.62a24.22,24.22,0,0,0,4.2-2,1.92,1.92,0,0,1,.25-.11c1.09-1.32,1.65-2.33,1.65-3-.11-.89-1.09-1.34-2.91-1.34a6,6,0,0,0-1.17.14,9.33,9.33,0,0,0-1.32.17l-.62.11c-.05.84-.05,1.48-.05,2v.78A25.94,25.94,0,0,1,37.24,17a3.71,3.71,0,0,1,.92-.17.77.77,0,0,1,.26.17.67.67,0,0,1,.11.23c0,.11-.11.22-.28.28-.76.28-1.85.7-3.25,1.26a5.2,5.2,0,0,1-.84.3l0,2.41ZM44,30.17a.34.34,0,0,0-.14,0v1.48a11.84,11.84,0,0,1-.22,2.52c-.2.67-.48,1-.81,1a5.31,5.31,0,0,1-2.33-.62,6,6,0,0,1-1.4-1,3.73,3.73,0,0,1-.22.73.55.55,0,0,1-.5.39.39.39,0,0,1-.37-.28,2.67,2.67,0,0,1-.11-.9c0-.16,0-.42,0-.81s0-.5,0-.67.28-.36.61-.36.65.22.67.72c0,.14,0,.28,0,.4.25.11.58.28,1,.5a6.45,6.45,0,0,0,2.29.76,5.59,5.59,0,0,0,.25-2.41V30.42c-1.26.22-2.43.39-3.5.56a.74.74,0,0,0-.16,0,.3.3,0,0,1-.23-.14,1,1,0,0,1-.08-.42c0-.11.08-.17.19-.23a12.59,12.59,0,0,0-.3-1.68c-.4-1-.68-1.9-.9-2.63a.57.57,0,0,1,.14-.31.52.52,0,0,1,.36-.19c.14,0,.26,0,.34,0a.61.61,0,0,1,.34.3.17.17,0,0,0,0,.09,19.79,19.79,0,0,1,2.5-.76c.25-.05.5-.08.75-.14,0-.42-.14-.84-.19-1.23-1.4.17-2.86.36-4.37.59a.45.45,0,0,1-.48-.37v-.14a.36.36,0,0,1,.17-.28c.95-.22,2.46-.44,4.54-.72a5.39,5.39,0,0,1-.12-.68,5.81,5.81,0,0,1-.16-1,.56.56,0,0,1,.56-.59.63.63,0,0,1,.64.59c.08.53.17,1.06.28,1.56,2.66-.3,4.26-.47,4.76-.47a.37.37,0,0,1,.39.39c0,.11-.05.17-.17.22-1.4.23-3,.48-4.81.7.05.45.11.84.17,1.24.61-.06,1.23-.12,1.87-.12a7.19,7.19,0,0,1,2.13.31,1.83,1.83,0,0,1,1.12.65,1.37,1.37,0,0,1,.22.75,5.37,5.37,0,0,1-.25,1.32,5.78,5.78,0,0,1-.89,1.54.68.68,0,0,1-.4.17h0C46.31,29.64,45.28,29.89,44,30.17Zm-2.52-.34,1.24-.25c0-.34-.06-.64-.06-.92a9.89,9.89,0,0,1-1.74-1,.92.92,0,0,1-.42-.62.19.19,0,0,1,.12-.16s.05-.06.11-.06a.12.12,0,0,0,.08,0,3.54,3.54,0,0,1,1.79.87c0-.59-.14-1.26-.25-2a31,31,0,0,0-3.16.87c.08.36.19.78.31,1.23a22.76,22.76,0,0,1,.39,2.27Zm2.22-2.27a9.33,9.33,0,0,0,1.14-.75,2.57,2.57,0,0,0,.62-.62s.06,0,.11,0a1.13,1.13,0,0,1,.31.06.58.58,0,0,1,.28.34.64.64,0,0,1-.11.22,6.21,6.21,0,0,1-2.27,1.46c0,.39,0,.75.06,1.14.7-.14,1.34-.28,2-.44s1-.26,1.2-.31A8.26,8.26,0,0,0,47.68,27a4.79,4.79,0,0,0,.09-.76c0-.56-.79-.87-2.33-.87a15.61,15.61,0,0,0-1.9.14C43.6,26.19,43.68,26.89,43.74,27.56ZM50.12,33a1,1,0,0,1-.11-.44c0-.23.11-.37.31-.37a6.74,6.74,0,0,1,2.82,1.21c-.14-.84-.33-2-.56-3.48-.22-1.93-.42-4.67-.53-8.23V19a28.58,28.58,0,0,1-3.44,1,9.15,9.15,0,0,1-1.82.22.62.62,0,0,1-.53.34c-.42,0-.62-.23-.62-.7s0-.9,0-1.57c0-.9,0-1.49,0-1.77,0-.78,0-1.37,0-1.82a6.28,6.28,0,0,0-.42-1.9.75.75,0,0,1,.33-.62,1,1,0,0,1,.42-.08.63.63,0,0,1,.45.22,1.52,1.52,0,0,1,.11.23,4.07,4.07,0,0,1,1.07-.31A18.38,18.38,0,0,1,50.29,12l1.2,0a8.48,8.48,0,0,1,.87.06c.67.11,1,.39,1.06.81s0,.62,0,1c0,.73-.06,2-.12,3.95,0,1.06,0,2.32,0,3.78q0,2.68.25,6a53.72,53.72,0,0,0,1,5.9c0,.82-.34,1.24-1,1.26A4,4,0,0,1,50.12,33Zm-2.66,1.12a2.74,2.74,0,0,1-.73-1.34,3.38,3.38,0,0,1-.17-.73,1.72,1.72,0,0,1,0-.31c0-.33.19-.5.58-.5.23,0,.37.11.42.39a6.08,6.08,0,0,1,.23.62,3,3,0,0,0,.22.61,3.67,3.67,0,0,0,.42.84.78.78,0,0,1,.09.28.5.5,0,0,1-.48.48A.64.64,0,0,1,47.46,34.14Zm1-15.12a18.85,18.85,0,0,0,3.61-1c0-1.68,0-3.33.06-4.92,0-.12-.39-.2-1.12-.2h-.76a10.13,10.13,0,0,0-3.44.64c.05.34.14.7.19,1.1s0,.86,0,1.37c0,0,.06,0,.11,0a23.5,23.5,0,0,1,3.64-1.09c.06,0,.14.08.26.22a.43.43,0,0,1,.08.2c0,.05,0,.08,0,.14a2.47,2.47,0,0,1-.73.45c-.84.33-1.59.61-2.32.84a5,5,0,0,1-1,.3c0,.54,0,1.18,0,1.94,0,.08,0,.16,0,.22Z" transform="translate(-4.26 -6.45)"/><path class="cls-2" d="M89.66,29.36a27.43,27.43,0,0,1-5.13.47c-2.43,0-3.64-.81-3.64-2.46a7.41,7.41,0,0,1,1.51-3.56c.82-1.12,1.63-2.21,2.47-3.3,2.13-2.86,3.19-4.93,3.19-6.25,0-.92-.42-1.4-1.23-1.4-1.46,0-3.39.82-5.74,2.44a1.68,1.68,0,0,1-.87.36c-.56,0-.84-.36-.84-1.09,0-.36.25-.7.76-1a1.53,1.53,0,0,1,1.09-.48c2.41-1.29,4.28-2,5.63-2a2.92,2.92,0,0,1,2.12.76A2.73,2.73,0,0,1,89.8,14a8.24,8.24,0,0,1-1.26,3.83,45.69,45.69,0,0,1-2.94,4.4c-1.24,1.68-2,2.74-2.27,3.19a5.39,5.39,0,0,0-.79,1.93c.2.56,1.1.81,2.66.81a12.22,12.22,0,0,0,3.53-.36l.87-.25a.83.83,0,0,1,.9.95C90.5,29,90.22,29.24,89.66,29.36Z" transform="translate(-4.26 -6.45)"/><path class="cls-2" d="M104.05,13.26a25.94,25.94,0,0,0-1.63,5.85c-.22,1.45-.39,3.58-.56,6.33a1.42,1.42,0,0,1,.53,1.12,24.79,24.79,0,0,1-.25,3c-.11.4-.28.59-.53.59-.84-.11-1.29-.42-1.29-.92,0-1-.08-1.93-.08-2.86a47.44,47.44,0,0,1,1.65-12.26,31.22,31.22,0,0,0-4.56,2.07,5.8,5.8,0,0,1-.93.42c-.5,0-.75-.28-.75-.87s.31-.84.92-1.17a49.88,49.88,0,0,1,5.18-2.33,4.35,4.35,0,0,1,2-.87c.42,0,.7.28.87.79A3.7,3.7,0,0,1,104.05,13.26Z" transform="translate(-4.26 -6.45)"/><path class="cls-2" d="M124.26,22a5.27,5.27,0,0,1-1.54.28l-4,1.18c0,.22-.06.7-.12,1.43,0,.56,0,.95,0,1.17a9.39,9.39,0,0,0,.11,1.74A2.75,2.75,0,0,1,119,29.1a10.48,10.48,0,0,0,.22,2.58c-.11.48-.33.73-.73.73s-.84-.51-1-1.51a21.1,21.1,0,0,1-.45-4.23,28,28,0,0,1,.11-2.89,18.72,18.72,0,0,1-3.64.37,3.87,3.87,0,0,1-2.63-.95,3,3,0,0,1-1.12-2.47c0-2.49,1.62-5.49,4.87-9,.9-.95,1.54-1.45,1.93-1.45.62,0,.93.3.93.89,0,.81-.65,1.46-1.91,2a32.3,32.3,0,0,0-2.71,3.45,7.71,7.71,0,0,0-1.49,4.14,1.35,1.35,0,0,0,1,1.32,4,4,0,0,0,1.71.33,15.78,15.78,0,0,0,3.22-.45c.23-1.23.48-2.46.73-3.72a24.14,24.14,0,0,1,1-3.67.77.77,0,0,1,.75-.59.66.66,0,0,1,.73.76c0,.06-.14.5-.36,1.34a55.38,55.38,0,0,0-1.21,5.55l2.94-.9a9,9,0,0,1,2.13-.45.73.73,0,0,1,.81.82A.86.86,0,0,1,124.26,22Z" transform="translate(-4.26 -6.45)"/><path class="cls-2" d="M135.43,11.63a4.9,4.9,0,0,1-.78,2,50,50,0,0,1-4.37,6.83,6.87,6.87,0,0,1-1.68,1.85.56.56,0,0,1-.31.06c-.33,0-.47-.17-.47-.51a.7.7,0,0,1,.11-.36,46.12,46.12,0,0,1,3.16-4.84c1.35-2.05,2.41-3.78,3.2-5.24a.61.61,0,0,1,.5-.31A.56.56,0,0,1,135.43,11.63Zm8.77,14c0-.45.19-.73.59-.78a.59.59,0,0,1,.47.22,29.6,29.6,0,0,1,3,7,4.13,4.13,0,0,1,.42,1.29.65.65,0,0,1-.67.75.76.76,0,0,1-.68-.47c-.92-2-1.76-3.92-2.55-6-.33.3-.69.61-1.09.92a33,33,0,0,1-6.49,3.56,14.45,14.45,0,0,1-5,1.12,1.31,1.31,0,0,1-.76-.28,1,1,0,0,1-.28-.76c0-.53.64-2.13,1.93-4.82s2.47-5.09,3.45-7.44a.82.82,0,0,1,.81-.59.54.54,0,0,1,.56.61q0,.88-2.33,5.8c-.95,2.1-1.9,4.12-2.85,6a27.31,27.31,0,0,0,6.47-2.38c1.73-.92,3.47-1.9,5.18-2.94A2.32,2.32,0,0,1,144.2,25.66Zm8.62-5.26c0,.19-.17.3-.39.36h-.59a5.66,5.66,0,0,1-1.54-.45,12.64,12.64,0,0,1-3.22-2.43,23.79,23.79,0,0,1-3.83-4.26q-1.51-2-3.28-4.68a.64.64,0,0,1-.25-.42.77.77,0,0,1,.25-.58.49.49,0,0,1,.42-.2,1.14,1.14,0,0,1,.45.11,4.25,4.25,0,0,1,.64.79c.59.75,1.23,1.62,1.91,2.57a32.35,32.35,0,0,0,2.24,2.91,25,25,0,0,0,5.65,5.16l1.1.67C152.65,20.09,152.82,20.23,152.82,20.4Z" transform="translate(-4.26 -6.45)"/><path class="cls-2" d="M161.59,19.3a20.36,20.36,0,0,1-1.35-6.88c-.05-1-.05-1.94-.05-2.94.05-.28.28-.48.67-.59h.19a.62.62,0,0,1,.57.7v1.09a28.48,28.48,0,0,1,4.76-1.4,31.34,31.34,0,0,1,4.84-.45,19.71,19.71,0,0,1,2.83.2,4.45,4.45,0,0,1,2.63,1.31,3.19,3.19,0,0,1,.73,1.94,7.21,7.21,0,0,1-1,3,11.39,11.39,0,0,1-1.54,2,.8.8,0,0,1,.42.28,2.35,2.35,0,0,0,.14.34.82.82,0,0,1-.31.64A29.11,29.11,0,0,1,169,20.73c0,.53,0,1,0,1.35v3c.87-.06,1.65-.08,2.35-.08,1.29,0,2.38,0,3.22.05a.73.73,0,0,1,.53.76.42.42,0,0,1-.31.45,25,25,0,0,1-3.38.22l-2.44.14v1.54c0,1.12,0,2.18,0,3.3,1.17-.08,2.32-.14,3.39-.16,1.34-.09,2.63-.14,3.86-.2,1-.06,2-.06,2.91-.06.59,0,.9.23,1,.68a.71.71,0,0,1-.61.72c-.84.06-1.77.09-2.72.14l-3.78.2q-3.9.16-8,.42c-2.49.14-4.79.31-6.86.53a5.55,5.55,0,0,1-.81.09c-.17,0-.28-.14-.39-.4a2.39,2.39,0,0,1,0-.53c.06-.25.42-.45,1.12-.59,1.29-.16,3-.3,5.07-.47,1.37-.09,2.69-.17,4-.23a3.64,3.64,0,0,1,.72-.05c-.05-.87-.05-2-.05-3.42v-1.4c-.9.11-1.93.25-3.08.48a16.83,16.83,0,0,1-2.13.17.44.44,0,0,1-.28-.12c-.14-.11-.19-.36-.19-.7a.63.63,0,0,1,.36-.56c.89-.19,1.85-.39,2.91-.56l2.41-.25c0-1.31,0-2.55,0-3.72v-.42a8.84,8.84,0,0,1-1,.25,27.35,27.35,0,0,1-4,.5.83.83,0,0,1-.62-.25.9.9,0,0,1-.25-.61.53.53,0,0,1,.25-.51A5.89,5.89,0,0,1,161.59,19.3Zm6.27-8.2a1.33,1.33,0,0,1-.06-.39v0c-.39.08-.75.17-1.06.25a29.27,29.27,0,0,0-4.62,1.29,1.06,1.06,0,0,1-.45.17c0,.56,0,1.15.08,1.71A13.18,13.18,0,0,0,162,16a54.79,54.79,0,0,1,5.79-1.77C167.83,13.28,167.86,12.22,167.86,11.1Zm0,4.65c-1,.28-2,.56-3,.84-1.23.33-2.07.56-2.55.67a13,13,0,0,0,1.21,3c.95-.11,2-.28,3-.5a9.56,9.56,0,0,0,1.23-.25C167.77,18.32,167.8,17.06,167.83,15.75Zm4,2.55a11.15,11.15,0,0,0,2.22-2.13,8.86,8.86,0,0,0,1.84-3.64c0-1.43-1.37-2.16-4.08-2.21a19.32,19.32,0,0,0-2.58.16,3.35,3.35,0,0,1,.06.59c0,.67,0,1.6-.06,2.83.48-.11,1-.25,1.43-.36a11.27,11.27,0,0,1,2.27-.31.79.79,0,0,1,.36.19.8.8,0,0,1,.17.37c0,.17-.14.31-.39.39-1,.34-2.33.73-3.87,1.15a7.86,7.86,0,0,0,0,.84c0,1.12-.08,2.15-.11,3,.95-.25,1.85-.53,2.69-.81A.38.38,0,0,1,171.83,18.3Z" transform="translate(-4.26 -6.45)"/></g></g></svg>