<svg id="圖層_1" data-name="圖層 1" xmlns="http://www.w3.org/2000/svg" viewBox="0 0 177.8 28.17"><defs><style>.cls-1{isolation:isolate;}.cls-2{fill:#fff;}</style></defs><g id="花蓮_319公里" data-name="花蓮 319公里" class="cls-1"><g class="cls-1"><path class="cls-2" d="M11.31,18.58A6,6,0,0,1,10.44,20c-.44.56-1,1.23-1.62,2a10.11,10.11,0,0,1,.39,2.71,34.21,34.21,0,0,1-.67,6.92c-.17.92-.34,1.76-.53,2.52-.11.39-.31.59-.65.59s-.58-.23-.58-.68a20.85,20.85,0,0,1,.61-3.89,20.72,20.72,0,0,0,.39-4V24.71a8.1,8.1,0,0,0-.14-1.49c-.75.87-1.54,1.74-2.35,2.64-.61.67-1.26,1.42-2,2.29a.6.6,0,0,1-.5.31c-.34,0-.5-.14-.5-.45a.66.66,0,0,1,.19-.47c.34-.45.79-1,1.37-1.68.68-.84,1.52-1.94,2.58-3.28.87-1.12,1.76-2.24,2.72-3.42.3-.44.61-.86.89-1.31a3.14,3.14,0,0,0,.23-.53,1.76,1.76,0,0,1,.75-.14.62.62,0,0,1,.51.64A2,2,0,0,1,11.31,18.58Zm0-2.8a.44.44,0,0,1-.42-.28,17.17,17.17,0,0,1-.14-2.36c-1.17.34-2.32.68-3.44,1A4.9,4.9,0,0,1,6,14.43a.57.57,0,0,1-.45-.25.46.46,0,0,1-.17-.39,1,1,0,0,1,0-.28c0-.17.11-.28.34-.39A9.41,9.41,0,0,1,9.3,11.74a8.38,8.38,0,0,0,1.31-.28c0-.33,0-.67-.11-1a5.92,5.92,0,0,0-.36-1.29,3.09,3.09,0,0,1-.42-.73,1.45,1.45,0,0,1-.14-.73.79.79,0,0,1,.25-.42.89.89,0,0,1,.56-.17.92.92,0,0,1,.45.23,2.89,2.89,0,0,1,.58,1.09,4.72,4.72,0,0,1,.42,1.71c0,.33,0,.67.06,1,.84-.23,1.82-.48,2.94-.81.5-.12,1.06-.28,1.68-.45a6.1,6.1,0,0,0-.36-1.63,1.84,1.84,0,0,1-.28-.86.83.83,0,0,1,.22-.65.58.58,0,0,1,.45-.19.78.78,0,0,1,.47.19,2.38,2.38,0,0,1,.4.51,10.17,10.17,0,0,1,.47,2.24l2-.65c.84-.25,1.43-.42,1.71-.47l.33,0a.55.55,0,0,1,.28.42.65.65,0,0,1-.33.62,10.54,10.54,0,0,1-4,1.93c-.06.48-.11,1-.22,1.51a9.63,9.63,0,0,1-.51,1.49,3.19,3.19,0,0,1-.36.7.72.72,0,0,1-.59.22c-.22,0-.34-.14-.34-.42a2.35,2.35,0,0,1,.17-.75c.14-.51.28-1.07.39-1.66,0-.25.06-.47.09-.7-1.51.31-3.05.68-4.62,1.1a22.21,22.21,0,0,1-.09,2.49C11.82,15.64,11.62,15.78,11.28,15.78Zm3.92.84A.85.85,0,0,1,16,16a.62.62,0,0,1,.5.36,1.1,1.1,0,0,1,.14.45L16.6,18c-.11,1-.25,2-.36,3.11,1.12-.34,2.18-.7,3.19-1.09a32.94,32.94,0,0,0,3.5-1.57.59.59,0,0,1,.42.19c0,.06,0,.12,0,.23a.63.63,0,0,1-.25.47,9.35,9.35,0,0,1-3.45,2.08L16.8,22.55a1.94,1.94,0,0,1-.62.17H16.1c-.06.42-.08.81-.11,1.15-.06,1.29-.06,2.8-.06,4.56.06,2.41,1.49,3.64,4.34,3.64,3.08,0,4.68-.78,4.73-2.29a7.92,7.92,0,0,0-.61-3c0-.33.14-.5.39-.53a.76.76,0,0,1,.67.31A6,6,0,0,1,26.29,30c0,1.46-.87,2.49-2.55,3.08a10,10,0,0,1-3.41.51c-2,0-3.47-.42-4.34-1.26A5.73,5.73,0,0,1,14.56,28,83.4,83.4,0,0,1,15.2,16.62Z" transform="translate(-2.3 -6.51)"/><path class="cls-2" d="M38,31.2a53.1,53.1,0,0,0,6.75,1.46c.56.08,1.14.14,1.76.2a2.3,2.3,0,0,1-.11-.68c-.06-.72-.09-1.51-.09-2.32v-.73c-1.56.34-3,.62-4.36.87l-1.1.17c-.28,0-.5,0-.67,0-.33,0-.53-.26-.59-.7,0-.2.17-.4.51-.56a3.94,3.94,0,0,1,.75-.26c1.85-.28,3.64-.58,5.44-.95,0-.59-.06-1.23-.06-1.9-1,.28-2,.5-2.94.67a.62.62,0,0,1-.28.06.33.33,0,0,1-.34-.2.94.94,0,0,1-.14-.59.49.49,0,0,1,.28-.42.23.23,0,0,0,.12,0c-.09-.61-.23-1.28-.42-2.07-.51-1.37-.9-2.52-1.24-3.47a.65.65,0,0,1,.23-.39.4.4,0,0,1,.36-.23c.14,0,.25,0,.34,0a.94.94,0,0,1,.42.39A15.73,15.73,0,0,1,45,18.63c.36-.08.7-.17,1-.22,0-.42,0-.84,0-1.29v-.53c-.79.14-1.54.28-2.33.39-.61.06-1.23.11-1.82.11H41.3a.5.5,0,0,1-.5-.56v-.31a1,1,0,0,1,.58-.61,1.59,1.59,0,0,0,.4,0,23.34,23.34,0,0,0,4-.37c.06,0,.11,0,.17,0v-.89a.77.77,0,0,1,.36-.59.87.87,0,0,1,.42-.11.62.62,0,0,1,.7.67,4.16,4.16,0,0,0,0,.62,33.06,33.06,0,0,0,3.3-.82c.26,0,.48-.11.68-.16a2.38,2.38,0,0,1,.53.11c.17.14.28.25.28.36a1.57,1.57,0,0,1-.11.39,1,1,0,0,1-.51.34,33.52,33.52,0,0,1-3.78,1,1.23,1.23,0,0,1-.39.08v.37c0,.56,0,1.06,0,1.56.42,0,.84-.05,1.23-.05a6.43,6.43,0,0,1,2.46.45,2.29,2.29,0,0,1,1.29,1,2.41,2.41,0,0,1,.28,1.12,3.53,3.53,0,0,1-.45,1.51,6,6,0,0,1-1.06,1.4,1.26,1.26,0,0,1-.17.47,30.78,30.78,0,0,1-3.33,1.32.88.88,0,0,1-.17.06v2C50,27,52,26.53,53.42,26.14a.48.48,0,0,1,.37.22.39.39,0,0,1,.05.2.92.92,0,0,1-.28.53,22.85,22.85,0,0,1-6,1.79v.81c0,1,0,1.85,0,2.47a2.65,2.65,0,0,1-.11.78c.11,0,.2,0,.28,0,.9,0,1.71.05,2.44.05s1.31-.05,2.1-.11a9.58,9.58,0,0,0,1.93-.39,5.32,5.32,0,0,1,1.15-.2c.33,0,.5.09.53.28a.74.74,0,0,1-.14.4l-.39.28a17.57,17.57,0,0,1-6.3,1A47.33,47.33,0,0,1,35.84,32.1a17.22,17.22,0,0,1-2.38-.84c-.42-.22-.78-.42-1.09-.62a.46.46,0,0,1-.14-.36.84.84,0,0,1,.28-.67.78.78,0,0,1,.47-.17,1.63,1.63,0,0,1,.4.11l.78.28a2.9,2.9,0,0,0,.73-1.93,2.14,2.14,0,0,0-.45-1.09,1.84,1.84,0,0,1-.34-1,3.15,3.15,0,0,1,.76-1.74,1.4,1.4,0,0,0,.34-.61,2.19,2.19,0,0,0-.42-1c-.28-.31-.56-.65-.87-1,0-.42.25-.64.75-.64a.92.92,0,0,1,.54.28,2.69,2.69,0,0,1,1.23,2.24,5.23,5.23,0,0,1-1,2.46,4,4,0,0,1,.76,2.33,2.86,2.86,0,0,1-.84,2.18C36.23,30.62,37.1,30.92,38,31.2ZM36.85,19.53c-.28,0-.59-.23-.9-.7a5.14,5.14,0,0,0-2.35-1.74,1.14,1.14,0,0,1-.42-.28.89.89,0,0,1-.06-.42.91.91,0,0,1,0-.25c.09-.31.34-.48.79-.5a2.57,2.57,0,0,1,1.59.72,6.43,6.43,0,0,1,1.65,1.91,1.69,1.69,0,0,1,.12.56C37.27,19.3,37.13,19.53,36.85,19.53Zm2.69-5.88a.43.43,0,0,1-.45-.28A10.31,10.31,0,0,1,39,11.74a.69.69,0,0,1,0-.25c-1.68.23-3.28.39-4.79.51-.45,0-.67-.28-.67-.84a.63.63,0,0,1,.64-.7A37.32,37.32,0,0,0,38.72,10s0,0,0-.11a2.14,2.14,0,0,0-.62-.9c-.17-.19-.36-.39-.56-.58a.9.9,0,0,1-.2-.59.59.59,0,0,1,.26-.39.69.69,0,0,1,1,.08,3,3,0,0,1,.9.78,2.74,2.74,0,0,1,.59,1.24c0,.08,0,.16,0,.28,1.59-.23,3.44-.56,5.54-1a3.53,3.53,0,0,0-.36-.92A.84.84,0,0,1,45,7.32a.8.8,0,0,1,.22-.64.89.89,0,0,1,.45-.17.84.84,0,0,1,.5.17,2,2,0,0,1,.34.5,3.59,3.59,0,0,1,.5,1.4c1.43-.25,2.94-.53,4.57-.87.42,0,.64.11.7.31s0,.22,0,.34a.76.76,0,0,1-.31.42A30.94,30.94,0,0,1,47,10.2c-.06.34-.11.68-.2,1a7.52,7.52,0,0,1-.53,1.26,1.22,1.22,0,0,1-.39.56.63.63,0,0,1-.56.25c-.25,0-.36-.14-.36-.42a2.2,2.2,0,0,1,.19-.64,8.48,8.48,0,0,0,.42-1.37,2,2,0,0,0,.06-.4c-1.91.37-3.73.65-5.49.87a14.33,14.33,0,0,1-.08,1.88C40.07,13.51,39.87,13.65,39.54,13.65ZM43,20.56c.14.51.31,1.07.51,1.74v0a19.66,19.66,0,0,1,2.63-.79c0-.67-.06-1.34-.06-2A18.56,18.56,0,0,0,43,20.56Zm2.24,4.29,1-.25c0-.34,0-.73,0-1.12v-.84l-.89.22a12.67,12.67,0,0,1-1.6.36c.17.84.25,1.49.31,1.88C44.41,25,44.83,24.93,45.19,24.85Zm4.15-1.12c.33-.11.58-.23.81-.31l.08-.08a5.73,5.73,0,0,0,1-1.91,4.14,4.14,0,0,0,.17-.95c0-.87-.87-1.32-2.55-1.32a9.94,9.94,0,0,0-1.34.09v2l.81-.17a5.86,5.86,0,0,1,1.23-.17.62.62,0,0,1,.28.17.79.79,0,0,1,.11.28.38.38,0,0,1-.25.34c-.62.16-1.32.39-2.16.61,0,.62,0,1.29,0,2C48.19,24.06,48.78,23.9,49.34,23.73Z" transform="translate(-2.3 -6.51)"/><path class="cls-2" d="M89.38,16.59a20.7,20.7,0,0,1-2.55,2.1l-2.44,1.82c4.12.42,6.19,1.79,6.19,4.11a4.8,4.8,0,0,1-2.38,4.09,7.93,7.93,0,0,1-4.54,1.43,10.71,10.71,0,0,1-2.85-.31c-1-.25-1.46-.7-1.46-1.34s.28-.76.84-.76c.14,0,.7.14,1.65.37a7.12,7.12,0,0,0,1.77.25A6.36,6.36,0,0,0,87,27.28c1.24-.75,1.88-1.59,1.88-2.52,0-1.68-2-2.54-6-2.54h-.67c-.28,0-.51,0-.68,0-.47,0-.7-.25-.7-.75,0-.34.59-.93,1.8-1.77l3.58-2.57a11.78,11.78,0,0,0,2-1.68,2.67,2.67,0,0,0,.7-1.79c0-.79-.72-1.18-2.15-1.18A12.43,12.43,0,0,0,81,13.76a6.34,6.34,0,0,1-.9.42c-.62,0-.92-.25-.92-.81a1,1,0,0,1,.42-.9,12.35,12.35,0,0,1,3.5-1.37,16.8,16.8,0,0,1,3.72-.48,4.82,4.82,0,0,1,2.6.68,2.63,2.63,0,0,1,1.29,2.29A4.42,4.42,0,0,1,89.38,16.59Z" transform="translate(-2.3 -6.51)"/><path class="cls-2" d="M104.05,13.26a25.94,25.94,0,0,0-1.63,5.85c-.22,1.45-.39,3.58-.56,6.33a1.42,1.42,0,0,1,.53,1.12,24.79,24.79,0,0,1-.25,3c-.11.4-.28.59-.53.59-.84-.11-1.29-.42-1.29-.92,0-1-.08-1.93-.08-2.86a47.44,47.44,0,0,1,1.65-12.26,31.22,31.22,0,0,0-4.56,2.07,5.8,5.8,0,0,1-.93.42c-.5,0-.75-.28-.75-.87s.31-.84.92-1.17a49.88,49.88,0,0,1,5.18-2.33,4.35,4.35,0,0,1,2-.87c.42,0,.7.28.87.79A3.7,3.7,0,0,1,104.05,13.26Z" transform="translate(-2.3 -6.51)"/><path class="cls-2" d="M122.25,18.91a39.12,39.12,0,0,1-1.6,8c-1.18,3-3.05,4.45-5.65,4.45-1.52,0-2.27-.42-2.27-1.2,0-.56.22-.84.7-.84a4.1,4.1,0,0,1,.84.16,3,3,0,0,0,.92.17c1.63,0,2.94-1.15,4-3.5a26.46,26.46,0,0,0,1.54-7.78c-1.57,2.57-3.56,3.86-5.91,3.86a2.3,2.3,0,0,1-1.93-1,3.73,3.73,0,0,1-.73-2.4,8.89,8.89,0,0,1,1.74-5.27c1.26-1.79,2.74-2.71,4.45-2.71a3.77,3.77,0,0,1,2.91,1.31,1.72,1.72,0,0,1,.5,1.12,1.42,1.42,0,0,1-.25.87,1.54,1.54,0,0,1,1,1.65A29.84,29.84,0,0,1,122.25,18.91Zm-2.72-5.68a2.12,2.12,0,0,0-1.57-.56c-1.12,0-2.1.73-3,2.13a7.25,7.25,0,0,0-1.26,3.92c0,1.2.47,1.79,1.48,1.79a4.79,4.79,0,0,0,3.36-1.65,7.67,7.67,0,0,0,2.1-3.36,5.12,5.12,0,0,1,.48-1.18A3.06,3.06,0,0,1,119.53,13.23Z" transform="translate(-2.3 -6.51)"/><path class="cls-2" d="M135.43,11.63a4.9,4.9,0,0,1-.78,2,50,50,0,0,1-4.37,6.83,6.87,6.87,0,0,1-1.68,1.85.56.56,0,0,1-.31.06c-.33,0-.47-.17-.47-.51a.7.7,0,0,1,.11-.36,46.12,46.12,0,0,1,3.16-4.84c1.35-2.05,2.41-3.78,3.2-5.24a.61.61,0,0,1,.5-.31A.56.56,0,0,1,135.43,11.63Zm8.77,14c0-.45.19-.73.59-.78a.59.59,0,0,1,.47.22,29.6,29.6,0,0,1,3,7,4.13,4.13,0,0,1,.42,1.29.65.65,0,0,1-.67.75.76.76,0,0,1-.68-.47c-.92-2-1.76-3.92-2.55-6-.33.3-.69.61-1.09.92a33,33,0,0,1-6.49,3.56,14.45,14.45,0,0,1-5,1.12,1.31,1.31,0,0,1-.76-.28,1,1,0,0,1-.28-.76c0-.53.64-2.13,1.93-4.82s2.47-5.09,3.45-7.44a.82.82,0,0,1,.81-.59.54.54,0,0,1,.56.61q0,.88-2.33,5.8c-.95,2.1-1.9,4.12-2.85,6a27.31,27.31,0,0,0,6.47-2.38c1.73-.92,3.47-1.9,5.18-2.94A2.32,2.32,0,0,1,144.2,25.66Zm8.62-5.26c0,.19-.17.3-.39.36h-.59a5.66,5.66,0,0,1-1.54-.45,12.64,12.64,0,0,1-3.22-2.43,23.79,23.79,0,0,1-3.83-4.26q-1.51-2-3.28-4.68a.64.64,0,0,1-.25-.42.77.77,0,0,1,.25-.58.49.49,0,0,1,.42-.2,1.14,1.14,0,0,1,.45.11,4.25,4.25,0,0,1,.64.79c.59.75,1.23,1.62,1.91,2.57a32.35,32.35,0,0,0,2.24,2.91,25,25,0,0,0,5.65,5.16l1.1.67C152.65,20.09,152.82,20.23,152.82,20.4Z" transform="translate(-2.3 -6.51)"/><path class="cls-2" d="M161.59,19.3a20.36,20.36,0,0,1-1.35-6.88c-.05-1-.05-1.94-.05-2.94.05-.28.28-.48.67-.59h.19a.62.62,0,0,1,.57.7v1.09a28.48,28.48,0,0,1,4.76-1.4,31.34,31.34,0,0,1,4.84-.45,19.71,19.71,0,0,1,2.83.2,4.45,4.45,0,0,1,2.63,1.31,3.19,3.19,0,0,1,.73,1.94,7.21,7.21,0,0,1-1,3,11.39,11.39,0,0,1-1.54,2,.8.8,0,0,1,.42.28,2.35,2.35,0,0,0,.14.34.82.82,0,0,1-.31.64A29.11,29.11,0,0,1,169,20.73c0,.53,0,1,0,1.35v3c.87-.06,1.65-.08,2.35-.08,1.29,0,2.38,0,3.22.05a.73.73,0,0,1,.53.76.42.42,0,0,1-.31.45,25,25,0,0,1-3.38.22l-2.44.14v1.54c0,1.12,0,2.18,0,3.3,1.17-.08,2.32-.14,3.39-.16,1.34-.09,2.63-.14,3.86-.2,1-.06,2-.06,2.91-.06.59,0,.9.23,1,.68a.71.71,0,0,1-.61.72c-.84.06-1.77.09-2.72.14l-3.78.2q-3.9.16-8,.42c-2.49.14-4.79.31-6.86.53a5.55,5.55,0,0,1-.81.09c-.17,0-.28-.14-.39-.4a2.39,2.39,0,0,1,0-.53c.06-.25.42-.45,1.12-.59,1.29-.16,3-.3,5.07-.47,1.37-.09,2.69-.17,4-.23a3.64,3.64,0,0,1,.72-.05c-.05-.87-.05-2-.05-3.42v-1.4c-.9.11-1.93.25-3.08.48a16.83,16.83,0,0,1-2.13.17.44.44,0,0,1-.28-.12c-.14-.11-.19-.36-.19-.7a.63.63,0,0,1,.36-.56c.89-.19,1.85-.39,2.91-.56l2.41-.25c0-1.31,0-2.55,0-3.72v-.42a8.84,8.84,0,0,1-1,.25,27.35,27.35,0,0,1-4,.5.83.83,0,0,1-.62-.25.9.9,0,0,1-.25-.61.53.53,0,0,1,.25-.51A5.89,5.89,0,0,1,161.59,19.3Zm6.27-8.2a1.33,1.33,0,0,1-.06-.39v0c-.39.08-.75.17-1.06.25a29.27,29.27,0,0,0-4.62,1.29,1.06,1.06,0,0,1-.45.17c0,.56,0,1.15.08,1.71A13.18,13.18,0,0,0,162,16a54.79,54.79,0,0,1,5.79-1.77C167.83,13.28,167.86,12.22,167.86,11.1Zm0,4.65c-1,.28-2,.56-3,.84-1.23.33-2.07.56-2.55.67a13,13,0,0,0,1.21,3c.95-.11,2-.28,3-.5a9.56,9.56,0,0,0,1.23-.25C167.77,18.32,167.8,17.06,167.83,15.75Zm4,2.55a11.15,11.15,0,0,0,2.22-2.13,8.86,8.86,0,0,0,1.84-3.64c0-1.43-1.37-2.16-4.08-2.21a19.32,19.32,0,0,0-2.58.16,3.35,3.35,0,0,1,.06.59c0,.67,0,1.6-.06,2.83.48-.11,1-.25,1.43-.36a11.27,11.27,0,0,1,2.27-.31.79.79,0,0,1,.36.19.8.8,0,0,1,.17.37c0,.17-.14.31-.39.39-1,.34-2.33.73-3.87,1.15a7.86,7.86,0,0,0,0,.84c0,1.12-.08,2.15-.11,3,.95-.25,1.85-.53,2.69-.81A.38.38,0,0,1,171.83,18.3Z" transform="translate(-2.3 -6.51)"/></g></g></svg>