<svg id="圖層_1" data-name="圖層 1" xmlns="http://www.w3.org/2000/svg" viewBox="0 0 175.78 27.19"><defs><style>.cls-1{isolation:isolate;}.cls-2{fill:#fff;}</style></defs><g id="台南_690公里" data-name="台南 690公里" class="cls-1"><g class="cls-1"><path class="cls-2" d="M19.38,15.33a4.94,4.94,0,0,1-.73-1.26,1.49,1.49,0,0,1-.09-.48c0-.33.26-.56.73-.67a.86.86,0,0,1,.62.28c.36.42.89,1.09,1.57,2,1.06,1.57,2.26,3.31,3.55,5.16a1.16,1.16,0,0,1,.17.56.54.54,0,0,1-.45.56.79.79,0,0,1-.59-.23c-.81-.47-2-1.87-3.58-4.17a9.91,9.91,0,0,1-1.2.67,34.38,34.38,0,0,1-4.26,1.57,39.26,39.26,0,0,1-4.65,1.26,22.67,22.67,0,0,1-4.42.62H5.24q-.93-.09-.93-.84a3.6,3.6,0,0,1,.84-1.91,35.59,35.59,0,0,0,2.27-3.33c.78-1.29,1.48-2.49,2.1-3.64s1-1.88,1.43-2.66a.58.58,0,0,1,.53-.42.65.65,0,0,1,.67.67v.23a14.08,14.08,0,0,1-1.71,3.33c-1,1.71-2,3.36-3,4.93-.56.89-1,1.65-1.37,2.26a16.9,16.9,0,0,0,2.46-.3c1.51-.28,3.16-.68,5-1.15a55.93,55.93,0,0,0,6.33-2.19l.06,0A7.16,7.16,0,0,1,19.38,15.33Zm-.84,16a.7.7,0,0,1-.31.56,19.27,19.27,0,0,1-4.37,1.54,16.83,16.83,0,0,1-2.07.31.78.78,0,0,1-.59-.28A.75.75,0,0,1,11,33a1.11,1.11,0,0,1-.26-.39,28.6,28.6,0,0,1-1.28-4.43A19.79,19.79,0,0,1,9,24.51c0-.61.22-.92.72-1s.68.22.68.64c0,.12,0,.26,0,.4A10.82,10.82,0,0,1,11.87,24a15.1,15.1,0,0,1,4.37-.59,6.05,6.05,0,0,1,2.94.56,2.85,2.85,0,0,1,1.48,2.77A6.23,6.23,0,0,1,19.4,30c-.33.39-.64.73-.95,1A1.1,1.1,0,0,1,18.54,31.29Zm-7.76-3.5A18.28,18.28,0,0,0,12,32.1c0,.06,0,.08.06.14.5-.06,1-.14,1.54-.22a19.14,19.14,0,0,0,3.16-.9.32.32,0,0,1,0-.08c0-.12.11-.26.33-.45q2.26-2.52,2.27-3.78c-.17-1.29-1.15-2-3-2a7.93,7.93,0,0,0-1.82.25,10.28,10.28,0,0,0-2.07.42c-1.09.36-1.71.56-1.85.59C10.67,26.67,10.72,27.23,10.78,27.79Z" transform="translate(-4.31 -7.26)"/><path class="cls-2" d="M38.75,13.12a14.31,14.31,0,0,1-2.15.19h-.68a.56.56,0,0,1-.56-.64V12.3c0-.25.26-.47.65-.64a2.37,2.37,0,0,0,.47,0,19.68,19.68,0,0,0,4.9-.65h0A7.48,7.48,0,0,0,41.1,9.2,4.37,4.37,0,0,1,40.82,8a.59.59,0,0,1,.28-.53.54.54,0,0,1,.4-.17c.28,0,.56.23.81.65a11.19,11.19,0,0,1,.5,2.77c1.43-.39,3-.9,4.59-1.51l.82-.34a1.18,1.18,0,0,1,.47.14c.23.11.34.25.34.37a.85.85,0,0,1-.17.42,1.83,1.83,0,0,1-.45.36,30.61,30.61,0,0,1-4.56,1.65,4.69,4.69,0,0,1-1.07.34,7.77,7.77,0,0,1-1,2.83A4.23,4.23,0,0,1,41.05,16a46.78,46.78,0,0,0,6.83-1.63,12,12,0,0,1,2.58-.53H51c.87,0,1.32.76,1.32,2.27s0,3.22.08,5c0,1.23.12,3.31.31,6.27,0,1,.09,2,.2,3.11s.17,2,.17,2.41a1.09,1.09,0,0,1-1,1.12,6,6,0,0,1-5-2.6,1.23,1.23,0,0,1-.3-.82c0-.19.16-.28.44-.28.28.17,1,.59,2,1.21.73.33,1.54.7,2.49,1.09-.11-1.12-.22-2.44-.33-3.95-.12-1-.17-2.13-.23-3.33-.08-1.74-.14-3.3-.14-4.65,0-1.9,0-3.55-.11-4.9-.11-.45-.28-.67-.56-.67a23.71,23.71,0,0,0-3.47.9,2.66,2.66,0,0,1-.67.19,1.5,1.5,0,0,1,.14.53v.28a5.38,5.38,0,0,1-2,3.25,17.78,17.78,0,0,1,2.91-.59.45.45,0,0,1,.42.26.69.69,0,0,1,.17.42.57.57,0,0,1-.28.42Q46,21.36,43.88,22c.11,1.09.16,2.07.22,2.91,1.15-.36,2.21-.72,3.19-1.09a5.17,5.17,0,0,1,1.6-.47.87.87,0,0,1,.42.11.66.66,0,0,1,.25.33.72.72,0,0,1-.25.56,11.84,11.84,0,0,1-2.86,1.26c-.78.28-1.54.51-2.27.73.12,2.07.17,3.7.23,5,0,1.09,0,1.87,0,2.35s-.23.75-.62.78a.62.62,0,0,1-.56-.47,6.51,6.51,0,0,1-.17-1.6C43,31,43,29.55,42.87,28c0-.33-.06-.72-.06-1.23-1.17.37-2.38.7-3.58,1a3.73,3.73,0,0,1-1.15.25h-.17a.86.86,0,0,1-.53-.84.64.64,0,0,1,.36-.5,3.06,3.06,0,0,1,1-.25c1.43-.34,2.78-.7,4-1.1-.09-.78-.17-1.7-.23-2.74,0-.06,0-.11,0-.17l-3.31.95a.59.59,0,0,1-.64-.56v-.19a.48.48,0,0,1,.25-.42,16.68,16.68,0,0,1,2.6-1A8.76,8.76,0,0,1,39,18.94a.34.34,0,0,1,0-.17,1.06,1.06,0,0,1,.09-.42,2.68,2.68,0,0,1,.39-.28c.06,0,.17,0,.31,0a.74.74,0,0,1,.5.42c.45.48.9,1,1.35,1.4a8,8,0,0,1,.89,1A2.81,2.81,0,0,0,43,20.7a8.31,8.31,0,0,0,1.85-3,4.9,4.9,0,0,0,.14-1v-.17a14.93,14.93,0,0,1-2.08.5c-2.1.42-4.34.9-6.74,1.46a.61.61,0,0,1-.26,0,.75.75,0,0,0,0,.2c0,.39-.12,1.76-.28,4.08-.06,1.24-.09,2.33-.09,3.31s.06,2.13.17,3.53a20,20,0,0,0,.53,2.6v.2c0,.33-.19.5-.47.5a.59.59,0,0,1-.54-.42A18.63,18.63,0,0,1,34.08,25c0-1.17.11-3.13.36-5.85,0-.7.06-1.4.06-2.13a.72.72,0,0,1,.28-.53.87.87,0,0,1,.47-.25h.17a.69.69,0,0,1,.59.64v.23s0,0,.05,0c.34-.11,1.38-.36,3.17-.76a2.32,2.32,0,0,1,.28-.16,7.76,7.76,0,0,0,1-1.29,8.62,8.62,0,0,0,.78-2.35C40.43,12.78,39.59,13,38.75,13.12Z" transform="translate(-4.31 -7.26)"/><path class="cls-2" d="M88.7,29.38a6.5,6.5,0,0,1-4.34,1.94c-1.79,0-3.13-1.1-4.06-3.22q-1.26,0-1.26-.84c0-.31.28-.65.87-1A12.5,12.5,0,0,1,79.83,25a26.31,26.31,0,0,1,.89-6.8A17.69,17.69,0,0,1,83.47,12c.56-.79,1-1.18,1.29-1.18a.78.78,0,0,1,.86.87A2.29,2.29,0,0,1,85,12.75a13.52,13.52,0,0,0-2.44,4.45,26.82,26.82,0,0,0-1.12,8.07q4.17-2.68,6.72-2.69a2.36,2.36,0,0,1,2.69,2.63A5.67,5.67,0,0,1,88.7,29.38ZM88,24.2a7.78,7.78,0,0,0-3.34,1,11.86,11.86,0,0,0-2.91,2,4.08,4.08,0,0,0,.87,1.6,1.89,1.89,0,0,0,1.51.81,5.61,5.61,0,0,0,3.42-1.26,4,4,0,0,0,1.82-3.16C89.35,24.54,88.87,24.2,88,24.2Z" transform="translate(-4.31 -7.26)"/><path class="cls-2" d="M106.06,18.91a39.28,39.28,0,0,1-1.59,8c-1.18,3-3,4.45-5.66,4.45-1.51,0-2.27-.42-2.27-1.2,0-.56.23-.84.7-.84a4.1,4.1,0,0,1,.84.16,3,3,0,0,0,.93.17c1.62,0,2.94-1.15,3.95-3.5a26.79,26.79,0,0,0,1.54-7.78c-1.57,2.57-3.56,3.86-5.91,3.86a2.28,2.28,0,0,1-1.93-1,3.73,3.73,0,0,1-.73-2.4,9,9,0,0,1,1.73-5.27,5.45,5.45,0,0,1,4.46-2.71A3.8,3.8,0,0,1,105,12.19a1.77,1.77,0,0,1,.5,1.12,1.42,1.42,0,0,1-.25.87,1.53,1.53,0,0,1,1,1.65A29.84,29.84,0,0,1,106.06,18.91Zm-2.71-5.68a2.14,2.14,0,0,0-1.57-.56c-1.12,0-2.1.73-3,2.13a7.25,7.25,0,0,0-1.26,3.92c0,1.2.48,1.79,1.49,1.79a4.79,4.79,0,0,0,3.36-1.65,7.86,7.86,0,0,0,2.1-3.36,4.56,4.56,0,0,1,.47-1.18A3,3,0,0,1,103.35,13.23Z" transform="translate(-4.31 -7.26)"/><path class="cls-2" d="M121.8,28.4a5.78,5.78,0,0,1-4.9,2.47,5,5,0,0,1-4.48-2.24A10.09,10.09,0,0,1,111,22.89a10.88,10.88,0,0,1,1.65-6,7.46,7.46,0,0,1,4.2-3.42c.12-.84.51-1.26,1.15-1.26a3.63,3.63,0,0,1,2.27.92A8.63,8.63,0,0,1,122.72,17a14.55,14.55,0,0,1,.84,4.84A11.09,11.09,0,0,1,121.8,28.4Zm-.45-10.33a9,9,0,0,0-2.07-3.75,1.25,1.25,0,0,1-1.07.62,5,5,0,0,0-3.89,2.57,9.19,9.19,0,0,0-1.73,5.35,8.14,8.14,0,0,0,1.09,4.51,3.74,3.74,0,0,0,3.42,1.87,4.22,4.22,0,0,0,3.41-2,8.42,8.42,0,0,0,1.49-5.1A13.72,13.72,0,0,0,121.35,18.07Z" transform="translate(-4.31 -7.26)"/><path class="cls-2" d="M135.43,11.63a4.9,4.9,0,0,1-.78,2,50,50,0,0,1-4.37,6.83,6.87,6.87,0,0,1-1.68,1.85.56.56,0,0,1-.31.06c-.33,0-.47-.17-.47-.51a.7.7,0,0,1,.11-.36,46.12,46.12,0,0,1,3.16-4.84c1.35-2.05,2.41-3.78,3.2-5.24a.61.61,0,0,1,.5-.31A.56.56,0,0,1,135.43,11.63Zm8.77,14c0-.45.19-.73.59-.78a.59.59,0,0,1,.47.22,29.6,29.6,0,0,1,3,7,4.13,4.13,0,0,1,.42,1.29.65.65,0,0,1-.67.75.76.76,0,0,1-.68-.47c-.92-2-1.76-3.92-2.55-6-.33.3-.69.61-1.09.92a33,33,0,0,1-6.49,3.56,14.45,14.45,0,0,1-5,1.12,1.31,1.31,0,0,1-.76-.28,1,1,0,0,1-.28-.76c0-.53.64-2.13,1.93-4.82s2.47-5.09,3.45-7.44a.82.82,0,0,1,.81-.59.54.54,0,0,1,.56.61q0,.88-2.33,5.8c-.95,2.1-1.9,4.12-2.85,6a27.31,27.31,0,0,0,6.47-2.38c1.73-.92,3.47-1.9,5.18-2.94A2.32,2.32,0,0,1,144.2,25.66Zm8.62-5.26c0,.19-.17.3-.39.36h-.59a5.66,5.66,0,0,1-1.54-.45,12.64,12.64,0,0,1-3.22-2.43,23.79,23.79,0,0,1-3.83-4.26q-1.51-2-3.28-4.68a.64.64,0,0,1-.25-.42.77.77,0,0,1,.25-.58.49.49,0,0,1,.42-.2,1.14,1.14,0,0,1,.45.11,4.25,4.25,0,0,1,.64.79c.59.75,1.23,1.62,1.91,2.57a32.35,32.35,0,0,0,2.24,2.91,25,25,0,0,0,5.65,5.16l1.1.67C152.65,20.09,152.82,20.23,152.82,20.4Z" transform="translate(-4.31 -7.26)"/><path class="cls-2" d="M161.59,19.3a20.36,20.36,0,0,1-1.35-6.88c-.05-1-.05-1.94-.05-2.94.05-.28.28-.48.67-.59h.19a.62.62,0,0,1,.57.7v1.09a28.48,28.48,0,0,1,4.76-1.4,31.34,31.34,0,0,1,4.84-.45,19.71,19.71,0,0,1,2.83.2,4.45,4.45,0,0,1,2.63,1.31,3.19,3.19,0,0,1,.73,1.94,7.21,7.21,0,0,1-1,3,11.39,11.39,0,0,1-1.54,2,.8.8,0,0,1,.42.28,2.35,2.35,0,0,0,.14.34.82.82,0,0,1-.31.64A29.11,29.11,0,0,1,169,20.73c0,.53,0,1,0,1.35v3c.87-.06,1.65-.08,2.35-.08,1.29,0,2.38,0,3.22.05a.73.73,0,0,1,.53.76.42.42,0,0,1-.31.45,25,25,0,0,1-3.38.22l-2.44.14v1.54c0,1.12,0,2.18,0,3.3,1.17-.08,2.32-.14,3.39-.16,1.34-.09,2.63-.14,3.86-.2,1-.06,2-.06,2.91-.06.59,0,.9.23,1,.68a.71.71,0,0,1-.61.72c-.84.06-1.77.09-2.72.14l-3.78.2q-3.9.16-8,.42c-2.49.14-4.79.31-6.86.53a5.55,5.55,0,0,1-.81.09c-.17,0-.28-.14-.39-.4a2.39,2.39,0,0,1,0-.53c.06-.25.42-.45,1.12-.59,1.29-.16,3-.3,5.07-.47,1.37-.09,2.69-.17,4-.23a3.64,3.64,0,0,1,.72-.05c-.05-.87-.05-2-.05-3.42v-1.4c-.9.11-1.93.25-3.08.48a16.83,16.83,0,0,1-2.13.17.44.44,0,0,1-.28-.12c-.14-.11-.19-.36-.19-.7a.63.63,0,0,1,.36-.56c.89-.19,1.85-.39,2.91-.56l2.41-.25c0-1.31,0-2.55,0-3.72v-.42a8.84,8.84,0,0,1-1,.25,27.35,27.35,0,0,1-4,.5.83.83,0,0,1-.62-.25.9.9,0,0,1-.25-.61.53.53,0,0,1,.25-.51A5.89,5.89,0,0,1,161.59,19.3Zm6.27-8.2a1.33,1.33,0,0,1-.06-.39v0c-.39.08-.75.17-1.06.25a29.27,29.27,0,0,0-4.62,1.29,1.06,1.06,0,0,1-.45.17c0,.56,0,1.15.08,1.71A13.18,13.18,0,0,0,162,16a54.79,54.79,0,0,1,5.79-1.77C167.83,13.28,167.86,12.22,167.86,11.1Zm0,4.65c-1,.28-2,.56-3,.84-1.23.33-2.07.56-2.55.67a13,13,0,0,0,1.21,3c.95-.11,2-.28,3-.5a9.56,9.56,0,0,0,1.23-.25C167.77,18.32,167.8,17.06,167.83,15.75Zm4,2.55a11.15,11.15,0,0,0,2.22-2.13,8.86,8.86,0,0,0,1.84-3.64c0-1.43-1.37-2.16-4.08-2.21a19.32,19.32,0,0,0-2.58.16,3.35,3.35,0,0,1,.06.59c0,.67,0,1.6-.06,2.83.48-.11,1-.25,1.43-.36a11.27,11.27,0,0,1,2.27-.31.79.79,0,0,1,.36.19.8.8,0,0,1,.17.37c0,.17-.14.31-.39.39-1,.34-2.33.73-3.87,1.15a7.86,7.86,0,0,0,0,.84c0,1.12-.08,2.15-.11,3,.95-.25,1.85-.53,2.69-.81A.38.38,0,0,1,171.83,18.3Z" transform="translate(-4.31 -7.26)"/></g></g></svg>