<svg id="圖層_1" data-name="圖層 1" xmlns="http://www.w3.org/2000/svg" viewBox="0 0 291.76 28.73"><defs><style>.cls-1{isolation:isolate;}.cls-2{fill:#fff;}</style></defs><g id="雲林西螺大橋_840公里" data-name="雲林西螺大橋 840公里"><g class="cls-1"><g class="cls-1"><path class="cls-2" d="M4.06,14.87c-.25,0-.36-.14-.36-.45A2,2,0,0,1,4,13.61c.11-.31.23-.65.37-1a18.82,18.82,0,0,0,.89-2.49A18.57,18.57,0,0,0,5.71,6.8V6.19c0-.45.28-.7.84-.7s.65.19.67.59v.58A17.12,17.12,0,0,1,6.5,11,23.77,23.77,0,0,1,5.24,13.8a2.66,2.66,0,0,1-.48.7A1.35,1.35,0,0,1,4.06,14.87ZM19.91,25.28a3.35,3.35,0,0,1-.95.59,26.43,26.43,0,0,1-3.28,1.46c-1.12.39-2.32.75-3.64,1.12A18.85,18.85,0,0,1,8.57,29H7.92c-.61-.08-.89-.36-.89-.87A1.82,1.82,0,0,1,7.59,27c.5-.56,1-1.2,1.57-2s1-1.48,1.48-2.15a3.89,3.89,0,0,0,.25-.42l-3.95.86a14.52,14.52,0,0,1-1.51.26c-.28,0-.5,0-.73,0s-.56-.28-.61-.78c0-.22.17-.42.5-.62A5.6,5.6,0,0,1,5.43,22c2.86-.5,5.6-1.09,8.29-1.76q5.79-1.3,9-2.36a.6.6,0,0,1,.42.2c0,.06,0,.14,0,.2a.83.83,0,0,1-.28.5c-1.1.84-4,1.82-8.68,2.94L12.82,22a13.85,13.85,0,0,1-1.06,1.59c-.67.93-1.34,1.82-2,2.69-.39.48-.7.9-1,1.23.39,0,1-.11,1.85-.25,1.12-.25,2.41-.59,3.81-1a41.46,41.46,0,0,0,4.81-1.82,3.87,3.87,0,0,1-.39-.47,2,2,0,0,1-.33-.84c0-.45.16-.73.53-.79a.61.61,0,0,1,.5.23,21.32,21.32,0,0,1,4.15,5.06,2.23,2.23,0,0,1,.56.93.66.66,0,0,1-.68.75.76.76,0,0,1-.67-.47Q21.34,27.06,19.91,25.28ZM11.62,13a.65.65,0,0,1,.11.31c0,.11-.08.22-.25.31-1,.56-2.41,1.23-4.14,2a.51.51,0,0,1-.54-.45V15A.5.5,0,0,1,7,14.67a12.85,12.85,0,0,1,2.27-1.2,12.2,12.2,0,0,1,2-.62A.48.48,0,0,1,11.62,13Zm.28-2.77a.72.72,0,0,1,.11.33.3.3,0,0,1-.19.26c-1,.39-2.16.84-3.64,1.34a.42.42,0,0,1-.45-.39v-.17a.32.32,0,0,1,.17-.25,10.55,10.55,0,0,1,2-.87,11.31,11.31,0,0,1,1.68-.45A.44.44,0,0,1,11.9,10.25Zm-2.35-6C9.16,4.2,9,3.92,9,3.36a.59.59,0,0,1,.56-.67A56.73,56.73,0,0,0,18,1c.36,0,.59.11.64.28s0,.2,0,.31a.78.78,0,0,1-.33.36,15.15,15.15,0,0,1-2.77,1.15c-.23.06-.42.11-.59.14,0,.76,0,1.57,0,2.41,1.56-.37,3.13-.7,4.76-1a20.19,20.19,0,0,1,2.49-.23c1.85,0,2.77.68,2.77,2A5.15,5.15,0,0,1,24.5,8.2a4.91,4.91,0,0,1-1.9,2.08,2.09,2.09,0,0,1-.82.33c-.39,0-.61-.19-.67-.64a.57.57,0,0,1,.28-.56,3.54,3.54,0,0,0,2-1.82,3,3,0,0,0,.22-.93c0-.58-.56-.89-1.62-.89A16.21,16.21,0,0,0,19.85,6c-1.51.34-3.19.73-5,1.21-.05,1.12-.14,2.15-.25,3.1a27.69,27.69,0,0,1-.76,4.18.59.59,0,0,1-.61.39.43.43,0,0,1-.48-.48.66.66,0,0,1,.11-.39,33.31,33.31,0,0,0,.56-5.24V7.59L9,8.85a.67.67,0,0,1-.76-.65.78.78,0,0,1,.45-.7c1.57-.56,3.13-1,4.7-1.45V5.68c0-.67,0-1.4,0-2.12C12,3.84,10.78,4.06,9.55,4.2Zm6.66,12.6c-2,.53-4,1-6.16,1.46a5.74,5.74,0,0,1-1,.16H8.93a.7.7,0,0,1-.5-.72.57.57,0,0,1,.31-.45,5.12,5.12,0,0,1,.81-.17,74.78,74.78,0,0,0,7.36-1.79A5.16,5.16,0,0,1,18.34,15a.68.68,0,0,1,.34.11.67.67,0,0,1,.25.31.82.82,0,0,1-.25.56A13.58,13.58,0,0,1,16.21,16.8Zm4.29-5.26a.62.62,0,0,1,.22.42.39.39,0,0,1-.25.42A31.17,31.17,0,0,0,16,13.52a.48.48,0,0,1-.4-.28.62.62,0,0,1-.11-.33c0-.17.11-.31.34-.37a16.66,16.66,0,0,1,2.43-.81,12.63,12.63,0,0,1,1.8-.31A1.11,1.11,0,0,1,20.5,11.54ZM19.94,8.6a.58.58,0,0,1,.19.36.38.38,0,0,1-.22.39,21,21,0,0,0-3.47.93c-.14,0-.26-.09-.34-.28A.44.44,0,0,1,16,9.69c0-.14.08-.25.28-.31.39-.17,1-.36,1.9-.64a8.26,8.26,0,0,1,1.46-.26A.71.71,0,0,1,19.94,8.6Z" transform="translate(-3.7 -0.81)"/><path class="cls-2" d="M39.48,16.21a10.67,10.67,0,0,1-1.4-1.62l-.53-.76v6c0,2.18,0,4.14,0,5.94a1.88,1.88,0,0,1-.34,1.26,1.17,1.17,0,0,1-.81.3c-1.12,0-2.1-.78-3-2.32a1.51,1.51,0,0,1-.22-.76c0-.28.17-.44.5-.44a.72.72,0,0,1,.42.33C35,25.37,35.67,26,36.2,26c0-1.84-.05-4-.05-6.58,0-1.42,0-3,0-4.59-.17.42-.31.84-.48,1.23a20.77,20.77,0,0,1-2.43,3.9,7.41,7.41,0,0,1-.9,1,1.15,1.15,0,0,1-.59.31c-.22,0-.3-.14-.3-.42a2,2,0,0,1,.25-.67c.25-.45.56-.92.92-1.46A24,24,0,0,0,34.66,15a14.49,14.49,0,0,0,1.07-4.85,12.68,12.68,0,0,1-2.3.7,6.23,6.23,0,0,1-1.59.23h-.48a.56.56,0,0,1-.53-.62v-.31c.05-.25.25-.44.59-.61a1.72,1.72,0,0,0,.42,0,10.85,10.85,0,0,0,3.55-.65,2.77,2.77,0,0,0,.67-.22V5.15c0-.45.26-.67.76-.7s.76.25.76.7v3C38.3,7.81,39,7.45,39.82,7a5,5,0,0,0,.58-.34,1.51,1.51,0,0,1,.51.14c.19.11.31.25.31.37a1.38,1.38,0,0,1-.12.39,1.32,1.32,0,0,1-.47.36,18.84,18.84,0,0,1-3.05,1.51v2.16a1.58,1.58,0,0,1,.47.17c.06.08.14.19.25.36L39,13.36a9.63,9.63,0,0,0,1.4,2,4.84,4.84,0,0,0,.86.81.51.51,0,0,1,.23.4A.5.5,0,0,1,41,17h-.25A2.27,2.27,0,0,1,39.48,16.21Zm9.21,6a17.79,17.79,0,0,1-.47,4.48c-.28.67-.62,1-1.07,1-1.12,0-1.93-.79-2.46-2.27a2.06,2.06,0,0,1-.06-.39c0-.28.14-.45.37-.45a1.33,1.33,0,0,1,.39.17c.64.56,1.23,1,1.76,1.4.09-.59.17-1.74.23-3.47,0-2.24.11-5.44.16-9.64,0-.64,0-1.34,0-2.07a44.28,44.28,0,0,1-4.48,7.51,7.18,7.18,0,0,1-1.43,1.34.7.7,0,0,1-.36.11c-.28,0-.42-.11-.45-.39a.53.53,0,0,1,.2-.36,43.39,43.39,0,0,0,6-11c-1,.39-2,.76-2.91,1.09a7.48,7.48,0,0,1-.79.2,7.2,7.2,0,0,1-.73,0c-.39,0-.61-.28-.67-.79,0-.22.17-.42.56-.61L43.37,8c1.49-.45,2.91-.92,4.29-1.48,0-.34,0-.7,0-1.07,0-.67,0-1.51,0-2.49a.63.63,0,0,1,.67-.53c.45,0,.7.28.73.78,0,.28,0,.79,0,1.52,0,.44,0,.86,0,1.26a29.64,29.64,0,0,0,3.75-1.63.57.57,0,0,1,.42.17c0,.06,0,.14,0,.22a.77.77,0,0,1-.25.51A11.06,11.06,0,0,1,49,7.5c0,.42,0,.82,0,1.15V9.83a5.65,5.65,0,0,1,.48.87,24.13,24.13,0,0,0,1.65,2.94c.59.84,1.26,1.73,2,2.63.22.28.64.78,1.29,1.57a16.12,16.12,0,0,1,1.12,1.7,4.9,4.9,0,0,1,.11.68.44.44,0,0,1-.36.44.7.7,0,0,1-.54-.22c-.53-.62-1.06-1.29-1.59-2-.73-.81-1.43-1.62-2.1-2.46a22.19,22.19,0,0,1-2.1-3.08C48.83,15.29,48.75,18.4,48.69,22.23Z" transform="translate(-3.7 -0.81)"/><path class="cls-2" d="M64.51,27.36a1,1,0,0,1-.39.14.64.64,0,0,1-.45-.23,1.06,1.06,0,0,1-.22-.33,17.46,17.46,0,0,1-.67-4.09c-.06-1.15-.12-2.13-.23-3-.17-1.6-.31-3.05-.45-4.37-.19-1.71-.28-2.8-.28-3.3a.51.51,0,0,1,.54-.56h.33c.17,0,.31.14.42.36a17,17,0,0,1,.34,3.17c.22,2.57.45,4.76.67,6.58.11,1.06.22,2,.34,2.85a14.67,14.67,0,0,1,2.88-.47c1.09-.09,2.63-.26,4.59-.54,1.18-.14,2.63-.3,4.34-.53.67-.11,1.15-.17,1.37-.19l.37,0a.5.5,0,0,1,.25.4.65.65,0,0,1-.28.58,15.56,15.56,0,0,1-4.17.93c-1.63.17-3.39.39-5.24.64-1,.17-2,.31-2.91.42-.56.06-.9.11-1,.11a2.65,2.65,0,0,0,.09.68C64.74,27.05,64.65,27.27,64.51,27.36Zm10.64-23c0,.06,0,.14,0,.2,0,.5-.06,1.76-.17,3.78.28-.06.53-.09.79-.14,1.59-.2,2.66-.31,3.22-.31a4,4,0,0,1,2.43.61,2.91,2.91,0,0,1,1.12,2.1A70.06,70.06,0,0,1,82,20.1a24.47,24.47,0,0,1-1.12,5.32c-.39.9-.84,1.35-1.37,1.35a3.4,3.4,0,0,1-1.76-.45c-.37-.25-.53-.45-.53-.59s.08-.19.3-.28a4.82,4.82,0,0,1,1.21-.11c.5-.06.92-.64,1.2-1.76.34-1.74.65-3.53.87-5.44.25-2.85.39-5.26.39-7.16,0-1.18-.75-1.8-2.15-1.8a37.6,37.6,0,0,0-4.09.45c-.09,1.79-.11,3.28-.11,4.43,0,2,.47,2.91,1.37,2.91a5.25,5.25,0,0,0,3-1.46.44.44,0,0,1,.3-.14.64.64,0,0,1,.42.31c0,.06,0,.17,0,.28a.68.68,0,0,1-.31.5,7.59,7.59,0,0,1-1.9,1.38,5,5,0,0,1-1.82.36c-.95,0-1.62-.59-2-1.79A7.94,7.94,0,0,1,73.58,14c0-.9,0-2.3.12-4.15-.51.09-1,.17-1.52.28-.75.17-1.48.37-2.21.54,0,.5.06,1,.06,1.56a14.68,14.68,0,0,1-.81,5,10.29,10.29,0,0,1-2.55,3.92,1.14,1.14,0,0,1-.62.19c-.36,0-.56-.14-.59-.42a.64.64,0,0,1,.26-.5,7.82,7.82,0,0,0,1.48-1.79A9.13,9.13,0,0,0,68.35,16a15,15,0,0,0,.42-3.14c0-.64,0-1.26-.06-1.82-1.34.34-2.71.73-4.09,1.15-.39,0-.58-.25-.58-.73a.76.76,0,0,1,.33-.61A35.33,35.33,0,0,1,68.6,9.58c-.08-.56-.17-1.1-.28-1.6a18.64,18.64,0,0,0-.56-1.88.65.65,0,0,1-.06-.33v0a2.51,2.51,0,0,1-.67.08A17.78,17.78,0,0,1,64.51,6h-.78c-.39,0-.56-.25-.56-.59V5.1a1,1,0,0,1,.61-.65,2,2,0,0,0,.45,0A35,35,0,0,0,70.08,4c2.24-.39,4.65-1,7.28-1.68a7,7,0,0,1,1-.31,1.86,1.86,0,0,1,.58.14c.23.17.34.31.34.42a1.41,1.41,0,0,1-.14.5,2.28,2.28,0,0,1-.56.4C77.53,3.75,76.38,4.06,75.15,4.34ZM73.78,8.18c.06-1.49.14-2.69.2-3.59l-.84.17A36.67,36.67,0,0,1,69,5.54a17.19,17.19,0,0,1,.76,3c0,.28,0,.53.08.76,1.23-.28,2.52-.53,3.92-.76C73.75,8.4,73.78,8.29,73.78,8.18Z" transform="translate(-3.7 -0.81)"/><path class="cls-2" d="M97.41,13c0,.06,0,.11,0,.2a1,1,0,0,1-.2.47,13.33,13.33,0,0,1-2.4,2,3.93,3.93,0,0,1-.59.39,12.56,12.56,0,0,1-.87,3.39c-.25.59-.53,1.18-.84,1.76a27.92,27.92,0,0,0,3.08-2.07c.34-.31.62-.53.78-.7-.22-.56-.39-1-.53-1.48a.56.56,0,0,1,.2-.34.48.48,0,0,1,.42-.25c.14,0,.25,0,.31,0a.75.75,0,0,1,.44.39A15.9,15.9,0,0,1,98,19.32a14.9,14.9,0,0,1,.56,2.88c0,.51-.22.79-.62.79a.45.45,0,0,1-.5-.51A12.15,12.15,0,0,0,97,20.22c0-.2-.11-.4-.16-.56a17.28,17.28,0,0,1-2.44,2.07,15.27,15.27,0,0,1-3.89,2.18.81.81,0,0,1-.31.06.48.48,0,0,1-.42-.28.83.83,0,0,1-.17-.59.64.64,0,0,1,.37-.53l.84-.42a19.61,19.61,0,0,0,1-1.91c.28-.72.56-1.51.84-2.38.09-.36.17-.7.23-1-.45.2-.81.34-1.12.45,0,.23,0,.42.08.59v.22a.42.42,0,0,1-.22.28.34.34,0,0,1-.25.12.55.55,0,0,1-.48-.26C90,16.41,89.07,14,88,11.09a.6.6,0,0,1-.09-.28.3.3,0,0,1,.09-.2.72.72,0,0,1,.67-.39,1.38,1.38,0,0,1,.42.14,8,8,0,0,1,.56,1,9.35,9.35,0,0,1,2.13-1.12,4.66,4.66,0,0,1,.58-.23c0-.22-.11-.42-.16-.64A5.23,5.23,0,0,1,91.9,8a.67.67,0,0,1,.47-.73h.25a1.63,1.63,0,0,1,.31.11,5.27,5.27,0,0,1,.37.45q.24.84.42,1.77c.53-.14,1-.26,1.51-.34a11.29,11.29,0,0,1,2-.22,1.42,1.42,0,0,1,.93.25,1,1,0,0,1,.28.59,4.53,4.53,0,0,1-.54,1.73,10.32,10.32,0,0,1-.7,1.26C97.3,12.91,97.36,12.94,97.41,13Zm-6.52,1.68c.17.51.33.93.47,1.29.56-.25,1-.48,1.49-.67a.15.15,0,0,0,.11-.06,25.6,25.6,0,0,0-.34-3.83,18.05,18.05,0,0,0-2.52,1.14C90.41,13.3,90.66,14,90.89,14.67Zm3-3.64a30.1,30.1,0,0,1,.31,3.5c.28-.17.56-.31.78-.47.28-.42.56-.84.81-1.29a11.69,11.69,0,0,0,1.21-2.52,16.26,16.26,0,0,0-3.14.67C93.91,11,93.94,11,93.94,11Zm6.44-4c-.48-1.8-.87-3.34-1.2-4.57a.62.62,0,0,1,.22-.42.48.48,0,0,1,.42-.25c.17,0,.31,0,.39,0a.77.77,0,0,1,.39.42,1.51,1.51,0,0,0,.12.31A13.08,13.08,0,0,1,103,1.85a14.48,14.48,0,0,1,3.34-.39,6.18,6.18,0,0,1,2.77.58,2.84,2.84,0,0,1,1.48,1.29,3.58,3.58,0,0,1,.31,1.49,4.08,4.08,0,0,1-.45,1.65,6.82,6.82,0,0,1-1.31,1.87.78.78,0,0,1-.45.2h-.11a21.53,21.53,0,0,1-2.78,1.29c-.42.17-.81.31-1.14.42a7.92,7.92,0,0,1-2.44,4.06c2.32-1.51,4.17-2.3,5.52-2.3a.64.64,0,0,1,.64.67c0,1-1.88,3.31-5.6,6.78q6.88-3,8.9-3.11a.59.59,0,0,1,.68.51,4,4,0,0,1-.37,1.45,10.83,10.83,0,0,1-4.34,4.15.13.13,0,0,1-.11.05c0,.39,0,.79.06,1.12s0,.87,0,1.23a16.09,16.09,0,0,1-.11,2.13,2.82,2.82,0,0,1-.9,1.57,2.1,2.1,0,0,1-1.2.36c-1,0-2.07-.7-3.19-2a4.82,4.82,0,0,1-.62-.9,11.15,11.15,0,0,1-.47,2.41c-.12.28-.28.42-.51.42a.37.37,0,0,1-.36-.28,2.59,2.59,0,0,1-.11-.92c0-.42,0-1.29.19-2.58.06-.78.11-1.45.14-2.07.06-.25.25-.39.59-.42s.7.25.73.76,0,.78,0,1.06l0,0A11.36,11.36,0,0,0,103.66,27a2.62,2.62,0,0,0,1.62.82c.67,0,1-.84,1-2.52v-.87a20,20,0,0,0-.26-2.72,14.47,14.47,0,0,0-.42-1.85,1,1,0,0,1,0-.25c-.9.39-1.74.79-2.49,1.15a5.24,5.24,0,0,1-2,.5.7.7,0,0,1-.67-.75c0-.2.22-.51.7-.95,3.16-3.11,5-5.16,5.49-6.11-2.08.84-3.84,1.6-5.35,2.33a1.11,1.11,0,0,1-.53-.12.8.8,0,0,1-.34-.72c0-.28.25-.65.7-1.1a13.25,13.25,0,0,0,2-3.08,15.55,15.55,0,0,1-1.68.4,1.08,1.08,0,0,1-.22,0,.46.46,0,0,1-.4-.22.77.77,0,0,1-.11-.48.48.48,0,0,1,.23-.36A22.8,22.8,0,0,0,100.38,7.06Zm4.31-2a7.18,7.18,0,0,0-.14-1.38,6.93,6.93,0,0,1-.33-1.06,15.87,15.87,0,0,0-3.22.9c.14.61.3,1.37.47,2.26a1.47,1.47,0,0,0,.06.4,27.05,27.05,0,0,1,3.16-1ZM102,9.74c.45-.11.9-.22,1.29-.33.22-.06.48-.11.73-.2V9.16c.11-.59.25-1.21.36-1.82.06-.34.11-.68.17-1a11,11,0,0,1-1.32.39c-.78.22-1.28.36-1.56.42C101.89,8.34,102,9.21,102,9.74Zm3.61-3.69a11.54,11.54,0,0,1-.28,1.45,10.34,10.34,0,0,1-.42,1.4c.87-.25,1.68-.53,2.44-.81a8.09,8.09,0,0,1,1.15-.47,8.33,8.33,0,0,0,.84-2,6.27,6.27,0,0,0,.14-1c0-1.49-1-2.24-3.08-2.24-.34,0-.7,0-1,0a8.9,8.9,0,0,1,.31,2.47l.92-.25a7,7,0,0,1,1.38-.2,1.72,1.72,0,0,0,.28.17.89.89,0,0,1,.11.31c0,.11-.11.22-.28.33Zm1.24,13.1a7.59,7.59,0,0,1,.58,2.33,12.43,12.43,0,0,0,3.64-4.09c-1.56.59-3,1.15-4.28,1.68A.45.45,0,0,0,106.88,19.15Zm3.38,3.22a.66.66,0,0,1,.45-.17.74.74,0,0,1,.56.26A4.54,4.54,0,0,1,112.62,26c0,.56-.06,1.15-.12,1.76a.5.5,0,0,1-.22.4l-.31,0a.26.26,0,0,1-.25-.11.65.65,0,0,1-.2-.25A9.94,9.94,0,0,1,111.3,26a6.75,6.75,0,0,0-1.12-2.86.55.55,0,0,1-.14-.36A.52.52,0,0,1,110.26,22.37Z" transform="translate(-3.7 -0.81)"/><path class="cls-2" d="M139.64,8.62c-1.18.82-4.29,1.77-9.27,2.89l-.53.11v.11a4.74,4.74,0,0,1,.64,1c.62,1,1.32,2.16,2.07,3.42s1.57,2.71,2.38,3.95A29.86,29.86,0,0,0,141,27c.36.26.73.54,1.09.84s.56.34.56.56-.2.31-.48.42h-.7a5.8,5.8,0,0,1-1.59-.64,14.61,14.61,0,0,1-3.47-3.28,30.54,30.54,0,0,1-4-5.76c-.95-1.54-1.93-3.34-3-5.35a27.88,27.88,0,0,1-1.7,5.26,20.88,20.88,0,0,1-4,6.25,18.5,18.5,0,0,1-3.22,3.1.92.92,0,0,1-.53.17c-.25,0-.37-.19-.37-.47,0-.12.06-.23.23-.4a24.3,24.3,0,0,0,3.36-3.75,31.53,31.53,0,0,0,3.3-5.49,23.67,23.67,0,0,0,1.91-6.52c-2,.45-4,.87-5.77,1.2-.73.12-1.26.2-1.6.23a6.12,6.12,0,0,1-.7,0c-.39,0-.61-.28-.67-.79,0-.22.17-.42.56-.61l.81-.23q3.92-.68,7.56-1.51c.09-1,.14-1.9.14-2.91a22.9,22.9,0,0,0-.53-4.45A.84.84,0,0,1,129,2c.4,0,.65.25.76.76a22.63,22.63,0,0,1,.42,4.2c0,1-.06,2-.14,3,4-.89,7.14-1.68,9.38-2.35a.61.61,0,0,1,.48.22c0,.06,0,.14,0,.26A.87.87,0,0,1,139.64,8.62Z" transform="translate(-3.7 -0.81)"/><path class="cls-2" d="M151.2,13.66c0,6.84,0,11.26,0,13.28,0,.56-.22.86-.61.86-1.12,0-2.08-.78-2.8-2.35a3.59,3.59,0,0,1-.23-.75c0-.4.17-.62.53-.62a9.49,9.49,0,0,1,2,2.07c0-1.4,0-2.85,0-4.39,0-2.61,0-5.13-.08-7.54a3.57,3.57,0,0,0-.25.65,16,16,0,0,1-1.32,2.91A14.6,14.6,0,0,1,146.92,20a3,3,0,0,1-.31.23,1.59,1.59,0,0,1-.42.08c-.23,0-.37-.17-.37-.48a.52.52,0,0,1,.23-.47A20.15,20.15,0,0,0,147.87,16a25.88,25.88,0,0,0,1.26-3.34,25.67,25.67,0,0,0,.64-2.77.48.48,0,0,1,.06-.14,2.8,2.8,0,0,1,0-.5l-2.63,1.09-.73.22a7.2,7.2,0,0,1-.73,0c-.39,0-.61-.28-.67-.84,0-.19.17-.39.56-.56l.84-.28c1.12-.36,2.24-.78,3.3-1.23-.05-1.23-.16-2.46-.33-3.67a10.53,10.53,0,0,1-.09-1.15.7.7,0,0,1,.79-.67.91.91,0,0,1,.67.67c.06.51.14,1.07.25,1.68,0,.79.06,1.66.09,2.55a26.55,26.55,0,0,0,3.5-1.68.64.64,0,0,1,.42.2s0,.11,0,.19a.73.73,0,0,1-.25.51,9.94,9.94,0,0,1-3.64,2.32v1.57l.25.08a18.55,18.55,0,0,1,3.06,4.23,4.46,4.46,0,0,1,.64,1.57c0,.42-.17.62-.5.62a.66.66,0,0,1-.51-.31A11.29,11.29,0,0,1,153,14.67c-.59-.89-1.17-1.71-1.79-2.49ZM169.93,5a15,15,0,0,1-4.81,2.27c.56.42,1.31,1,2.21,1.82a22.89,22.89,0,0,0,3.08,2.69,12.69,12.69,0,0,0,1.37.81.46.46,0,0,1,.14.36.5.5,0,0,1-.39.45.54.54,0,0,1-.23,0,3.56,3.56,0,0,1-.67-.08,10,10,0,0,1-2.38-1.43c-.39-.28-1.23-1-2.55-2.21-.81-.65-1.56-1.29-2.24-1.91a1,1,0,0,1-.3.09q-.67.24-1.35.42l-1.26,2.77a29.28,29.28,0,0,1-1.73,3c-.62.89-1.24,1.68-1.82,2.38-.34.5-.65.86-.87,1.14a.66.66,0,0,1-.23.26,1.11,1.11,0,0,1-.3,0c-.17,0-.26-.14-.28-.42a.66.66,0,0,1,.11-.42,8.29,8.29,0,0,1,.56-1c.33-.56.78-1.32,1.37-2.3.78-1.4,1.57-2.88,2.38-4.51,0-.11.08-.22.14-.33-.81.25-1.6.47-2.38.67a10.73,10.73,0,0,1-1.15.22,6.79,6.79,0,0,1-.75,0c-.37,0-.56-.28-.62-.78,0-.23.17-.42.53-.59a3,3,0,0,1,.84-.25c1.46-.34,2.91-.7,4.34-1.12l.42-1L162,3.84a.63.63,0,0,1,.64-.34.91.91,0,0,1,.2,0,.56.56,0,0,1,.39.53,9.08,9.08,0,0,1-.64,2.44.48.48,0,0,0,.22-.06c3-.9,5.32-1.71,7-2.38a.5.5,0,0,1,.4.22c0,.06,0,.12,0,.17A.87.87,0,0,1,169.93,5Zm-11.7,19a15.53,15.53,0,0,0,1,3.53,1.89,1.89,0,0,1,.2.61c0,.39-.25.62-.76.62-.25,0-.47-.25-.7-.73a18.59,18.59,0,0,1-1.17-3.64,15.24,15.24,0,0,1-.37-3c0-.61.23-.95.7-1s.79.22.79.67C158,22,158.12,23,158.23,24ZM159.4,2.16a1.22,1.22,0,0,1-.3-.87.67.67,0,0,1,.42-.48h.39a16.7,16.7,0,0,1,5.68.93.6.6,0,0,1,.34.42q0,.66-.51.78C163.63,2.69,161.62,2.44,159.4,2.16Zm11.54,18.31c0,1.51-.17,4.28-.5,8.37-.09.45-.31.7-.7.7a3.22,3.22,0,0,1-2.86-1.43,1,1,0,0,1-.2-.45c0-.39.17-.61.51-.61a.75.75,0,0,1,.45.19,3.17,3.17,0,0,0,1.65.9c.05-1.57.14-2.94.19-4.12.06-1.62.12-2.91.12-3.89s-.26-1.65-.68-1.65c-1.14.11-4,1.12-8.48,3-.39,0-.59-.2-.59-.65a.61.61,0,0,1,.48-.61l1.62-.65c2.58-.92,4.71-1.62,6.41-2.1a6,6,0,0,1,1.24-.19C170.49,17.28,170.94,18.34,170.94,20.47Zm-7.65-8.23a8.06,8.06,0,0,1,2.81-.51,1.47,1.47,0,0,1,.5.11.56.56,0,0,1,.19.4,4,4,0,0,1-.81,2.29,1,1,0,0,1,.34.17c0,.06,0,.14,0,.2a.82.82,0,0,1-.2.42,11.23,11.23,0,0,1-2,1.23,12.59,12.59,0,0,1-2.63,1.06.8.8,0,0,1-.22,0,.42.42,0,0,1-.34-.17.86.86,0,0,1-.11-.5.32.32,0,0,1,.2-.28s0-.06,0-.11a10.34,10.34,0,0,0-.34-1.32c-.31-.76-.56-1.4-.78-1.93a.74.74,0,0,1,.19-.39.52.52,0,0,1,.4-.26c.16,0,.28,0,.36,0a1,1,0,0,1,.42.42c0,.06,0,.09,0,.11C162,12.88,162.62,12.54,163.29,12.24Zm.48,9.77a6.73,6.73,0,0,1,2.55-.53.84.84,0,0,1,.47.14.64.64,0,0,1,.23.47,5.62,5.62,0,0,1-.78,2.61c0,.05-.06.08-.09.14s.06,0,.11,0a.52.52,0,0,1,.42.22c0,.06,0,.14,0,.25a1.07,1.07,0,0,1-.25.54c-.5.28-1.12.58-1.88.92a16.75,16.75,0,0,1-2.54.76c-.12,0-.17,0-.23,0a.52.52,0,0,1-.36-.19.87.87,0,0,1-.11-.48.38.38,0,0,1,.25-.39,6.27,6.27,0,0,0-.25-1.34c-.28-.84-.51-1.54-.68-2.13a.76.76,0,0,1,.2-.39.48.48,0,0,1,.39-.23c.17,0,.28,0,.37,0a.81.81,0,0,1,.36.39.13.13,0,0,0,0,.09C162.57,22.57,163.16,22.29,163.77,22Zm-1.2-5.91c.61-.22,1.17-.48,1.68-.7a20,20,0,0,0,1.29-2.77,13.73,13.73,0,0,0-3.92,1.48,2.77,2.77,0,0,0,.14.48,15.62,15.62,0,0,1,.3,1.71ZM163,26c.59-.17,1.15-.36,1.65-.53.45-1.09.84-2.07,1.12-3a10.85,10.85,0,0,0-3.44,1.35c0,.16.08.33.14.56.17.72.25,1.28.31,1.68A.4.4,0,0,1,163,26Z" transform="translate(-3.7 -0.81)"/><path class="cls-2" d="M201.21,14.31a26.74,26.74,0,0,1,2.57,2.55,5.61,5.61,0,0,1,1.29,3.3,4.37,4.37,0,0,1-1.93,3.58,7,7,0,0,1-4.2,1.38,3.75,3.75,0,0,1-2.77-1.1A3.48,3.48,0,0,1,195,21.31a6.57,6.57,0,0,1,1.34-3.7,41.88,41.88,0,0,1,2.77-3.16,13.35,13.35,0,0,1-1.79-1.77,7.24,7.24,0,0,1-1.42-2.1c-.73-.22-1.1-.56-1.1-1s.31-.82,1-1.35a11.09,11.09,0,0,1,7.16-2.83,2.84,2.84,0,0,1,1.94.76A2.41,2.41,0,0,1,205.74,8Q205.74,10.49,201.21,14.31Zm-1,1.12c-2.47,2.24-3.67,4.11-3.67,5.63a2.31,2.31,0,0,0,.7,1.79,2.35,2.35,0,0,0,1.76.64,5.27,5.27,0,0,0,3-1,2.74,2.74,0,0,0,1.4-2.29C203.45,18.93,202.36,17.33,200.23,15.43ZM202.63,7a7.66,7.66,0,0,0-2.85.76,14.86,14.86,0,0,0-2.66,1.54,10.61,10.61,0,0,0,3,3.86C202.75,11,204,9.35,204,8.23,204,7.39,203.56,7,202.63,7Z" transform="translate(-3.7 -0.81)"/><path class="cls-2" d="M223.44,16a5.27,5.27,0,0,1-1.54.28l-4,1.18c0,.22,0,.7-.11,1.43a10.25,10.25,0,0,0-.06,1.17,8.42,8.42,0,0,0,.12,1.74,2.86,2.86,0,0,1,.33,1.34,10.4,10.4,0,0,0,.23,2.58c-.12.48-.34.73-.73.73s-.84-.51-1-1.51a21.86,21.86,0,0,1-.45-4.23,25,25,0,0,1,.12-2.89,18.72,18.72,0,0,1-3.64.37,3.89,3.89,0,0,1-2.64-.95,3,3,0,0,1-1.11-2.47c0-2.49,1.62-5.49,4.87-9,.89-.95,1.54-1.45,1.93-1.45.62,0,.92.3.92.89,0,.81-.64,1.46-1.9,2A32.72,32.72,0,0,0,212,10.7a7.77,7.77,0,0,0-1.48,4.14,1.35,1.35,0,0,0,1,1.32,4,4,0,0,0,1.71.33,15.87,15.87,0,0,0,3.22-.45c.22-1.23.47-2.46.73-3.72a24.26,24.26,0,0,1,1-3.67.77.77,0,0,1,.76-.59.66.66,0,0,1,.73.76c0,.06-.14.5-.37,1.34a55.78,55.78,0,0,0-1.2,5.55l2.94-.9a9,9,0,0,1,2.13-.45.73.73,0,0,1,.81.82A.87.87,0,0,1,223.44,16Z" transform="translate(-3.7 -0.81)"/><path class="cls-2" d="M237.16,22.48a5.78,5.78,0,0,1-4.9,2.47,5,5,0,0,1-4.48-2.24A10.09,10.09,0,0,1,226.35,17,10.88,10.88,0,0,1,228,11a7.46,7.46,0,0,1,4.2-3.42c.11-.84.51-1.26,1.15-1.26a3.63,3.63,0,0,1,2.27.92,8.63,8.63,0,0,1,2.46,3.87,14.55,14.55,0,0,1,.84,4.84A11.09,11.09,0,0,1,237.16,22.48Zm-.45-10.33a9,9,0,0,0-2.07-3.75,1.25,1.25,0,0,1-1.07.62,5,5,0,0,0-3.89,2.57A9.19,9.19,0,0,0,228,16.94,8.14,8.14,0,0,0,229,21.45a3.74,3.74,0,0,0,3.42,1.87,4.22,4.22,0,0,0,3.41-2,8.42,8.42,0,0,0,1.48-5.1A13.7,13.7,0,0,0,236.71,12.15Z" transform="translate(-3.7 -0.81)"/><path class="cls-2" d="M250.79,5.71a4.9,4.9,0,0,1-.78,2,49.06,49.06,0,0,1-4.37,6.83A6.87,6.87,0,0,1,244,16.35a.56.56,0,0,1-.31.06c-.33,0-.47-.17-.47-.51a.7.7,0,0,1,.11-.36,45,45,0,0,1,3.17-4.84c1.34-2,2.4-3.78,3.19-5.24a.62.62,0,0,1,.5-.31A.56.56,0,0,1,250.79,5.71Zm8.77,14c0-.45.19-.73.59-.78a.59.59,0,0,1,.47.22,29.6,29.6,0,0,1,3,7,4.13,4.13,0,0,1,.42,1.29.66.66,0,0,1-.68.75.77.77,0,0,1-.67-.47c-.92-2-1.76-3.92-2.55-6-.33.3-.7.61-1.09.92a33,33,0,0,1-6.49,3.56,14.45,14.45,0,0,1-5,1.12,1.31,1.31,0,0,1-.76-.28,1,1,0,0,1-.28-.76c0-.53.64-2.13,1.93-4.82s2.47-5.09,3.45-7.44a.81.81,0,0,1,.81-.59.54.54,0,0,1,.56.61c0,.59-.79,2.52-2.33,5.8-1,2.1-1.9,4.12-2.85,6a27.31,27.31,0,0,0,6.47-2.38c1.73-.92,3.47-1.9,5.18-2.94A2.56,2.56,0,0,1,259.56,19.74Zm8.62-5.26c0,.19-.17.3-.39.36h-.59a5.66,5.66,0,0,1-1.54-.45A12.64,12.64,0,0,1,262.44,12a23.42,23.42,0,0,1-3.83-4.26q-1.51-2-3.28-4.68a.64.64,0,0,1-.25-.42.77.77,0,0,1,.25-.58.48.48,0,0,1,.42-.2,1.14,1.14,0,0,1,.45.11,4.25,4.25,0,0,1,.64.79c.59.75,1.23,1.62,1.91,2.57A30.61,30.61,0,0,0,261,8.2a25,25,0,0,0,5.65,5.16l1.09.67C268,14.17,268.18,14.31,268.18,14.48Z" transform="translate(-3.7 -0.81)"/><path class="cls-2" d="M277,13.38A20.36,20.36,0,0,1,275.6,6.5c-.05-1-.05-1.94-.05-2.94.05-.28.28-.48.67-.59h.19a.61.61,0,0,1,.56.7V4.76a29.07,29.07,0,0,1,4.76-1.4,31.58,31.58,0,0,1,4.85-.45,19.71,19.71,0,0,1,2.83.2A4.45,4.45,0,0,1,292,4.42a3.19,3.19,0,0,1,.73,1.94,7.21,7.21,0,0,1-1,3,11.39,11.39,0,0,1-1.54,2,.8.8,0,0,1,.42.28,2.35,2.35,0,0,0,.14.34.82.82,0,0,1-.31.64,29.11,29.11,0,0,1-6.07,2.21c0,.53,0,1,0,1.35v3c.87-.06,1.65-.08,2.35-.08,1.29,0,2.38,0,3.22,0a.73.73,0,0,1,.53.76.42.42,0,0,1-.31.45,25,25,0,0,1-3.38.22l-2.44.14v1.54c0,1.12,0,2.18,0,3.3,1.17-.08,2.32-.14,3.39-.16,1.34-.09,2.63-.14,3.86-.2,1-.06,2-.06,2.91-.06.59,0,.9.23,1,.68a.72.72,0,0,1-.62.72c-.84.06-1.77.09-2.72.14l-3.78.2q-3.9.16-8,.42c-2.49.14-4.79.31-6.86.53a5.55,5.55,0,0,1-.81.09c-.17,0-.28-.14-.39-.4a2.39,2.39,0,0,1,0-.53c.06-.25.42-.45,1.12-.59,1.29-.16,3-.3,5.07-.47,1.37-.09,2.69-.17,4-.23a3.64,3.64,0,0,1,.72-.05c-.05-.87-.05-2-.05-3.42v-1.4c-.9.11-1.93.25-3.08.48a16.83,16.83,0,0,1-2.13.17.44.44,0,0,1-.28-.12.9.9,0,0,1-.2-.7.64.64,0,0,1,.37-.56c.89-.19,1.85-.39,2.91-.56l2.41-.25c0-1.31,0-2.55,0-3.72v-.42a8.84,8.84,0,0,1-1,.25,27.35,27.35,0,0,1-4,.5.79.79,0,0,1-.61-.25.87.87,0,0,1-.26-.61.52.52,0,0,1,.26-.51A5.4,5.4,0,0,1,277,13.38Zm6.27-8.2a1.33,1.33,0,0,1-.06-.39v0c-.39.08-.75.17-1.06.25a29.27,29.27,0,0,0-4.62,1.29,1.06,1.06,0,0,1-.45.17c0,.56,0,1.15.08,1.71a14.69,14.69,0,0,0,.28,1.93,55.9,55.9,0,0,1,5.8-1.77C283.19,7.36,283.22,6.3,283.22,5.18Zm0,4.65c-.95.28-2,.56-3,.84-1.23.33-2.07.56-2.55.67a13.43,13.43,0,0,0,1.21,3c.95-.11,2-.28,3-.5a9.56,9.56,0,0,0,1.23-.25C283.13,12.4,283.16,11.14,283.19,9.83Zm4,2.55a11.43,11.43,0,0,0,2.22-2.13,8.86,8.86,0,0,0,1.84-3.64c0-1.43-1.37-2.16-4.08-2.21a19.32,19.32,0,0,0-2.58.16,3.35,3.35,0,0,1,.06.59c0,.67,0,1.6-.06,2.83.48-.11,1-.25,1.43-.36a11.27,11.27,0,0,1,2.27-.31.79.79,0,0,1,.36.19.8.8,0,0,1,.17.37c0,.17-.14.31-.39.39-1,.34-2.33.73-3.87,1.15,0,.28,0,.56,0,.84-.06,1.12-.09,2.15-.12,3.05,1-.25,1.85-.53,2.69-.81A.38.38,0,0,1,287.19,12.38Z" transform="translate(-3.7 -0.81)"/></g></g></g></svg>