<svg id="圖層_1" data-name="圖層 1" xmlns="http://www.w3.org/2000/svg" viewBox="0 0 175.78 29.04"><defs><style>.cls-1{isolation:isolate;}.cls-2{fill:#fff;}</style></defs><g id="台中_915公里" data-name="台中 915公里" class="cls-1"><g class="cls-1"><path class="cls-2" d="M19.38,15.33a4.94,4.94,0,0,1-.73-1.26,1.49,1.49,0,0,1-.09-.48c0-.33.26-.56.73-.67a.86.86,0,0,1,.62.28c.36.42.89,1.09,1.57,2,1.06,1.57,2.26,3.31,3.55,5.16a1.16,1.16,0,0,1,.17.56.54.54,0,0,1-.45.56.79.79,0,0,1-.59-.23c-.81-.47-2-1.87-3.58-4.17a9.91,9.91,0,0,1-1.2.67,34.38,34.38,0,0,1-4.26,1.57,39.26,39.26,0,0,1-4.65,1.26,22.67,22.67,0,0,1-4.42.62H5.24q-.93-.09-.93-.84a3.6,3.6,0,0,1,.84-1.91,35.59,35.59,0,0,0,2.27-3.33c.78-1.29,1.48-2.49,2.1-3.64s1-1.88,1.43-2.66a.58.58,0,0,1,.53-.42.65.65,0,0,1,.67.67v.23a14.08,14.08,0,0,1-1.71,3.33c-1,1.71-2,3.36-3,4.93-.56.89-1,1.65-1.37,2.26a16.9,16.9,0,0,0,2.46-.3c1.51-.28,3.16-.68,5-1.15a55.93,55.93,0,0,0,6.33-2.19l.06,0A7.16,7.16,0,0,1,19.38,15.33Zm-.84,16a.7.7,0,0,1-.31.56,19.27,19.27,0,0,1-4.37,1.54,16.83,16.83,0,0,1-2.07.31.78.78,0,0,1-.59-.28A.75.75,0,0,1,11,33a1.11,1.11,0,0,1-.26-.39,28.6,28.6,0,0,1-1.28-4.43A19.79,19.79,0,0,1,9,24.51c0-.61.22-.92.72-1s.68.22.68.64c0,.12,0,.26,0,.4A10.82,10.82,0,0,1,11.87,24a15.1,15.1,0,0,1,4.37-.59,6.05,6.05,0,0,1,2.94.56,2.85,2.85,0,0,1,1.48,2.77A6.23,6.23,0,0,1,19.4,30c-.33.39-.64.73-.95,1A1.1,1.1,0,0,1,18.54,31.29Zm-7.76-3.5A18.28,18.28,0,0,0,12,32.1c0,.06,0,.08.06.14.5-.06,1-.14,1.54-.22a19.14,19.14,0,0,0,3.16-.9.32.32,0,0,1,0-.08c0-.12.11-.26.33-.45q2.26-2.52,2.27-3.78c-.17-1.29-1.15-2-3-2a7.93,7.93,0,0,0-1.82.25,10.28,10.28,0,0,0-2.07.42c-1.09.36-1.71.56-1.85.59C10.67,26.67,10.72,27.23,10.78,27.79Z" transform="translate(-4.31 -6.54)"/><path class="cls-2" d="M49.42,20.31a.69.69,0,0,1,.17.39c0,.17-.14.34-.42.48q-2.06.51-5.41,1.26v3.7c0,3.92,0,6.83.06,8.73-.11.45-.36.7-.76.7s-.44-.25-.44-.7c-.12-2.32-.2-4.93-.2-7.87l-.06-4.25c-.67.17-1.4.33-2.12.47A31.45,31.45,0,0,1,37,23.9h-.17c-.11,0-.23-.12-.31-.28a.58.58,0,0,1-.14-.42.69.69,0,0,1,.34-.56,12.92,12.92,0,0,0-.9-3.08c-.84-1.77-1.54-3.25-2.13-4.43a.75.75,0,0,1,.25-.5.55.55,0,0,1,.45-.31c.2,0,.34,0,.45,0a.85.85,0,0,1,.39.33l0,0a31.7,31.7,0,0,1,4.7-1.4c.79-.17,1.57-.34,2.36-.45,0-1.74,0-3.56.08-5.49a.69.69,0,0,1,.78-.78c.45,0,.68.3.68.89-.09,2.16-.12,3.87-.12,5.1,1.18-.2,2.33-.37,3.45-.48a41.51,41.51,0,0,1,4.28-.25,1.54,1.54,0,0,1,1,.28,1.07,1.07,0,0,1,.28.64,8.49,8.49,0,0,1-.7,2.8,25.7,25.7,0,0,1-1.68,3.11,13.35,13.35,0,0,1-1.15,1.54A1,1,0,0,1,49.42,20.31Zm-7.08.87V14.29A50.78,50.78,0,0,0,35.9,15.8c.28.65.61,1.49,1,2.5a18.42,18.42,0,0,1,1,3.94C39,21.91,40.52,21.57,42.34,21.18Zm1.42-.31c.84-.17,1.77-.36,2.75-.53l1.06-.17s0-.05.06-.11a26.47,26.47,0,0,0,1.62-2.55,25.55,25.55,0,0,0,2-4.39,58.88,58.88,0,0,0-6.89.84,3.56,3.56,0,0,1-.65.08Z" transform="translate(-4.31 -6.54)"/><path class="cls-2" d="M89.88,18.91a39.12,39.12,0,0,1-1.6,8q-1.75,4.46-5.65,4.45c-1.51,0-2.27-.42-2.27-1.2,0-.56.22-.84.7-.84a4.1,4.1,0,0,1,.84.16,3,3,0,0,0,.92.17c1.63,0,2.94-1.15,4-3.5a26.14,26.14,0,0,0,1.54-7.78c-1.57,2.57-3.55,3.86-5.91,3.86a2.31,2.31,0,0,1-1.93-1,3.79,3.79,0,0,1-.73-2.4,8.89,8.89,0,0,1,1.74-5.27c1.26-1.79,2.74-2.71,4.45-2.71a3.77,3.77,0,0,1,2.91,1.31,1.74,1.74,0,0,1,.51,1.12,1.49,1.49,0,0,1-.25.87,1.53,1.53,0,0,1,1,1.65A29.84,29.84,0,0,1,89.88,18.91Zm-2.72-5.68a2.1,2.1,0,0,0-1.56-.56c-1.12,0-2.1.73-3,2.13a7.25,7.25,0,0,0-1.26,3.92c0,1.2.48,1.79,1.48,1.79a4.79,4.79,0,0,0,3.36-1.65,7.67,7.67,0,0,0,2.1-3.36,5.12,5.12,0,0,1,.48-1.18A3.06,3.06,0,0,1,87.16,13.23Z" transform="translate(-4.31 -6.54)"/><path class="cls-2" d="M104.05,13.26a25.94,25.94,0,0,0-1.63,5.85c-.22,1.45-.39,3.58-.56,6.33a1.42,1.42,0,0,1,.53,1.12,24.79,24.79,0,0,1-.25,3c-.11.4-.28.59-.53.59-.84-.11-1.29-.42-1.29-.92,0-1-.08-1.93-.08-2.86a47.44,47.44,0,0,1,1.65-12.26,31.22,31.22,0,0,0-4.56,2.07,5.8,5.8,0,0,1-.93.42c-.5,0-.75-.28-.75-.87s.31-.84.92-1.17a49.88,49.88,0,0,1,5.18-2.33,4.35,4.35,0,0,1,2-.87c.42,0,.7.28.87.79A3.7,3.7,0,0,1,104.05,13.26Z" transform="translate(-4.31 -6.54)"/><path class="cls-2" d="M120.6,28.4a14.39,14.39,0,0,1-5.32,2.41,10,10,0,0,1-2.36.34,1.89,1.89,0,0,1-1.17-.34.85.85,0,0,1-.45-.75c0-.62.28-.93.87-.93a1.55,1.55,0,0,1,.89.31h.54a12,12,0,0,0,5-1.74c2-1.17,3-2.54,3-4.11,0-1.77-1.18-2.66-3.5-2.66a9.68,9.68,0,0,0-4.42,1.48,2.18,2.18,0,0,1-1.07.39.66.66,0,0,1-.75-.75,9.07,9.07,0,0,1,.28-1.57c.5-2.6,1-4.87,1.48-6.8a2.11,2.11,0,0,1-.08-.62c0-.36.36-.76,1.14-1.15a11.13,11.13,0,0,1,4.79-.89,7.25,7.25,0,0,1,2.41.33c.61.23.92.53.92.87,0,.67-.25,1-.75,1a9.07,9.07,0,0,1-1-.25,9.92,9.92,0,0,0-2.19-.2,7.68,7.68,0,0,0-3.64.87,69.06,69.06,0,0,0-1.65,6.86,12.2,12.2,0,0,1,4.59-1.26,6.35,6.35,0,0,1,3.44.89,3.44,3.44,0,0,1,1.57,3A6.42,6.42,0,0,1,120.6,28.4Z" transform="translate(-4.31 -6.54)"/><path class="cls-2" d="M135.43,11.63a4.9,4.9,0,0,1-.78,2,50,50,0,0,1-4.37,6.83,6.87,6.87,0,0,1-1.68,1.85.56.56,0,0,1-.31.06c-.33,0-.47-.17-.47-.51a.7.7,0,0,1,.11-.36,46.12,46.12,0,0,1,3.16-4.84c1.35-2.05,2.41-3.78,3.2-5.24a.61.61,0,0,1,.5-.31A.56.56,0,0,1,135.43,11.63Zm8.77,14c0-.45.19-.73.59-.78a.59.59,0,0,1,.47.22,29.6,29.6,0,0,1,3,7,4.13,4.13,0,0,1,.42,1.29.65.65,0,0,1-.67.75.76.76,0,0,1-.68-.47c-.92-2-1.76-3.92-2.55-6-.33.3-.69.61-1.09.92a33,33,0,0,1-6.49,3.56,14.45,14.45,0,0,1-5,1.12,1.31,1.31,0,0,1-.76-.28,1,1,0,0,1-.28-.76c0-.53.64-2.13,1.93-4.82s2.47-5.09,3.45-7.44a.82.82,0,0,1,.81-.59.54.54,0,0,1,.56.61q0,.88-2.33,5.8c-.95,2.1-1.9,4.12-2.85,6a27.31,27.31,0,0,0,6.47-2.38c1.73-.92,3.47-1.9,5.18-2.94A2.32,2.32,0,0,1,144.2,25.66Zm8.62-5.26c0,.19-.17.3-.39.36h-.59a5.66,5.66,0,0,1-1.54-.45,12.64,12.64,0,0,1-3.22-2.43,23.79,23.79,0,0,1-3.83-4.26q-1.51-2-3.28-4.68a.64.64,0,0,1-.25-.42.77.77,0,0,1,.25-.58.49.49,0,0,1,.42-.2,1.14,1.14,0,0,1,.45.11,4.25,4.25,0,0,1,.64.79c.59.75,1.23,1.62,1.91,2.57a32.35,32.35,0,0,0,2.24,2.91,25,25,0,0,0,5.65,5.16l1.1.67C152.65,20.09,152.82,20.23,152.82,20.4Z" transform="translate(-4.31 -6.54)"/><path class="cls-2" d="M161.59,19.3a20.36,20.36,0,0,1-1.35-6.88c-.05-1-.05-1.94-.05-2.94.05-.28.28-.48.67-.59h.19a.62.62,0,0,1,.57.7v1.09a28.48,28.48,0,0,1,4.76-1.4,31.34,31.34,0,0,1,4.84-.45,19.71,19.71,0,0,1,2.83.2,4.45,4.45,0,0,1,2.63,1.31,3.19,3.19,0,0,1,.73,1.94,7.21,7.21,0,0,1-1,3,11.39,11.39,0,0,1-1.54,2,.8.8,0,0,1,.42.28,2.35,2.35,0,0,0,.14.34.82.82,0,0,1-.31.64A29.11,29.11,0,0,1,169,20.73c0,.53,0,1,0,1.35v3c.87-.06,1.65-.08,2.35-.08,1.29,0,2.38,0,3.22.05a.73.73,0,0,1,.53.76.42.42,0,0,1-.31.45,25,25,0,0,1-3.38.22l-2.44.14v1.54c0,1.12,0,2.18,0,3.3,1.17-.08,2.32-.14,3.39-.16,1.34-.09,2.63-.14,3.86-.2,1-.06,2-.06,2.91-.06.59,0,.9.23,1,.68a.71.71,0,0,1-.61.72c-.84.06-1.77.09-2.72.14l-3.78.2q-3.9.16-8,.42c-2.49.14-4.79.31-6.86.53a5.55,5.55,0,0,1-.81.09c-.17,0-.28-.14-.39-.4a2.39,2.39,0,0,1,0-.53c.06-.25.42-.45,1.12-.59,1.29-.16,3-.3,5.07-.47,1.37-.09,2.69-.17,4-.23a3.64,3.64,0,0,1,.72-.05c-.05-.87-.05-2-.05-3.42v-1.4c-.9.11-1.93.25-3.08.48a16.83,16.83,0,0,1-2.13.17.44.44,0,0,1-.28-.12c-.14-.11-.19-.36-.19-.7a.63.63,0,0,1,.36-.56c.89-.19,1.85-.39,2.91-.56l2.41-.25c0-1.31,0-2.55,0-3.72v-.42a8.84,8.84,0,0,1-1,.25,27.35,27.35,0,0,1-4,.5.83.83,0,0,1-.62-.25.9.9,0,0,1-.25-.61.53.53,0,0,1,.25-.51A5.89,5.89,0,0,1,161.59,19.3Zm6.27-8.2a1.33,1.33,0,0,1-.06-.39v0c-.39.08-.75.17-1.06.25a29.27,29.27,0,0,0-4.62,1.29,1.06,1.06,0,0,1-.45.17c0,.56,0,1.15.08,1.71A13.18,13.18,0,0,0,162,16a54.79,54.79,0,0,1,5.79-1.77C167.83,13.28,167.86,12.22,167.86,11.1Zm0,4.65c-1,.28-2,.56-3,.84-1.23.33-2.07.56-2.55.67a13,13,0,0,0,1.21,3c.95-.11,2-.28,3-.5a9.56,9.56,0,0,0,1.23-.25C167.77,18.32,167.8,17.06,167.83,15.75Zm4,2.55a11.15,11.15,0,0,0,2.22-2.13,8.86,8.86,0,0,0,1.84-3.64c0-1.43-1.37-2.16-4.08-2.21a19.32,19.32,0,0,0-2.58.16,3.35,3.35,0,0,1,.06.59c0,.67,0,1.6-.06,2.83.48-.11,1-.25,1.43-.36a11.27,11.27,0,0,1,2.27-.31.79.79,0,0,1,.36.19.8.8,0,0,1,.17.37c0,.17-.14.31-.39.39-1,.34-2.33.73-3.87,1.15a7.86,7.86,0,0,0,0,.84c0,1.12-.08,2.15-.11,3,.95-.25,1.85-.53,2.69-.81A.38.38,0,0,1,171.83,18.3Z" transform="translate(-4.31 -6.54)"/></g></g></svg>