<svg xmlns="http://www.w3.org/2000/svg" width="94.843" height="94.843" viewBox="0 0 94.843 94.843">
  <g id="Group_140" data-name="Group 140" transform="translate(-937.909 -788.028)">
    <g id="Group_139" data-name="Group 139" transform="translate(-2299.067 334.314)">
      <path id="Path_34" data-name="Path 34" d="M3328.091,482.676a47.568,47.568,0,1,0,3.728,18.459A47.262,47.262,0,0,0,3328.091,482.676ZM3284.4,543a41.721,41.721,0,1,1,16.293-3.288A41.595,41.595,0,0,1,3284.4,543Z" fill="#fff"/>
      <path id="Path_35" data-name="Path 35" d="M3385.544,693.965h-2.464a4.34,4.34,0,0,0-4.34,4.34V710.09a4.34,4.34,0,0,0,4.34,4.34h2.464a4.342,4.342,0,0,1,2.1.541l24.454,13.5a4.34,4.34,0,0,0,6.438-3.8V683.724a4.34,4.34,0,0,0-6.438-3.8l-24.454,13.5A4.339,4.339,0,0,1,3385.544,693.965Z" transform="translate(-126.887 -201.982)" fill="#fff"/>
      <g id="Group_138" data-name="Group 138" transform="translate(3294.482 483.563)">
        <path id="Path_36" data-name="Path 36" d="M3898.751,754.834a22.173,22.173,0,0,1-7.833,17.019,2.592,2.592,0,0,1-2.486.633,2.049,2.049,0,0,1-1.609-1.524,1.955,1.955,0,0,1,.824-2.008,17.943,17.943,0,0,0,5.483-8.088c2.253-7.25.406-13.656-5.536-19.152a1.867,1.867,0,0,1-.661-2.274,2.186,2.186,0,0,1,1.956-1.276,2.569,2.569,0,0,1,1.988.661,22.259,22.259,0,0,1,7.485,12.677C3898.605,752.775,3898.666,754.072,3898.751,754.834Z" transform="translate(-3876.083 -738.155)" fill="#fff"/>
        <path id="Path_37" data-name="Path 37" d="M3845.672,794.752a15.822,15.822,0,0,1-5.557,11.755,2.623,2.623,0,0,1-3.452.25,1.86,1.86,0,0,1,.075-3.031c5.684-5.246,5.69-12.831.017-18.055-1.08-.994-1.119-2.195-.1-3.025a2.661,2.661,0,0,1,3.512.264A15.884,15.884,0,0,1,3845.672,794.752Z" transform="translate(-3830.571 -777.491)" fill="#fff"/>
        <path id="Path_38" data-name="Path 38" d="M3787.6,842.047c-1.3-.068-2.034-.44-2.419-1.223a1.721,1.721,0,0,1,.451-2.19,6.285,6.285,0,0,0,2.11-3.565,5.858,5.858,0,0,0-2.035-5.547,1.8,1.8,0,0,1-.136-2.786,2.624,2.624,0,0,1,3.558.046,9.41,9.41,0,0,1,1.379,13.009,9.075,9.075,0,0,1-1.548,1.612A5.827,5.827,0,0,1,3787.6,842.047Z" transform="translate(-3784.965 -816.839)" fill="#fff"/>
      </g>
    </g>
  </g>
</svg>
