<svg id="Group_149" data-name="Group 149" xmlns="http://www.w3.org/2000/svg" width="263.551" height="74.6" viewBox="0 0 263.551 74.6">
  <g id="Group_141" data-name="Group 141">
    <path id="Path_39" data-name="Path 39" d="M0,70.394C1.661,79.44,9.9,92.37,16,90.133c3.582-1.313,3.582,2.626,8.4,2.474,2.856-.09,3.265-.816,4.9-1.837,7.569,5.723,21.1-8.008,27.374-21.669,11.841-25.771-14.448-36.2-26.183-29.155C27.905,35.7,14.583,31.08,4.43,39.011c0,0,4.116,14.086-2.557,22.377A13.124,13.124,0,0,1,0,70.394Z" transform="translate(0 -18.012)" fill="#ca0011"/>
    <path id="Path_40" data-name="Path 40" d="M8.831,46.365c12.737,3.877,10.323,24.3-4.061,28.8a10.6,10.6,0,0,0,1.108-7.2c4.061-4.246,4.984-15.138,2.953-21.6Z" transform="translate(-2.477 -24.073)" fill="#fff"/>
    <path id="Path_41" data-name="Path 41" d="M78.369,33.008A105.507,105.507,0,0,1,88.955,34.34l10.7,2.772A20.7,20.7,0,0,0,92.59,30.5c-4.6-2.543-13.382,1.581-14.221,2.505Z" transform="translate(-40.69 -15.413)" fill="#68a231"/>
    <path id="Path_42" data-name="Path 42" d="M.568,12.981c11.63,2.584,24.364,5.546,24.364,5.546L37.3,17.481S30.111,9.227,22.379,6.04C17.459,4.013,6.66,7.812.568,12.981Z" transform="translate(-0.295 -2.848)" fill="#68a231"/>
    <path id="Path_43" data-name="Path 43" d="M71.716,0l4.923,4.414L64.417,29.708l-1.7-.679L71.716,0Z" transform="translate(-32.565)" fill="#68a231"/>
    <path id="Path_44" data-name="Path 44" d="M52.378,54.121l7.212,5,4.049-4.262-4.252,2.02-7.008-2.759Z" transform="translate(-27.195 -28.1)" fill="#fff"/>
  </g>
  <g id="Group_148" data-name="Group 148" transform="translate(69.849 19.475)">
    <g id="Group_142" data-name="Group 142" transform="translate(19.503 42.283)">
      <path id="Path_45" data-name="Path 45" d="M190.054,136.307h2.825l.338,1.116h3.946l-3.654-8.972h-4.115l-3.547,8.972h3.931l.275-1.116Zm.692-2.125.506-1.736a7.625,7.625,0,0,0,.168-1.008h.138a4.97,4.97,0,0,0,.2,1.008l.476,1.736Z" transform="translate(-185.847 -128.451)" fill="#fff" fill-rule="evenodd"/>
      <path id="Path_46" data-name="Path 46" d="M220.456,137.423h3.623v-2.7h2.057a2.981,2.981,0,0,0,3.269-3.04,3.255,3.255,0,0,0-.521-1.708,4.083,4.083,0,0,0-3.516-1.521h-4.912v8.972Zm3.623-4.963v-1.548h.691c.629,0,1.014.282,1.014.74,0,.5-.415.808-1.06.808Z" transform="translate(-203.816 -128.451)" fill="#fff" fill-rule="evenodd"/>
      <path id="Path_47" data-name="Path 47" d="M250.142,137.423h3.625v-2.7h2.056a2.983,2.983,0,0,0,3.272-3.04,3.269,3.269,0,0,0-.523-1.708,4.082,4.082,0,0,0-3.515-1.521h-4.914v8.972Zm3.625-4.963v-1.548h.689c.629,0,1.014.282,1.014.74,0,.5-.413.808-1.058.808Z" transform="translate(-219.23 -128.451)" fill="#fff" fill-rule="evenodd"/>
      <path id="Path_48" data-name="Path 48" d="M279.835,137.423H286.7v-2.892h-3.13v-6.08h-3.732v8.972Z" transform="translate(-234.647 -128.451)" fill="#fff" fill-rule="evenodd"/>
      <path id="Path_49" data-name="Path 49" d="M305.18,137.423H312.2v-2.461h-3.285v-.86H311.8v-2.355h-2.885v-.834h3.178v-2.462h-6.91v8.972Z" transform="translate(-247.807 -128.451)" fill="#fff" fill-rule="evenodd"/>
    </g>
    <g id="Group_143" data-name="Group 143" transform="translate(102.758 42.048)">
      <path id="Path_50" data-name="Path 50" d="M501.994,137.423h7.017v-2.461h-3.285v-.86h2.885v-2.355h-2.885v-.834H508.9v-2.462h-6.91v8.972Z" transform="translate(-433.25 -128.216)" fill="#fff" fill-rule="evenodd"/>
      <path id="Path_51" data-name="Path 51" d="M425.093,137.423h6.862v-2.892h-3.13v-6.08h-3.732v8.972Z" transform="translate(-393.322 -128.216)" fill="#fff" fill-rule="evenodd"/>
      <path id="Path_52" data-name="Path 52" d="M450.746,137.423h3.732v-8.972h-3.732v8.972Z" transform="translate(-406.642 -128.216)" fill="#fff" fill-rule="evenodd"/>
      <path id="Path_53" data-name="Path 53" d="M392.988,137.41v-8.971h4.4c.788,1.631,1.576,3.275,2.151,4.536h.087c-.063-.751-.075-2.166-.075-3.657v-.879h3.4v8.971h-4.2c-.612-1.262-1.825-4.052-2.387-5.275h-.075a38.117,38.117,0,0,1,.113,3.988v1.287Z" transform="translate(-376.653 -128.21)" fill="#fff"/>
      <path id="Path_54" data-name="Path 54" d="M469.889,137.417v-8.978h4.4c.788,1.632,1.576,3.278,2.151,4.54h.087c-.062-.752-.075-2.167-.075-3.66v-.88h3.4v8.978h-4.2c-.612-1.263-1.825-4.055-2.388-5.279h-.074a38.193,38.193,0,0,1,.113,3.991v1.288Z" transform="translate(-416.581 -128.21)" fill="#fff"/>
      <path id="Path_55" data-name="Path 55" d="M364.512,127.962c-3.988,0-5.5,2.246-5.5,4.734,0,2.667,1.876,4.708,5.338,4.708,3.838,0,5.526-2.08,5.526-4.721C369.876,129.94,367.775,127.962,364.512,127.962Zm-.092,5.922a1.2,1.2,0,0,1-1.358-1.2c0-.633.385-1.2,1.4-1.2a1.225,1.225,0,0,1,1.364,1.2C365.825,133.355,365.4,133.884,364.42,133.884Z" transform="translate(-359.012 -127.962)" fill="#fff" fill-rule="evenodd"/>
    </g>
    <g id="Group_147" data-name="Group 147">
      <g id="Group_144" data-name="Group 144">
        <path id="Path_56" data-name="Path 56" d="M152.5,85.191l-3.165-2.627s-2.658,5.487-3.6,7.415c-.016.032,3.235,2.781,3.237,2.777C150.987,88.976,152.5,85.191,152.5,85.191Z" transform="translate(-145.517 -62.343)" fill="#000" fill-rule="evenodd"/>
        <path id="Path_57" data-name="Path 57" d="M180.586,47.995l-.758-.322-.4.845h-7.74V46.8h7.566l1.378-5.02-.8-.34-.4.863H171.68l-.005-1.087.464-.145.145-.565-5.567.009.006,1.789H160.5V41.2l.472-.1.136-.582h-5.575l-.005,1.789h-9.005l-.812,4.5h9.835l0,1.355-2.089,0-.01,7.838-1.275-.008,0-5.277.493-.182.145-.565h-5.345l0,6.029H146.3l-1.015,4.3h7.024v8.195l-6.249,5.107,2.955,4.168A44.588,44.588,0,0,0,162.5,63.839l.688.09.068-.681v-.273l-4.365-2.065-1.807,3.4V60.29h4.507l1.106-4.315h-4.342l.009-1.466,2.639,0,.981-3.823h-3.648V48.923h2.214l-.042-2.119h6.218v1.715l-3.466,0-1.127,4.494H169.1l-.522,1.5-5.326.042v8.42l.026.013-.026.261v7.277h2.225L159.81,74.25l3.366,3.18s2.018-1.285,3.539-2.347c1.565-1.093,3.478-2.626,3.478-2.626l-1.322-1.933H173.3l-1.814,2.189s1.251,1.039,3,2.454a27.512,27.512,0,0,0,2.68,2.005l3.378-3.545-4.4-3.1H179.2l.007-13.185,1.213-1.064-3.284-3.26h-.092l-1.225,1.5-2.107,0,.473-1.5h2.859l.041-.051.051.051h2.236ZM174.255,67.1h-6.029V65.865h6.029Zm0-4.117h-6.029V61.747h6.029Zm0-5.356v1.239h-6.029V57.63Z" transform="translate(-145.282 -40.506)" fill="#000" fill-rule="evenodd"/>
      </g>
      <path id="Path_58" data-name="Path 58" d="M246.171,65.822h10.413l1.5-5.883-1.512-.515-.645,1.052-13.226.02,0-1.488h11.4V45.829l1.783-2.508-5.8-2.815-1.1,1.541-24.684.02V59.006h12.113l-.019,1.488H222.587l-.643,5.327H232.63s-7.343,5.344-10.735,7.424c0,0,3.288,4.191,3.315,4.174a114.156,114.156,0,0,0,11.2-8.37l0,8.709h6.3l0-8.631a46.111,46.111,0,0,0,11.228,7.661s3.289-4.479,4.261-4.844A88.216,88.216,0,0,1,246.171,65.822ZM242.6,46.864h5.649v1.359H242.6Zm-6.176,1.345H231.6l-1.352,4.753h6.181V54.3h-6.365V46.873h6.365Zm6.162,6.1V52.961h5.674v1.353Z" transform="translate(-185.061 -40.506)" fill="#000" fill-rule="evenodd"/>
      <path id="Path_59" data-name="Path 59" d="M324.939,53.21V48.324q3.932-.314,10.44-1.261l-1.815-5.516a119.033,119.033,0,0,1-14.374,1.576v15.13q.149,8.669-.908,11.978l-1.816-1.891a15.9,15.9,0,0,0-2.572-2.521l-1.8,1.473V65.03h5.01l.654-4.141.2-1.257-.641-.34-.413.852H312.1V58.1h5.01l.772-5.043h0l.079-.515-.641-.34-.414.854h-1.991l.9-4.255h1.25l.767-5.01.084-.547-.641-.34-.414.854h-4.76V41.189l.366-.105.151-.572h-.516v-.005h-6.286v3.246H300.6l-.773,5.044h2.138l.9,4.255h-2.288L299.8,58.1h6v2.049h-5.232L299.8,65.03h5.03a54.744,54.744,0,0,1-6.824,6.777,36.7,36.7,0,0,1,2.875,4.413,22.458,22.458,0,0,0,4.924-5.723v7.346H312.1v-7.4c.25.307.545.706.892,1.209q1.362,1.578,1.815,2.049l3.177-2.679a19.25,19.25,0,0,1-1.663,3.94q2.57,1.733,4.992,3.467a29.613,29.613,0,0,0,2.875-8.353,63.091,63.091,0,0,0,.757-11.19Zm-14.851-.157h-2.477l-.745-4.255h3.946Z" transform="translate(-224.58 -40.507)" fill="#000"/>
      <g id="Group_145" data-name="Group 145" transform="translate(116.701)">
        <path id="Path_60" data-name="Path 60" d="M405.46,43.634H388.011V79.467h6.3V56.619H405.46ZM399.61,48.8h-4.348l-.775,2.816h5.123v1.408h-5.3V47.388h5.3Z" transform="translate(-388.011 -42.13)" fill="#000"/>
        <path id="Path_61" data-name="Path 61" d="M427.932,40.506l-1.083,1.5H414.222V54.995h11.3V72.524q0,.939-1.362.939c-.323,0-.572,0-.757,0l.931-3.765-.753-.357-.463.854h-.84V59.96h1.065l.678-2.752.313-1.251-.753-.357-.463.854H403.808l-.863,3.507H404.6V70.176l.062.016h-.851l-.863,3.507h13.866v3.158h5.465V73.7h.838c.213.845.932,3.7,1.018,4.144.5,0,3.119-.156,3.422-.156q4.538-.158,4.236-4.85V45.36l1.542-2.235ZM416.411,69.718h-5.962V68.346h5.962Zm0-4.116h-5.962V64.229h5.962Zm0-4.27h-5.962V59.96h5.962Zm9.109-14.159h-4.5l-.767,2.816h5.267V51.4h-5.447V45.764h5.447Z" transform="translate(-395.765 -40.506)" fill="#000"/>
      </g>
      <g id="Group_146" data-name="Group 146" transform="translate(154.36)">
        <path id="Path_62" data-name="Path 62" d="M505.293,45.382l1.2-2.062-5.8-2.814-1.085,1.507H480.864v6.323l-1.69-1.067-1.515-.986a46.279,46.279,0,0,1-2.064,4.451q-.6.1-1.248.19a50.333,50.333,0,0,0,3.311-7.368l-.415-.136.013-.035-4.382-1.352a32.673,32.673,0,0,1-3.542,9.4q-.657.038-1.424.075l.584,4.021c1.651-.138,3.206-.319,4.675-.542-.927,1.483-2,3.061-3.226,4.654l-2.033.117.426,2.382.486,2.86q4.748-.826,9.569-2.067.182.977.328,2.067l2.146-.768V66.4l-.638-1.4a9.106,9.106,0,0,1-1.679.665l-1.768.425a48.047,48.047,0,0,1,1.765,7.758l2.319-.851v4.849h6.288V47.036H499.02V71.206q.149,1.729-1.664,1.727H493.27a30.827,30.827,0,0,1,1.211,4.866c1.914,0,5.113-.054,6.425-.157q4.539,0,4.388-5.023Zm-24.43,12.736-.519-2-2.687.73h0l-.657.179c.2.671.391,1.4.587,2.17l-2.678.153a64.331,64.331,0,0,0,5.954-9.323Z" transform="translate(-467.154 -40.506)" fill="#000"/>
        <path id="Path_63" data-name="Path 63" d="M519.682,76.895h0l.2-1.246-.549-.363-.363.842h-2.351q-1.234.153-1.232-1.673V72.631h3.731l.577-3.7.19-1.2-.548-.363-.368.853h-1.655V65.484h1.8l.565-3.5v0l.121-.752h0l.078-.491-.549-.363-.368.854H518.7l.851-3-3.45-.608s-.728,2.9-.975,3.611h-.246l-.92-3.491-3.451.76.8,2.731h-.847l-.686,4.257h2.571v2.737h-1.885l-.686,4.41h1.072v3.953q.121,3.65,2.711,3.8h5.579Z" transform="translate(-488.888 -49.39)" fill="#000"/>
        <path id="Path_64" data-name="Path 64" d="M466.339,102.647l4.26.686a62.432,62.432,0,0,0,.913-9.471l-3.742-.15A40.713,40.713,0,0,1,466.339,102.647Z" transform="translate(-466.339 -68.131)" fill="#000"/>
        <path id="Path_65" data-name="Path 65" d="M478.355,94c.292,3.006.212,5.787.236,8.394l4.09-.413a74.3,74.3,0,0,0-1.023-8.269Z" transform="translate(-472.578 -68.131)" fill="#000"/>
      </g>
    </g>
  </g>
  <path id="Path_66" data-name="Path 66" d="M368.641,52.478l-5.971-1.911,6.2-20.379-19.1,26.15,7.358,1.892-7.032,21.153Z" transform="translate(-181.603 -15.674)" fill="#cd0f10"/>
</svg>
