<svg width="1920" height="1080" viewBox="0 0 1920 1080" fill="none" xmlns="http://www.w3.org/2000/svg">
<path d="M977.154 428.078H1122.72V486.892H977.154V428.078ZM1216.82 320.253H1278.08V673.625C1278.08 701.072 1281.02 704.993 1298.67 704.993C1307 704.993 1340.82 704.993 1349.64 704.993C1368.27 704.993 1371.7 684.898 1375.13 605.499C1389.34 616.772 1414.83 628.535 1431 632.456C1425.61 726.558 1410.91 762.826 1355.52 762.826C1343.76 762.826 1300.63 762.826 1289.85 762.826C1233.48 762.826 1216.82 742.241 1216.82 672.645V320.253ZM1093.8 319.763H1155.07V766.747H1093.8V319.763ZM1379.05 393.28L1421.2 446.212C1370.72 480.52 1308.47 514.828 1253.09 542.765C1248.68 529.532 1237.4 508.947 1229.07 496.204C1282.5 468.758 1339.84 426.608 1379.05 393.28ZM960 650.59C999.699 638.827 1061.94 616.772 1120.76 595.697L1131.54 649.12C1082.53 671.175 1029.11 693.23 985.976 710.874L960 650.59Z" fill="white"/>
<path d="M567.418 695.19H837.961V752.044H567.418V695.19ZM540.952 554.528H868.839V771.648H805.614V610.891H601.236V771.648H540.952V554.528ZM637.014 308L704.16 330.055C672.303 390.829 630.643 456.505 597.315 499.145L544.383 478.07C577.221 433.469 615.94 362.893 637.014 308ZM754.642 395.731L801.203 361.423C849.724 400.632 908.538 457.485 934.024 499.635L882.562 538.844C859.526 497.674 803.653 437.88 754.642 395.731ZM489 450.623C588.003 448.173 739.938 442.291 874.72 436.41L871.779 493.263C736.018 500.615 588.983 506.496 492.431 510.417L489 450.623Z" fill="white"/>
</svg>
