<svg width="1920" height="1080" viewBox="0 0 1920 1080" fill="none" xmlns="http://www.w3.org/2000/svg">
<path d="M987.311 425.725H1129.62V483.222H987.311V425.725ZM1221.61 320.313H1281.51V665.777C1281.51 692.609 1284.38 696.442 1301.63 696.442C1309.78 696.442 1342.84 696.442 1351.46 696.442C1369.67 696.442 1373.02 676.797 1376.38 599.175C1390.27 610.196 1415.19 621.695 1431 625.528C1425.73 717.524 1411.35 752.981 1357.21 752.981C1345.71 752.981 1303.55 752.981 1293.01 752.981C1237.9 752.981 1221.61 732.857 1221.61 664.818V320.313ZM1101.35 319.833H1161.24V756.814H1101.35V319.833ZM1380.21 391.705L1421.42 443.453C1372.06 476.993 1311.21 510.533 1257.07 537.845C1252.76 524.908 1241.74 504.784 1233.59 492.326C1285.82 465.494 1341.88 424.287 1380.21 391.705ZM970.541 643.257C1009.35 631.757 1070.2 610.196 1127.7 589.592L1138.24 641.819C1090.33 663.381 1038.1 684.942 995.936 702.192L970.541 643.257Z" fill="white"/>
<path d="M766.904 470.764H945.626V523.949H766.904V470.764ZM507.208 359.602H722.823V406.559H507.208V359.602ZM502.416 550.302H722.344V598.696H502.416V550.302ZM500.979 466.452H726.656V513.887H500.979V466.452ZM844.526 493.763H900.107V759.689H844.526V493.763ZM587.225 316H643.285V380.685H587.225V316ZM587.225 511.012H643.285V761.605H587.225V511.012ZM741.031 350.019L808.111 368.706C807.632 373.497 804.278 375.893 795.653 377.331V518.199C795.653 589.592 786.549 695.483 721.386 763.043C714.198 750.585 693.116 730.94 680.179 723.753C735.76 664.818 741.031 582.884 741.031 517.241V350.019ZM897.711 316.958L943.709 358.644C894.836 380.685 829.672 396.976 773.612 407.517C770.738 395.059 762.592 374.935 755.884 363.915C807.153 352.415 863.692 335.166 897.711 316.958ZM638.973 600.612C653.826 609.716 699.824 645.652 711.324 655.235L678.262 696.442C662.451 677.276 626.036 641.34 608.307 625.528L638.973 600.612ZM531.165 413.746L575.246 403.204C583.871 420.454 590.579 443.932 592.975 459.744L546.018 472.201C545.06 456.39 538.831 431.953 531.165 413.746ZM650.472 402.246L701.261 411.829C692.158 433.87 684.012 454.473 676.825 469.327L631.306 459.744C638.014 443.453 646.16 419.016 650.472 402.246ZM587.704 578.572L628.431 593.425C604.953 646.131 565.184 701.233 526.852 732.377C517.749 719.92 500.979 700.754 489 691.65C526.852 667.214 566.622 620.737 587.704 578.572Z" fill="white"/>
</svg>
