<svg width="1920" height="1080" viewBox="0 0 1920 1080" fill="none" xmlns="http://www.w3.org/2000/svg">
<path d="M1079.97 456.595H1355.96V489.673H1079.97V456.595ZM1103.67 405.249H1335.71V437.834H1103.67V405.249ZM1190.56 385.006H1244.38V476.343H1190.56V385.006ZM1184.64 591.377H1236.97V689.132H1184.64V591.377ZM1239.44 581.997C1264.62 613.101 1315.97 640.255 1366.82 652.104C1356.94 660.991 1343.12 678.27 1336.7 689.626C1282.89 672.346 1231.05 636.799 1201.43 595.821L1239.44 581.997ZM1215.74 561.261L1260.67 577.554C1222.65 621 1158.47 657.535 1100.71 678.764C1094.29 669.384 1078 650.129 1068.62 641.736C1125.39 624.95 1184.64 596.315 1215.74 561.261ZM1323.87 575.085L1358.92 597.796C1337.69 614.582 1312.51 629.393 1292.76 639.761L1263.14 619.519C1282.89 608.164 1309.05 588.415 1323.87 575.085ZM1154.52 534.601V559.78H1282.39V534.601H1154.52ZM1105.65 504.978H1333.74V589.403H1105.65V504.978ZM1007.89 325.761H1431V771.088H1372.74V379.082H1063.19V771.088H1007.89V325.761ZM1042.94 699.994H1404.34V752.821H1042.94V699.994Z" fill="white"/>
<path d="M496.406 399.324H648.468V453.632H496.406V399.324ZM551.701 307H607.984V770.594H551.701V307ZM553.182 439.808L585.274 452.151C573.424 532.626 547.258 630.38 516.154 682.22C510.723 664.446 497.393 637.292 489 621.493C517.635 579.528 542.321 501.028 553.182 439.808ZM604.528 460.544C615.884 473.874 656.368 531.145 664.761 544.968L629.707 587.428C618.846 559.286 591.198 506.459 576.387 482.761L604.528 460.544ZM847.434 552.868L883.475 521.27C910.629 548.424 946.67 585.946 963.456 609.644L924.946 646.673C909.641 621.494 874.588 581.503 847.434 552.868ZM657.849 395.374L701.295 378.094C717.588 411.667 733.88 455.607 740.792 484.736L694.384 503.99C688.953 474.862 673.154 429.44 657.849 395.374ZM904.21 374.145L958.519 396.362C939.758 431.909 920.997 472.887 904.704 499.053L863.233 479.799C877.55 451.163 895.324 406.729 904.21 374.145ZM815.343 307.494H870.638V687.157C870.638 709.374 871.626 712.336 880.019 712.336C883.475 712.336 899.273 712.336 903.223 712.336C911.616 712.336 913.591 699.5 914.578 654.572C927.415 664.446 948.151 674.321 963.949 677.776C958.519 740.971 944.695 765.163 908.16 765.163C899.767 765.163 877.55 765.163 869.157 765.163C827.192 765.163 815.343 748.377 815.343 686.663V307.494ZM644.025 600.264C668.217 585.946 706.233 559.78 741.78 534.107L759.553 574.591C730.424 602.733 699.814 631.368 672.167 656.053L644.025 600.264ZM731.906 307.494H785.226V516.333C785.226 611.126 768.934 715.792 675.623 773.063C667.723 761.707 649.456 740.478 637.607 730.11C726.968 687.157 731.906 594.833 731.906 515.84V307.494Z" fill="white"/>
</svg>
