<svg xmlns="http://www.w3.org/2000/svg" width="68.066" height="68.082" viewBox="0 0 68.066 68.082">
  <path id="Exclusion_1" data-name="Exclusion 1" d="M33.553,67.081h-.116A33.54,33.54,0,0,1,9.854,9.79,33.311,33.311,0,0,1,33.464,0h.095a33.54,33.54,0,1,1,0,67.08h0ZM24.248,29.218V36.5h5.875v.945q0,3.8,0,7.6v.33q0,3.964,0,7.929c0,.958,0,.958.99.958h5.33c.94,0,.94,0,.94-.946q0-1.845,0-3.691c0-4.033.005-8.2-.013-12.3a.929.929,0,0,1,.179-.681.806.806,0,0,1,.6-.17h.085c.494.014,1.017.02,1.7.02l.868,0,.9,0c.4,0,.729,0,1.04.007h.03a.6.6,0,0,0,.709-.59c.147-.819.319-1.649.485-2.451.1-.506.212-1.026.313-1.539.119-.6.226-1.2.339-1.835.05-.278.1-.561.153-.851h-3.99c-1.087,0-1.924,0-2.714,0h-.026a.738.738,0,0,1-.542-.131.522.522,0,0,1-.107-.4c.018-.428.026-.863.033-1.284.014-.8.029-1.635.116-2.445A3.457,3.457,0,0,1,40.48,21.83a11.826,11.826,0,0,1,1.854-.148l.414-.012c.236-.009.489-.013.8-.013.208,0,.417,0,.625,0s.417,0,.626,0V14.4l-1.657,0h-.016l-1.622,0c-1,0-1.814.005-2.557.017a9.327,9.327,0,0,0-2.05.226c-3.318.8-5.4,3.008-6.358,6.759a20.52,20.52,0,0,0-.415,5.3c0,.453.008.922,0,1.383,0,.248,0,.5,0,.766,0,.123,0,.249,0,.383Z" transform="translate(0.5 0.5)" fill="#fff" stroke="rgba(0,0,0,0)" stroke-miterlimit="10" stroke-width="1"/>
</svg>
