<svg xmlns="http://www.w3.org/2000/svg" width="66.665" height="66.725" viewBox="0 0 66.665 66.725">
  <path id="Exclusion_2" data-name="Exclusion 2" d="M32.767,65.725h-.009a32.213,32.213,0,0,1-12.712-2.6A33.193,33.193,0,0,1,2.582,45.608a32.774,32.774,0,0,1,0-25.51A32.9,32.9,0,0,1,32.8,0h.107A32.212,32.212,0,0,1,45.62,2.6,33.187,33.187,0,0,1,63.083,20.116a32.783,32.783,0,0,1,0,25.51,32.9,32.9,0,0,1-30.215,20.1Zm-.375-33.079,0,0,.077.09c.036.041.057.066.077.093l1.543,2.079,3.085,4.157.558.752c.667.9,1.358,1.828,2.031,2.744a.828.828,0,0,0,.726.374h.028c.273-.006.573-.008.944-.008h1.443a.783.783,0,0,0,.864-.868V26.29a.79.79,0,0,0-.9-.883H40.58c-.643,0-.86.214-.86.848q0,4.563,0,9.127v.253l-.06.024-.041-.048c-.033-.04-.068-.081-.1-.123q-.433-.581-.863-1.163l-.033-.044-.428-.578-1.21-1.632c-1.5-2.019-3.046-4.107-4.565-6.169a1.085,1.085,0,0,0-.937-.5h-.05c-.261.008-.544.011-.89.011l-.619,0-.62,0c-.711,0-.962.248-.962.946q0,7.337,0,14.672,0,.156,0,.313v.012c0,.293,0,.6,0,.893a.648.648,0,0,0,.673.684c.441,0,.883.007,1.316.007.46,0,.922,0,1.375-.008a.655.655,0,0,0,.674-.617,2.115,2.115,0,0,0,.012-.282V32.646ZM9.711,25.406H8.505c-.588,0-.839.25-.839.837V36.805q0,2.652,0,5.3a.735.735,0,0,0,.821.822h10.2c.571,0,.816-.241.818-.807,0-.693,0-1.451,0-2.318,0-.613-.221-.83-.834-.83h-6.6c-.179,0-.269,0-.313-.044s-.044-.132-.044-.306V26.2c0-.548-.248-.793-.8-.794Zm14.082,0H22.588c-.6,0-.839.233-.839.83q0,2.644,0,5.288v5.3q0,2.651,0,5.3a.7.7,0,0,0,.617.778,1.2,1.2,0,0,0,.277.028h2.339c.565,0,.818-.251.818-.812q0-3.978,0-7.955t0-7.955a.7.7,0,0,0-.8-.8Zm23.241,0c-.031,0-.057,0-.08,0a.675.675,0,0,0-.646.626c-.01.109-.01.221-.01.329v8.313q0,.523,0,1.045,0,1.2,0,2.4,0,2-.005,3.992a.863.863,0,0,0,.2.631.761.761,0,0,0,.56.19H57.4a.687.687,0,0,0,.746-.744c0-.5,0-1.017,0-1.512q0-.473,0-.945a.687.687,0,0,0-.468-.685,1.282,1.282,0,0,0-.457-.066q-1.586,0-3.171,0c-1.22,0-2.341,0-3.428.005a.3.3,0,0,1-.224-.059.29.29,0,0,1-.055-.216c.013-.908.012-1.607,0-2.27a.238.238,0,0,1,.3-.3h.011c1.03,0,2.119.006,3.528.006h3.21a.679.679,0,0,0,.757-.728c.006-.841,0-1.686,0-2.48a.676.676,0,0,0-.478-.678,1.422,1.422,0,0,0-.435-.066l-3.03,0c-1.3,0-2.473,0-3.593.005a.29.29,0,0,1-.215-.056.276.276,0,0,1-.052-.205c.012-.831.012-1.581,0-2.294a.3.3,0,0,1,.056-.225.315.315,0,0,1,.234-.061c1.187,0,2.463.006,4.138.006h2.577c.55,0,.8-.248.8-.805q0-.748,0-1.5v-.75c0-.674-.225-.9-.893-.9H47.035Z" transform="translate(0.5 0.5)" fill="#fff" stroke="rgba(0,0,0,0)" stroke-miterlimit="10" stroke-width="1"/>
</svg>
