<svg xmlns="http://www.w3.org/2000/svg" viewBox="0 0 194.64 55.09"><defs><style>.cls-1,.cls-2{fill:#838370;}.cls-2{fill-rule:evenodd;}.cls-3{fill:#d92817;}</style></defs><title>ao_logo</title><g id="圖層_2" data-name="圖層 2"><g id="logo"><polygon class="cls-1" points="18.6 19.22 23.92 22.91 26.91 19.76 23.77 21.25 18.6 19.22"/><path class="cls-1" d="M27,14.73,27.85,13a75,75,0,0,1,7.79,1L43.55,16a15.33,15.33,0,0,0-5.22-4.89C35,9.29,28.65,12.22,27.86,13l4.69-9.7L28.91,0,26,9.4c-1.93-1.95-5.71-5.4-9.69-7C12.68.86,4.7,3.67.2,7.48c8.59,1.91,18,4.1,18,4.1L25.52,11l-1.39,4.46a10.42,10.42,0,0,0-1.61.78c-1.91-3.14-11.75-6.55-19.25-.69,0,0,3,10.4-1.89,16.52A9.71,9.71,0,0,1,0,38.69c1.23,6.68,7.31,16.23,11.82,14.57,2.64-1,2.64,1.94,6.2,1.83,2.11-.07,2.41-.6,3.62-1.36,5.59,4.23,15.58-5.91,20.22-16C49.29,21.55,36.37,13.56,27,14.73Zm-25.32,23a7.77,7.77,0,0,0,.82-5.32c3-3.13,3.68-11.18,2.18-15.95C14.1,19.33,12.32,34.41,1.69,37.73ZM23.92,22.91,18.6,19.22l5.17,2,3.14-1.49Z"/><path class="cls-2" d="M69.1,51.41h2.08l.25.83h2.92l-2.7-6.63h-3L66,52.24h2.9l.21-.83Zm.51-1.57L70,48.56a5.29,5.29,0,0,0,.13-.74h.1a3,3,0,0,0,.15.74l.35,1.28Z"/><path class="cls-2" d="M78.28,52.24H81v-2h1.52A2.2,2.2,0,0,0,84.89,48a2.42,2.42,0,0,0-.39-1.26,3,3,0,0,0-2.59-1.12H78.28v6.63ZM81,48.57V47.43h.51c.47,0,.75.21.75.54s-.3.6-.78.6Z"/><path class="cls-2" d="M88.82,52.24H91.5v-2H93A2.2,2.2,0,0,0,95.43,48a2.5,2.5,0,0,0-.38-1.26,3,3,0,0,0-2.6-1.12H88.82v6.63Zm2.68-3.67V47.43H92c.46,0,.74.21.74.54s-.3.6-.78.6Z"/><polygon class="cls-2" points="99.36 52.24 104.43 52.24 104.43 50.1 102.12 50.1 102.12 45.61 99.36 45.61 99.36 52.24 99.36 52.24"/><polygon class="cls-2" points="108.36 52.24 113.55 52.24 113.55 50.42 111.12 50.42 111.12 49.78 113.25 49.78 113.25 48.04 111.12 48.04 111.12 47.43 113.47 47.43 113.47 45.61 108.36 45.61 108.36 52.24 108.36 52.24"/><polygon class="cls-2" points="178.25 52.24 183.43 52.24 183.43 50.42 181 50.42 181 49.78 183.13 49.78 183.13 48.04 181 48.04 181 47.43 183.35 47.43 183.35 45.61 178.25 45.61 178.25 52.24 178.25 52.24"/><polygon class="cls-2" points="150.94 52.24 156.01 52.24 156.01 50.1 153.7 50.1 153.7 45.61 150.94 45.61 150.94 52.24 150.94 52.24"/><polygon class="cls-2" points="160.05 52.24 162.81 52.24 162.81 45.61 160.05 45.61 160.05 52.24 160.05 52.24"/><path class="cls-1" d="M139.54,52.23V45.61h3.25c.58,1.2,1.16,2.41,1.59,3.35h.06c0-.56-.05-1.6-.05-2.7v-.65h2.51v6.62h-3.1c-.46-.93-1.35-3-1.77-3.89H142a29.3,29.3,0,0,1,.08,2.94v.95Z"/><path class="cls-1" d="M166.85,52.24V45.61h3.25c.58,1.2,1.16,2.42,1.58,3.35h.07c-.05-.56-.06-1.6-.06-2.7v-.65h2.52v6.63H171.1c-.45-.94-1.34-3-1.76-3.9h-.06a25.86,25.86,0,0,1,.09,2.94v1Z"/><path class="cls-2" d="M131.54,45.44c-2.95,0-4.06,1.65-4.06,3.49s1.38,3.48,3.94,3.48c2.83,0,4.08-1.54,4.08-3.49S134,45.44,131.54,45.44Zm-.07,4.37a.88.88,0,0,1-1-.88c0-.47.28-.89,1-.89a.91.91,0,0,1,1,.88C132.51,49.42,132.19,49.81,131.47,49.81Z"/><path class="cls-2" d="M56.75,31.26l-2.34-1.94s-2,4-2.66,5.47c0,0,2.39,2.06,2.39,2.05C55.63,34.05,56.75,31.26,56.75,31.26Z"/><path class="cls-2" d="M77.66,19.91l-.56-.23-.3.62H71.09V19h5.58l1-3.7-.59-.26-.3.64H71.08v-.8l.34-.11.11-.42H67.42v1.32H62.83v-.82l.34-.07.11-.43H59.16v1.32H52.5L51.9,19h7.27v1H57.62v5.79h-.94V21.92l.37-.14.1-.41H53.2v4.45h-.86L51.59,29h5.18v6.06l-4.61,3.77,2.18,3.08a32.91,32.91,0,0,0,10-10.29l.51.07,0-.5V31l-3.22-1.53L60.3,32V29h3.33l.82-3.18H61.24V24.72h1.94l.73-2.83H61.23V20.6h1.63l0-1.57h4.59V20.3H64.86L64,23.62h5.15l-.39,1.11-3.93,0V31h0l0,.19v5.37H66.5L62.32,39.3l2.48,2.35s1.49-.95,2.61-1.73S70,38,70,38l-1-1.43h3.27l-1.34,1.62s.92.77,2.21,1.81a20.64,20.64,0,0,0,2,1.48l2.49-2.61-3.25-2.3h2.26V26.82l.9-.79-2.43-2.41H75l-.9,1.11H72.58l.35-1.11H75l0,0,0,0h1.65ZM73,34H68.53v-.92H73Zm0-3H68.53v-.92H73Zm0-4v.91H68.53V27Z"/><path class="cls-2" d="M96.72,33.08h7.69l1.11-4.35-1.12-.38-.47.78H94.16V28.05h8.42V18.31l1.32-1.85-4.29-2.08-.81,1.14-18.23,0V28.05h9l0,1.09H79.3l-.47,3.93h7.89s-5.43,4-7.93,5.48c0,0,2.43,3.1,2.45,3.09a86.44,86.44,0,0,0,8.27-6.19V41.9h4.65V35.52a34.3,34.3,0,0,0,8.3,5.66s2.42-3.31,3.14-3.58A65.43,65.43,0,0,1,96.72,33.08Zm-2.64-14h4.18v1H94.08Zm-4.56,1H86l-1,3.51h4.56v1h-4.7V19.08h4.7Zm4.55,4.51v-1h4.19v1Z"/><path class="cls-1" d="M125.71,23.76v-3.6q2.9-.24,7.71-.93l-1.35-4.08a87.72,87.72,0,0,1-10.61,1.17V27.49q.11,6.41-.67,8.85c-.22-.24-.67-.7-1.34-1.4a11.81,11.81,0,0,0-1.9-1.86l-1.33,1.08V32.49h3.7l.48-3.05.15-.93-.47-.25-.31.63h-3.55V27.37h3.7l.57-3.72h0l.06-.38-.48-.25-.3.63H118.3l.66-3.14h.92l.57-3.7.06-.41-.47-.25-.31.63h-3.51V14.89l.27-.08.11-.42h-5v2.4h-3.85l-.57,3.73h1.58l.66,3.14h-1.69l-.57,3.72h4.44v1.52h-3.87l-.57,3.6h3.72a41.29,41.29,0,0,1-5,5,28.65,28.65,0,0,1,2.12,3.26,16.74,16.74,0,0,0,3.64-4.23V42h4.64V36.49c.18.23.4.52.66.89.67.78,1.12,1.28,1.34,1.52l2.35-2a14.27,14.27,0,0,1-1.23,2.91q1.89,1.28,3.68,2.56a21.93,21.93,0,0,0,2.13-6.17,46.8,46.8,0,0,0,.56-8.27Zm-11-.11h-1.83l-.55-3.14h2.91Z"/><path class="cls-1" d="M150.66,15.49H137.77V42h4.66V25.08h8.23Zm-4.32,3.82h-3.21l-.57,2.08h3.78v1h-3.91V18.27h3.91Z"/><path class="cls-1" d="M161.53,14.38l-.8,1.11h-9.32v9.59h8.34V38c0,.46-.34.69-1,.69h-.56l.69-2.78-.55-.26-.35.63h-.62V28.75h.79l.5-2,.23-.93-.55-.26-.35.63H143.71l-.63,2.59h1.22v7.54l0,0h-.63l-.63,2.59h10.24v2.33h4V38.9H158c.16.62.69,2.73.75,3.06.38,0,2.31-.12,2.53-.12q3.36-.12,3.13-3.58V18l1.14-1.65ZM153,36h-4.4v-1H153Zm0-3h-4.4v-1H153Zm0-3.16h-4.4v-1H153Zm6.73-10.45h-3.32l-.57,2.08h3.89v1h-4V18.27h4Z"/><path class="cls-1" d="M193.75,18l.89-1.52-4.28-2.08-.81,1.12H175.71v4.67l-1.25-.79-1.12-.73a33,33,0,0,1-1.52,3.29l-.92.14a37.1,37.1,0,0,0,2.44-5.44l-.3-.1v0l-3.24-1a24.45,24.45,0,0,1-2.61,6.94l-1.06.06.43,3c1.22-.11,2.37-.24,3.46-.4-.69,1.09-1.48,2.26-2.39,3.43l-1.5.09.32,1.76.36,2.11c2.33-.41,4.69-.92,7.06-1.53.09.48.17,1,.25,1.53l1.58-.57v1.6l-.47-1A6.52,6.52,0,0,1,174,33l-1.31.32A34.14,34.14,0,0,1,174,39l1.71-.62V42h4.65V19.2h8.76V37.06c.07.85-.33,1.27-1.23,1.27h-3a22.67,22.67,0,0,1,.9,3.59c1.41,0,3.77,0,4.74-.11q3.36,0,3.24-3.71Zm-18,9.41-.38-1.48-2,.54h0l-.48.14c.14.49.29,1,.43,1.6l-2,.11a46.66,46.66,0,0,0,4.4-6.88Z"/><path class="cls-1" d="M188.33,34.7h0l.15-.92-.41-.27-.27.62h-1.73c-.61.08-.91-.34-.91-1.24V31.55h2.75l.43-2.74.14-.88-.41-.27-.27.63h-1.22v-2h1.33l.42-2.59h0l.09-.56h0l.06-.36-.41-.27-.27.63h-.2l.63-2.21-2.55-.45s-.54,2.14-.72,2.66h-.18l-.68-2.57-2.55.56.59,2h-.63l-.5,3.15h1.9v2h-1.4l-.5,3.26h.79v2.92c.06,1.79.73,2.73,2,2.8h4.12Z"/><path class="cls-1" d="M165.59,39.87l3.14.51a45.61,45.61,0,0,0,.68-7l-2.77-.11A30,30,0,0,1,165.59,39.87Z"/><path class="cls-1" d="M169.85,33.49c.22,2.22.16,4.27.18,6.2l3-.31a52.9,52.9,0,0,0-.76-6.1Z"/><polygon class="cls-3" points="138.13 27.18 133.72 25.77 138.3 10.72 124.19 30.03 129.63 31.43 124.43 47.05 138.13 27.18"/></g></g></svg>