<svg xmlns="http://www.w3.org/2000/svg" viewBox="0 0 29.38 29.38"><defs><style>.cls-1{fill:#838370;}.cls-2{fill:#4c4948;}</style></defs><title>button_04_a</title><g id="圖層_2" data-name="圖層 2"><g id="logo"><circle class="cls-1" cx="14.69" cy="14.69" r="14.69"/><path class="cls-2" d="M14.69,0A14.69,14.69,0,1,0,29.38,14.69,14.69,14.69,0,0,0,14.69,0Zm0,7.7a4.46,4.46,0,1,1-4.46,4.46A4.46,4.46,0,0,1,14.69,7.7Zm0,19.25a12.15,12.15,0,0,1-8.45-3.4c2-3.34,5-5.49,8.45-5.49s6.49,2.15,8.46,5.49A12.18,12.18,0,0,1,14.69,27Z"/></g></g></svg>