<svg xmlns="http://www.w3.org/2000/svg" viewBox="0 0 29.38 29.38"><defs><style>.cls-1{fill:#4c4948;}.cls-2{fill:#838370;}</style></defs><title>button_06_a</title><g id="圖層_2" data-name="圖層 2"><g id="logo"><path class="cls-1" d="M29.38,14.69A14.69,14.69,0,1,0,14.69,29.38h0A14.68,14.68,0,0,0,29.38,14.69Z"/><path class="cls-2" d="M23.58,12.76v-.55h-2.9v-.43a2.79,2.79,0,0,0,.58.07V10.16A2,2,0,0,1,19.45,8V7.23h0V6.85h-.63v.38H10.56V6.85H9.93v.76h0V8a2,2,0,0,1-1.8,2.17v1.69a2.78,2.78,0,0,0,.57-.07v.43H5.8v.55a1.47,1.47,0,0,1-1.31,1.59v1.23a1.84,1.84,0,0,0,.41-.05V19.8h7.7V17.14a2.34,2.34,0,0,1,2.09-2.52,2.33,2.33,0,0,1,2.09,2.52V19.8h7.7V15.53a2,2,0,0,0,.42.05V14.35A1.47,1.47,0,0,1,23.58,12.76Z"/></g></g></svg>