<svg xmlns="http://www.w3.org/2000/svg" viewBox="0 0 29.38 29.38"><defs><style>.cls-1{fill:#4c4948;}.cls-2{fill:#838370;}</style></defs><title>button_07_a</title><g id="圖層_2" data-name="圖層 2"><g id="logo"><path class="cls-1" d="M29.38,14.69A14.69,14.69,0,1,0,14.69,29.38h0A14.68,14.68,0,0,0,29.38,14.69Z"/><path class="cls-2" d="M19.23,5.29C17.65,5,16.32,7.37,16.07,9a2.74,2.74,0,0,0,1.33,3l-2.32,12.5c0,.26.49.52.76.56l.43.07c.26,0,.85,0,.89-.3l1.67-12.59A2.72,2.72,0,0,0,21.1,9.75C21.35,8.17,20.81,5.54,19.23,5.29Z"/><path class="cls-2" d="M12.19,12.19l.23-1,.09-.36a3.83,3.83,0,0,0,.19-2c-.37-2.79-.65-3.6-1.32-3.75l.4,3.64a.31.31,0,0,1-.25.35h-.1a.32.32,0,0,1-.33-.29l-.79-3.68-.24,0-.4.06L9.86,9a.29.29,0,0,1-.25.32h-.1a.32.32,0,0,1-.33-.29L8.64,5.56C8,6,8.17,7,8.54,9.78a3,3,0,0,0,.68,1.71c.14.21.29.47.47.74l.35.56.42.65,1.2,11.45c0,.27.64.43.91.39l.44-.06c.27,0,.81-.36.78-.63L12,13.09Z"/></g></g></svg>