<svg xmlns="http://www.w3.org/2000/svg" xmlns:xlink="http://www.w3.org/1999/xlink" viewBox="0 0 29.38 29.38"><defs><style>.cls-1{fill:none;}.cls-2{fill:#838370;}.cls-3{clip-path:url(#clip-path);}.cls-4{fill:#beb49a;fill-rule:evenodd;}</style><clipPath id="clip-path"><circle class="cls-1" cx="14.69" cy="14.69" r="12.37"/></clipPath></defs><title>button_11_b</title><g id="圖層_2" data-name="圖層 2"><g id="logo"><circle class="cls-2" cx="14.69" cy="14.69" r="14.69"/><g class="cls-3"><path class="cls-4" d="M6.16,20.41h0a2.53,2.53,0,0,0,1.6.77C4.84,23.12,3.12,23,2.65,28H26.74c-.4-4.86-2.2-5-5.27-6.76l0,0a2.54,2.54,0,0,0,2-.77,2.87,2.87,0,0,1-2.92-2.74A38.38,38.38,0,0,1,20,13.14a.87.87,0,0,1-.8.47,9.1,9.1,0,0,1-2.12,3.55,6.82,6.82,0,0,0,.51,2c-.26.33-.44.66-.66.91a3.36,3.36,0,0,1-5.15-.91,4.57,4.57,0,0,0,.51-2,6.72,6.72,0,0,1-2.09-3.55,1.06,1.06,0,0,1-.8-.55,30.6,30.6,0,0,1-.33,4.54C8.86,19.17,8,20.41,6.16,20.41Z"/><path class="cls-4" d="M11.86,8.31c-.62,2.38-2.45,3.4-2.52,2.27-1.5-8.81,11.88-8.92,10.74.07a1.76,1.76,0,0,1-.18.59c-.07-.08-.14-.08-.25-.08a5.35,5.35,0,0,1-.48-.51c-.4-.36-.77-.11-1.5.11-2.41.7-5.23-.15-5.81-2.45Z"/></g></g></g></svg>