<svg xmlns="http://www.w3.org/2000/svg" viewBox="0 0 29.38 29.38"><defs><style>.cls-1{fill:#838370;}.cls-2{fill:#beb49a;}</style></defs><title>button_08_b</title><g id="圖層_2" data-name="圖層 2"><g id="logo"><path class="cls-1" d="M29.38,14.69A14.69,14.69,0,1,0,14.69,29.38h0A14.68,14.68,0,0,0,29.38,14.69Z"/><path class="cls-2" d="M11,19a11.11,11.11,0,0,1,2.59,1.19L18.07,10l-2.6-1.16Z"/><path class="cls-2" d="M20,6.37,16.85,5a3.11,3.11,0,0,0-4.1,1.57l-.39.88L12,8.14,7.66,18a1.38,1.38,0,0,0,0,1L9.3,23.77a1.34,1.34,0,0,0,.72.79h0a1.35,1.35,0,0,0,1.08,0l4.67-2a1.32,1.32,0,0,0,.71-.7l4.38-9.84.32-.72.39-.88A3.11,3.11,0,0,0,20,6.37Zm.87,3.79-.39.87-2-.9L13.88,20.36a11.07,11.07,0,0,1,1.74,1.43.4.4,0,0,1-.15.1l-2.43,1a6,6,0,0,0-1.71-1.12,6.84,6.84,0,0,0-2.09-.55l-.88-2.51a.63.63,0,0,1,0-.19,9.32,9.32,0,0,1,2.24.31l4.54-10.2-2-.9.38-.88a2.33,2.33,0,0,1,3.07-1.18l3.15,1.4A2.33,2.33,0,0,1,20.86,10.16Z"/></g></g></svg>