<svg xmlns="http://www.w3.org/2000/svg" xmlns:xlink="http://www.w3.org/1999/xlink" viewBox="0 0 29.38 29.38"><defs><style>.cls-1{fill:none;}.cls-2{fill:#838370;}.cls-3{clip-path:url(#clip-path);}.cls-4{fill:#beb49a;fill-rule:evenodd;}</style><clipPath id="clip-path"><circle class="cls-1" cx="14.69" cy="14.69" r="12.37"/></clipPath></defs><title>button_10_b</title><g id="圖層_2" data-name="圖層 2"><g id="logo"><circle class="cls-2" cx="14.69" cy="14.69" r="14.69"/><g class="cls-3"><path class="cls-4" d="M20.05,10.68h0c-.18-.11-.32-.07-.39.11a11.42,11.42,0,0,0,.11-3.88c-.86-3-7.91-3.85-7.91-2C8.8,5.77,9.37,8.65,9.8,10.82a.34.34,0,0,0-.5,0c-.32.36,0,1.18.18,1.61a3.82,3.82,0,0,0,.25.67v.07c0,.32.1.54.28.54.71,2.7,2.85,4.95,4.74,4.95,1.74,0,3.91-2.25,4.62-4.95.15,0,.25-.22.25-.54v0a3.65,3.65,0,0,0,.29-.71c.11-.4.53-1.46.14-1.75Z"/><path class="cls-4" d="M11.4,18.48C5.81,21.61,3,19.83,3,27.41H26.39c0-7.29-2.82-5.8-8.37-8.93A4.88,4.88,0,0,1,14.75,20a4.83,4.83,0,0,1-3.35-1.49Z"/></g></g></g></svg>