<svg xmlns="http://www.w3.org/2000/svg" viewBox="0 0 29.38 29.38"><defs><style>.cls-1{fill:#838370;}</style></defs><title>fb_icon</title><g id="圖層_2" data-name="圖層 2"><g id="logo"><path class="cls-1" d="M14.69,0A14.69,14.69,0,1,0,29.38,14.69,14.69,14.69,0,0,0,14.69,0Zm3.58,9.12a1.12,1.12,0,0,0-.31,0l-.37,0a1.12,1.12,0,0,0-.68.21.75.75,0,0,0-.3.66v.75h1.53a.13.13,0,0,1,.13.14v2.47a.13.13,0,0,1-.13.14H16.75a.14.14,0,0,0-.14.14v9.27a.14.14,0,0,1-.13.14H12.66a.14.14,0,0,1-.14-.14V13.56a.14.14,0,0,0-.14-.14H11.25a.14.14,0,0,1-.14-.14V10.81a.14.14,0,0,1,.14-.14h1.27V9.78a5.86,5.86,0,0,1,.19-1.57,2.32,2.32,0,0,1,.64-1,2.68,2.68,0,0,1,1.17-.58,7.63,7.63,0,0,1,1.8-.18l1,0q.45,0,.87.09a.14.14,0,0,1,.12.14Z"/></g></g></svg>