<svg xmlns="http://www.w3.org/2000/svg" viewBox="0 0 29.38 29.38"><defs><style>.cls-1{fill:#838370;}</style></defs><title>line_icon</title><g id="圖層_2" data-name="圖層 2"><g id="logo"><path class="cls-1" d="M14.69,0A14.69,14.69,0,1,0,29.38,14.69,14.69,14.69,0,0,0,14.69,0ZM8.39,18.65a.13.13,0,0,1-.13.14H3.76a.13.13,0,0,1-.13-.14V10.73a.13.13,0,0,1,.13-.14H5.63a.13.13,0,0,1,.13.14v6.18a.14.14,0,0,0,.14.14H8.26a.13.13,0,0,1,.13.13Zm3.3,0a.14.14,0,0,1-.14.14H9.69a.14.14,0,0,1-.14-.14V10.73a.14.14,0,0,1,.14-.14h1.86a.14.14,0,0,1,.14.14Zm7.41,0a.14.14,0,0,1-.14.14h-2.1a.13.13,0,0,1-.13-.1l-1.4-5h0v4.92a.14.14,0,0,1-.14.14H13.44a.13.13,0,0,1-.13-.14V10.73a.13.13,0,0,1,.13-.14h2.15a.13.13,0,0,1,.13.1l1.35,5h0V10.73a.13.13,0,0,1,.13-.14H19a.14.14,0,0,1,.14.14Zm6.52.14H20.93a.13.13,0,0,1-.13-.14V10.73a.13.13,0,0,1,.13-.14h4.59a.13.13,0,0,1,.13.14V12.2a.13.13,0,0,1-.13.14H23.07a.13.13,0,0,0-.14.13V13.6a.14.14,0,0,0,.14.14h2.27a.14.14,0,0,1,.14.14v1.4a.14.14,0,0,1-.14.14H23.07a.13.13,0,0,0-.14.13v1.36a.14.14,0,0,0,.14.14h2.55a.14.14,0,0,1,.14.13v1.47A.14.14,0,0,1,25.62,18.79Z"/></g></g></svg>