<svg xmlns="http://www.w3.org/2000/svg" viewBox="0 0 401.8 204.38"><defs><style>.cls-1{fill:#beb49a;}</style></defs><title>logo_06280701</title><g id="圖層_2" data-name="圖層 2"><g id="logo"><path class="cls-1" d="M38.38,202.8a9.91,9.91,0,0,0,.43-2.11v-.53a1.35,1.35,0,0,1,.09-.52,4.7,4.7,0,0,1,.26-1.06v-7.29l-.52-6.5a1.83,1.83,0,0,1-.35-.92l-.17-1.05A2.39,2.39,0,0,0,36.56,181a1.86,1.86,0,0,0-.6-.13l-.44-.09a1.26,1.26,0,0,1-.43,0c-.75-.09-1.13-.24-1.13-.44s.21-.32.61-.53a12.18,12.18,0,0,1,1.47-.61,11.14,11.14,0,0,1,3.38-.71,11,11,0,0,1,1.3.27A13,13,0,0,1,42,179a2.53,2.53,0,0,1,.78.35,3.7,3.7,0,0,0,.78.35l1,.09,2.34.53a13.3,13.3,0,0,1,1.3.39c.35.15.52.28.52.4a1.79,1.79,0,0,1-.69,1.14l-.61.57a3.63,3.63,0,0,0-.52.57,1.62,1.62,0,0,0-.43.84,1.24,1.24,0,0,0-.09.48v.4a.93.93,0,0,0,.44.65s.05.08.17.14l.17.13a1.06,1.06,0,0,1,.26.26,34.16,34.16,0,0,1-.26,5.93l-.26.26v3.69c0,.62.49,1,1.47,1.1a7.59,7.59,0,0,0,1.39.09l1.56,0c.81-.06,1.67-.1,2.6-.13.57,0,1.44,0,2.59,0l2.6-.05c.92,0,1.79-.07,2.6-.13-.12-.06-.06-.09.17-.09h.35a1.69,1.69,0,0,0,.52-.13,1.73,1.73,0,0,0,1-.83,4,4,0,0,0,.52-2.2c0-.06,0-.29-.09-.7l-.09-1,.18-.7v-1.32a6.67,6.67,0,0,0-.18-1.71v-11l-.34-1.84q0-4.58-4.68-6.46c-.12-.15,0-.35.43-.61a11.1,11.1,0,0,1,1.65-.75,16,16,0,0,1,4.16-1,17.53,17.53,0,0,1,4.24,1.05l1.82.66a5.84,5.84,0,0,0,1.56.26l2.07.44c.81.27,1.22.56,1.22.88a1.07,1.07,0,0,1-.26.57.94.94,0,0,0-.26.27l-.18.22c.06.11,0,.28-.26.48l-.86.61c-.87.59-1.3,1-1.3,1.28a13.21,13.21,0,0,1-.26,2.37,2.43,2.43,0,0,1-.09.61l-.34,1.76-.7,1.45-.17.57L72,183v1.75a8.09,8.09,0,0,1-.35,1.8l-.17.8c0,.43,0,.93.08,1.49L72,193l-.35.44v1.41a2.11,2.11,0,0,0,.52,1.31c.23.3,1.12.47,2.68.53h3.64a33.81,33.81,0,0,0,3.64,0l3.89-.09,1.3.09c.29.09.52-.06.69-.44l.18-.48a.89.89,0,0,1,.17-.4v-3.16l.26-.48a2.43,2.43,0,0,0,.26-.57,7.58,7.58,0,0,0-.26-1.5,6.87,6.87,0,0,1-.26-1.53v-3.52a8.64,8.64,0,0,0-.26-1.36,3.54,3.54,0,0,0-1.56-2.68,3.61,3.61,0,0,0-.86-.35l-1.13-.26c-1-.24-1.47-.5-1.47-.79t2.25-.84a14.68,14.68,0,0,1,4.59-.92,6.55,6.55,0,0,1,1.47.18l.87.22,1.82.61a6.1,6.1,0,0,0,1.55.35l.26,0a23.85,23.85,0,0,1,2.78.7c.75.35,1.12.82,1.12,1.41,0,.76-.69,1.39-2.08,1.88,0,.27-.06.88-.17,1.85l-.17,1.1q-.09.48-.18.48l.26,5.18-.52,1.14.26.27.18,2.15a9.39,9.39,0,0,1,0,2.5,4.34,4.34,0,0,1-3.29,3.87l-4.16,1.84a3.81,3.81,0,0,1-1,.09c-1,0-1.56-.5-1.56-1.49l-.08-1.45a1.69,1.69,0,0,0-.18-.49v-.35c0-.14-.26-.26-.78-.35a11.09,11.09,0,0,0-1.82-.17H80.29c-3.23,0-6.21,0-8.92,0q-3.47,0-6.75,0l-12.21.27a16.44,16.44,0,0,0-3.81.26,2,2,0,0,0-1.39,2.11c0,.15-.32.38-1,.7s-1.33.57-2.25.92-1.68.6-2.43.84a7.53,7.53,0,0,1-1.38.35,1.79,1.79,0,0,1-1.56-.62ZM67.3,189.62c0,.06.06.09.17.09s.26,0,.26-.09-.08-.17-.26-.17A.15.15,0,0,0,67.3,189.62Z"/><path class="cls-1" d="M212.15,192l-1.53-1.61c-.69-.77-1.28-1.4-1.79-1.88-.69-.65-1.26-1.16-1.71-1.52a2.63,2.63,0,0,0-1.28-.63,1.24,1.24,0,0,0-.94.36,1.85,1.85,0,0,0-.51.72l-.43.89a3.14,3.14,0,0,1-1,.72l-2.14,2.51a4.78,4.78,0,0,1-2.73,1.78,4.57,4.57,0,0,0-.76.09l-2.05.27a23,23,0,0,1-2.82.18c-.51,0-1.08,0-1.7.09a4.19,4.19,0,0,0-.86.09l-2.47.27q-.94.09-1.62.09h-1.2a5.64,5.64,0,0,1-1.11-.09c-.85-.06-1.28-.3-1.28-.72v-7l.17-1.61a1,1,0,0,0-.17-.45.52.52,0,0,0-.34-.35,7.5,7.5,0,0,0,.77-2.87,28.47,28.47,0,0,0,.26-4.29c.05-1.26.08-2.93.08-5a6.76,6.76,0,0,1-.08-1.25v-3.58l.34-2.15a35.41,35.41,0,0,0,3.67-.27l1.19-.17,7.68-.45q4-.27,6.57-.27h1.79a14.73,14.73,0,0,1,1.71.09l1.11-.45a1.1,1.1,0,0,0,.6-1,2.16,2.16,0,0,0-.26-1.08,1.88,1.88,0,0,0-.6-.8l-1.7-1.35a4.17,4.17,0,0,1-1.2-1.16l-.85-1a1.36,1.36,0,0,1-.26-.36c-.85-1-1.62-1.49-2.3-1.43l-1.54,1.7c-.68.71-1.22,1.25-1.62,1.61a9.35,9.35,0,0,1-2.73,2.24l-1.79.26a1.78,1.78,0,0,0-.85.18,2,2,0,0,0-.69.45h-4.6l-1.8-1.07a2.65,2.65,0,0,1-1.36-2,40.76,40.76,0,0,1-.17-4.39v-5.28l.17-4.56a1.25,1.25,0,0,1,.34-.9l1-1.79a4.06,4.06,0,0,1,.52-1.07,4.16,4.16,0,0,0-2.39-1.61l-3.67-1.17c-.4-.18-.6-.32-.6-.44,0-1.08.85-1.62,2.56-1.62l.17.09a1.53,1.53,0,0,0,.85.18c.57,0,1.2,0,1.88-.09l3.67-.62q1.11-.09,2.13-.09c1.08,0,2.31,0,3.67.09l7.6.36c1.42.06,2.7.08,3.84.08a2.49,2.49,0,0,0,1.53-.71,2,2,0,0,0,.85-1.43c0-.78-.59-1.64-1.79-2.6l-1.28-1.07a3,3,0,0,1-.85-.9,4.07,4.07,0,0,0-1-.71,9.89,9.89,0,0,0-1.28-.81,7.15,7.15,0,0,0-1.8-.89h-.76a24.21,24.21,0,0,1-2.9,3,13.05,13.05,0,0,1-3.5,2.33l-2.56-.27a11.45,11.45,0,0,0-2,.18l-3.32.8a5,5,0,0,1-1.62.09l-1-.27a23,23,0,0,0-2.64.18l-2.48.27a28.14,28.14,0,0,1-4.95.36l-1.19-.27a3.36,3.36,0,0,0-.85.27l-.69.27a4.09,4.09,0,0,1-.85.09h-3.5a11.39,11.39,0,0,0-3.41.44,9.55,9.55,0,0,1-2,.18l-1.71.09a9.64,9.64,0,0,0-3.5.54h-.77l-.76-.18-1.28-.09a14.8,14.8,0,0,0-1.54.09,4,4,0,0,0-.85.09l-1.62.18c-.11,0-.22,0-.33,0,0-.22,0-.37.08-.37l.09-3.79-.12-3.78a6.57,6.57,0,0,1,.12-1.19l.23-1.08a3.43,3.43,0,0,0,.23-1,5.14,5.14,0,0,0,.11-1l2.54-2.27c2.14,0,4.14,0,6-.11l8.76-.76c1.76-.07,3.68-.1,5.76-.1l3.45.1a33.44,33.44,0,0,1,4.49.54l6.91-.32,3,.11a33.56,33.56,0,0,0,3.57.21,1.48,1.48,0,0,1,1-.32l3.11.32,2.08-.32.69.32h3.8l.34-.32a5,5,0,0,1,1.62-.22l1.49-.1.69.32h4.84a1.64,1.64,0,0,0,1.38-.87,2.69,2.69,0,0,0,.46-1.4l.23.32a1.08,1.08,0,0,0,.58-.86,3.46,3.46,0,0,0,.12-1.08c0-1-.81-2-2.42-3l-2-1.3a5.62,5.62,0,0,1-1.38-2,7.88,7.88,0,0,0-3.92-.86c-.77,0-1.38.58-1.84,1.73s-.92,1.73-1.61,1.73l-1.27,1a7.33,7.33,0,0,1-1.38,1.08,4.56,4.56,0,0,1-3.23,1l-1-.44a3.79,3.79,0,0,0-.81.11,1.94,1.94,0,0,0-.69.22c-.62.14-.92.18-.92.11s-.23,0-.46-.11a1.7,1.7,0,0,1-.58-.33c-.77-.07-2-.1-3.57-.1l-2-.11a12.63,12.63,0,0,1-1.84-.11c-2.92-.14-4.38-.76-4.38-1.84l.46-1.3.93-3.67a26.28,26.28,0,0,1,2.76-6.06c.31-1.15-1.31-2.31-4.84-3.46a15.65,15.65,0,0,0-2.07-.65l-3.8-1.19a8.76,8.76,0,0,1-1.15-.54,2.64,2.64,0,0,0-1.62-.44,7.87,7.87,0,0,0-1.38.11l-2.19.44a17.17,17.17,0,0,1-1.95.1l-2.54.44-.23.21c0,1.59,1,2.38,3,2.38a1.18,1.18,0,0,0,.57-.21A1.9,1.9,0,0,1,166,99a25.84,25.84,0,0,0,.23,3.35l.46,3.14-.23,2,.23,4.32q.12,0-.12.87l-.11,1.3a1.12,1.12,0,0,0-.81.32,2.86,2.86,0,0,0-.57.76l-9-.44H148l-1.26-.86-1.27-.65a7.36,7.36,0,0,1-1.15-.65,7.63,7.63,0,0,1-1.15-1.08,20.86,20.86,0,0,0-2.31.11,8.72,8.72,0,0,0-1.27.11l-3.1.43a10.33,10.33,0,0,0-2.08.32c-1.07.29-1.61.54-1.61.76s.46.87,1.38,1.51a4.07,4.07,0,0,0,2.31,1.09,2.28,2.28,0,0,1,1,.86,8.44,8.44,0,0,1,.69,1.41l.46,1.4a2.88,2.88,0,0,0,.35.87l.23,10.38-.35,1.41a10.47,10.47,0,0,0-.34,1.51v.33c.23.07.38.4.46,1v2.71a.29.29,0,0,1-.12.21v1.3c0,.58,0,.9.12,1l-.46,3.9c.46.14.23.58-.69,1.3l-1,.86a1.33,1.33,0,0,0-.34,1.08l.46.44-1.39,1.4a28.4,28.4,0,0,1-2.53,2.49v.76a.63.63,0,0,0,.69.54l3.92.65.23.21-.23,10.17a7.86,7.86,0,0,1-.23,1.73l-1.27,3.79a8.15,8.15,0,0,0-.35,2.27,11.61,11.61,0,0,1-.69,2.7l-.23.76a1.14,1.14,0,0,0-.23.65,6,6,0,0,0-.46,1.4,16.45,16.45,0,0,1-3.22,7.14,7,7,0,0,1-.46,2.17c-.23.86-.43,1.29-.58,1.29l-1-.21a7.19,7.19,0,0,0-1.15,1.08l-1.15,1.3a2.19,2.19,0,0,0-.46.54q-1.16,1.29-2.07,2.16a15,15,0,0,1-2.08,1.84q-2.07,1.95-3.91,3.46c-1.23,1-1.77,1.37-1.61,1.08-.08,0-.35.25-.81.76s-.77.76-.92.76c-.46-.08-1,.21-1.73.86s-1,.94-1,1.08c0,.72.23,1.09.7,1.09q.34,0,1.26-.87l.58-.65a2.62,2.62,0,0,1,.57-.43q5.3-1.41,12.9-8.22l3.69-2.81q4.6-4.33,4.6-5a1.31,1.31,0,0,1,.35-.76l.69-.75c.61-.58.81-.94.58-1.09v-.21a10.4,10.4,0,0,1,1-1.3l1.16-1.3a4.75,4.75,0,0,0,1.26-3,44.17,44.17,0,0,0,3.46-18.28c0-.14-.16-.32-.46-.54l-.92-.75a4.94,4.94,0,0,1-.93-.87,2.26,2.26,0,0,1-.46-1.3c.39,0,.69-.32.92-1l.47-1.41h2.53v-7.14l.23-.64v-5.41l.16-.34a17.59,17.59,0,0,0,2-.25L150,139q1-.18,2.13-.27L168,137.07l.51-.27a2.73,2.73,0,0,0,1.28.27h1.28q3.07.45,3.84,4.92a25.75,25.75,0,0,1,.26,3.94v3.76l.34,2.5-.34,1.08.17.45a2.24,2.24,0,0,1,.17.62v28.82l-.68,5.1a2.34,2.34,0,0,1-.09.72q-.42,3.68-.77,5.73a1,1,0,0,1-.68.44,1.86,1.86,0,0,1-.68.09h-8.19c-1.88-.35-2.82-1.34-2.82-3l.43-8.32c.05-1.31.08-2.6.08-3.85l-.25-3.22a2.55,2.55,0,0,1,.51-1.79c0-.66,0-1.32.08-2a6.06,6.06,0,0,1,.09-1l.17-1.88a4.41,4.41,0,0,0,.09-.89c0-.78.08-1.49.08-2.15l-.26-2.15a8.44,8.44,0,0,1,.52-2.59,7.25,7.25,0,0,0,.51-2.24c0-.72-.6-1.82-1.79-3.31q-2-2.59-3.84-2.6a5.41,5.41,0,0,0-.94.09l-.94.27-1.71.72-1.62.27a4.31,4.31,0,0,0-1.7.8,2,2,0,0,0,1,1.34,4.08,4.08,0,0,0,.77.54l.77.45.59.8,1.45,2.78.52,4.11v11.28l-.09,2.51-.68,8.77a16.89,16.89,0,0,1-.34,3.4,4.64,4.64,0,0,1-1.45,3c-.69.72-2.14,1.17-4.36,1.35l-4,.17a6.53,6.53,0,0,0-1.11.09,18.13,18.13,0,0,0-2.3.18q-1.37.27-1.11.36h-6.31v.54l1.53,3.22,1,.81c2.5,0,4.21-.27,5.12-.81v.27a12.16,12.16,0,0,0,2.22-.27l2.81-.54c1.25-.24,2.39-.41,3.41-.53a36.05,36.05,0,0,1,4.36-.27,2.45,2.45,0,0,0,.93-.27,1.27,1.27,0,0,0,.52-.18l.42-.27.94-.27a.89.89,0,0,1,.77.18,2.65,2.65,0,0,0,.68-.09l1.2-.62a2.59,2.59,0,0,1,.68-.09l3.33.27,5.12-.54a3.14,3.14,0,0,1,1.45-.27h1.62a30,30,0,0,0,3.67-.27l2.47-.27,2.73.09c1.08,0,1.54-.12,1.37-.36l.51.27,16.47.27a1.78,1.78,0,0,0,.85.18h.94a2.07,2.07,0,0,1,.77.18l1.79.54a3.66,3.66,0,0,0,1,.18c1.37.17,2.53.29,3.5.35,1.31.12,2.45.18,3.41.18q2.57,0,2.56-3.49a4.57,4.57,0,0,0-.85-2.33A3.52,3.52,0,0,0,212.15,192Zm-1.72-73.74-.11-.32.11-.22c.24,0,.35.07.35.22S210.67,118.28,210.43,118.28Zm1.73-.32a1.15,1.15,0,0,1-.23.86.66.66,0,0,1-.46.11h-.69l.58-.65A1.14,1.14,0,0,1,212.16,118Zm-2.53-2.27h1.15c0,.43-.38.65-1.15.65Zm-.69-1.73h.46v.43h-.46Zm-.92,4.32c-.23,0-.35-.11-.35-.32s.12-.33.35-.33c.07,0,.11.11.11.33S208.09,118.28,208,118.28Zm0-1.73c-.23,0-.35-.07-.35-.21,0-.29.12-.44.35-.44.07,0,.11.15.11.44C208.13,116.48,208.09,116.55,208,116.55Zm0-1.51a1.4,1.4,0,0,1-1.16-.44,1.46,1.46,0,0,1-.23-.86ZM206.63,118h-.46v-.33h.46Zm-1.15-4.87.69.22h-.69Zm-4.83,2.6c.07,0,.11.11.11.32s0,.33-.11.33-.24-.11-.24-.33S200.49,115.69,200.65,115.69Zm-8,2.27c.15,0,.23.14.23.43s-.08.22-.23.22-.35-.07-.35-.22S192.47,118,192.7,118Zm-.69.32c.15,0,.23.11.23.33s-.08.32-.23.32-.35-.11-.35-.32S191.78,118.28,192,118.28Zm-.35-2.38c.08,0,.12.15.12.44q0,.21-.12.21c-.15,0-.23-.07-.23-.21C191.43,116.05,191.51,115.9,191.66,115.9Zm-13.82-9.3v.22h-.34Zm-25.22,11.68.23.65-.12.11-.11.22ZM137,150.41c-.16,0-.23-.07-.23-.22s.07-.43.23-.43.11.14.11.43S137,150.41,137,150.41Zm0-1.52c-.16,0-.23-.1-.23-.32s.07-.33.23-.33.11.11.11.33S137,148.89,137,148.89Zm-7.26,39.92h-1c0-.08.12-.15.35-.22h1C130.05,188.66,129.93,188.73,129.7,188.81Z"/><path class="cls-1" d="M120.26,164.47c0,2.81,1,4.11,3.11,3.89a14.07,14.07,0,0,1,2.41-3.13l3.11-3a10.77,10.77,0,0,1,1.39-1c0,.08.07,0,.23-.1l1.49-1c1.39-1,2-1.87,1.73-2.59,0-.07-.11-.22-.34-.44l-.35-.21h-4.15l-.69.43h-7.94c0,.07-.12.22-.35.43l-.69.44,1.73,4.32a1.89,1.89,0,0,0-.58,1A3,3,0,0,0,120.26,164.47Z"/><path class="cls-1" d="M134.42,136.13a8.36,8.36,0,0,0-1.26-3.89l-2.42-3.57-2.08-.65c-.84-.29-1.3-.72-1.38-1.3l-5.87-3.79a6.64,6.64,0,0,0-3.23-1.08c0,.8.58,1.77,1.73,2.92a.35.35,0,0,1,.23.11c.08.15.15.22.23.22a1.3,1.3,0,0,0,.46.43l.92,1a20.12,20.12,0,0,1,2.08,2.82,16.47,16.47,0,0,1,1.15,4.11,25.37,25.37,0,0,1,.23,3.67q0,1.41,2.07,2.49a6.88,6.88,0,0,0,3,.87Q134.42,140.46,134.42,136.13Z"/><path class="cls-1" d="M100.08,111.69l-2-1.3a5.66,5.66,0,0,1-1.39-1.94,7.73,7.73,0,0,0-3.91-.87c-.77,0-1.38.58-1.85,1.73S90.06,111,89.37,111l-1.26,1a7.9,7.9,0,0,1-1.39,1.08,4.53,4.53,0,0,1-3.22,1l-1-.43a3.63,3.63,0,0,0-.8.11A1.82,1.82,0,0,0,81,114c-.62.15-.93.18-.93.11s-.23,0-.46-.11a1.59,1.59,0,0,1-.57-.32c-.77-.07-2-.11-3.57-.11l-2-.11a11.36,11.36,0,0,1-1.84-.11q-4.38-.21-4.38-1.83l.46-1.3.92-3.68a26.76,26.76,0,0,1,2.77-6.06q.45-1.72-4.84-3.46a19.35,19.35,0,0,0-2.07-.65l-3.8-1.19a6.92,6.92,0,0,1-1.16-.54,2.68,2.68,0,0,0-1.61-.43,7.71,7.71,0,0,0-1.38.11l-2.19.43a17.27,17.27,0,0,1-2,.11l-2.53.43-.23.22c0,1.58,1,2.38,3,2.38a1.11,1.11,0,0,0,.58-.22,2,2,0,0,1,.81-.22,26,26,0,0,0,.23,3.36l.46,3.13-.23,1.95.23,4.33c.07,0,0,.29-.12.86l-.11,1.3a1.13,1.13,0,0,0-.81.33,3.07,3.07,0,0,0-.58.75l-9-.43H36.05l-1.27-.87-1.27-.64a8.89,8.89,0,0,1-1.15-.65,8.13,8.13,0,0,1-1.15-1.08,21,21,0,0,0-2.3.1,8.5,8.5,0,0,0-1.27.11l-3.11.43a9.83,9.83,0,0,0-2.07.33c-1.08.29-1.61.54-1.61.76s.46.86,1.38,1.51a4.12,4.12,0,0,0,2.3,1.08,2.4,2.4,0,0,1,1,.87,8.69,8.69,0,0,1,.69,1.4l.46,1.41a2.52,2.52,0,0,0,.35.86L27.3,129,27,130.4a11.65,11.65,0,0,0-.35,1.52v.32c.23.08.39.4.47,1v2.7a.31.31,0,0,1-.12.22v1.3c0,.57,0,.9.12,1l-.47,3.89c.47.15.23.58-.69,1.3l-1,.87a1.34,1.34,0,0,0-.35,1.08L25,146l-1.38,1.41a28,28,0,0,1-2.53,2.48v.76a.62.62,0,0,0,.69.54l3.91.65.23.22-.23,10.16a7.31,7.31,0,0,1-.23,1.74l-1.26,3.78a8.2,8.2,0,0,0-.35,2.27,12.78,12.78,0,0,1-.69,2.71l-.23.75a1.1,1.1,0,0,0-.23.65,5.76,5.76,0,0,0-.46,1.41A16.56,16.56,0,0,1,19,182.65a6.6,6.6,0,0,1-.46,2.16c-.23.87-.42,1.3-.57,1.3l-1-.22A7.78,7.78,0,0,0,15.78,187l-1.15,1.3a2.34,2.34,0,0,0-.46.54c-.77.87-1.46,1.59-2.08,2.17A16.34,16.34,0,0,1,10,192.82c-1.38,1.29-2.69,2.45-3.92,3.46s-1.76,1.37-1.61,1.08c-.08,0-.34.25-.8.76s-.77.75-.93.75c-.46-.07-1,.22-1.72.87s-1,.93-1,1.08q0,1.08.69,1.08c.23,0,.65-.29,1.27-.86l.57-.65a2.43,2.43,0,0,1,.58-.44q5.3-1.39,12.9-8.22l3.68-2.81q4.61-4.32,4.61-5a1.31,1.31,0,0,1,.35-.76l.69-.76c.61-.58.8-.93.57-1.08v-.22a9.92,9.92,0,0,1,1-1.29l1.15-1.3a4.71,4.71,0,0,0,1.27-3,44.34,44.34,0,0,0,3.45-18.28c0-.14-.15-.33-.46-.54l-.92-.76a5.55,5.55,0,0,1-.92-.86,2.24,2.24,0,0,1-.46-1.3c.38,0,.69-.33.92-1l.46-1.4H34v-7.14l.23-.65v-5.41l.34-.75.23-1.19c.31-.94-.09-2.92.14-2.92l.09-3.79-.11-3.79a6.58,6.58,0,0,1,.11-1.19l.23-1.08a3,3,0,0,0,.23-1,4.57,4.57,0,0,0,.12-1l2.53-2.28q3.23,0,6-.1l8.75-.76c1.77-.07,3.69-.11,5.76-.11l3.46.11a30.39,30.39,0,0,1,4.49.54l6.91-.33,3,.11a31.54,31.54,0,0,0,3.57.22,1.46,1.46,0,0,1,1-.33l3.11.33,2.07-.33.69.33h3.8l.35-.33a4.87,4.87,0,0,1,1.61-.21l1.5-.11.69.32h4.84a1.65,1.65,0,0,0,1.38-.86,2.69,2.69,0,0,0,.46-1.41l.23.33a1.09,1.09,0,0,0,.58-.87,3.79,3.79,0,0,0,.11-1.08C102.5,113.71,101.7,112.7,100.08,111.69ZM25,148.79c-.15,0-.23-.07-.23-.21,0-.29.08-.44.23-.44s.12.15.12.44Q25.11,148.79,25,148.79Zm0-1.51c-.15,0-.23-.11-.23-.33s.08-.32.23-.32.12.11.12.32S25.07,147.28,25,147.28Zm-7.25,39.91h-1c0-.07.12-.14.35-.22h1C18.08,187.05,18,187.12,17.74,187.19Zm12.32-53c-.16,0-.23-.11-.23-.32s.07-.33.23-.33.35.11.35.33S30.29,134.19,30.06,134.19Zm10.71-16.76-.11.21v-1l.23.65ZM65.88,105.2h-.35l.35-.21Zm13.59,9.52c0-.29.07-.43.23-.43s.11.14.11.43,0,.22-.11.22S79.47,114.87,79.47,114.72Zm.57,2.6c-.23,0-.34-.11-.34-.33s.11-.32.34-.32.23.11.23.32S80.2,117.32,80,117.32Zm.69-.33c-.23,0-.34-.07-.34-.21,0-.29.11-.44.34-.44s.24.15.24.44Q81,117,80.73,117Zm8-2.27c-.15,0-.23-.11-.23-.32s.08-.33.23-.33.12.11.12.33S88.76,114.72,88.68,114.72Zm4.84-3v-.21l.69.21Zm1.15,4.65h-.46V116h.46Zm0-4.22,1.38,1.3A1.38,1.38,0,0,1,94.9,113,1.5,1.5,0,0,1,94.67,112.12Zm1.38,4.55c-.23,0-.34-.11-.34-.33s.11-.32.34-.32c.08,0,.12.11.12.32S96.13,116.67,96.05,116.67Zm0-1.73c-.23,0-.34-.07-.34-.22s.11-.43.34-.43c.08,0,.12.14.12.43S96.13,114.94,96.05,114.94Zm1.38-2.17H97v-.43h.46Zm.23,1.3h1.16c0,.44-.39.65-1.16.65Zm.81,2.6-.11-.33.11-.21c.23,0,.35.07.35.21S98.7,116.67,98.47,116.67Zm1.5.54a.71.71,0,0,1-.46.11h-.69l.57-.65a1.13,1.13,0,0,1,.81-.33A1.21,1.21,0,0,1,100,117.21Z"/><path class="cls-1" d="M8.29,162.85c0,2.82,1,4.11,3.11,3.9a14.42,14.42,0,0,1,2.42-3.14l3.11-3a10.68,10.68,0,0,1,1.38-1c0,.07.08,0,.23-.11l1.5-1c1.38-1,2-1.88,1.73-2.6,0-.07-.12-.21-.35-.43l-.34-.22H16.93l-.69.44H8.29c0,.07-.11.21-.34.43l-.69.43L9,160.91a1.85,1.85,0,0,0-.57,1A3,3,0,0,0,8.29,162.85Z"/><path class="cls-1" d="M8.18,123.27c.07.14.15.21.23.21a1.26,1.26,0,0,0,.46.44l.92,1a18.68,18.68,0,0,1,2.07,2.81A16.29,16.29,0,0,1,13,131.81a24.16,24.16,0,0,1,.23,3.68c0,.94.7,1.77,2.08,2.49a7,7,0,0,0,3,.86q4.15,0,4.15-4.32a8.31,8.31,0,0,0-1.27-3.9l-2.42-3.57-2.07-.65c-.85-.28-1.31-.72-1.38-1.3l-5.88-3.78a6.61,6.61,0,0,0-3.22-1.08c0,.79.58,1.77,1.73,2.92A.33.33,0,0,1,8.18,123.27Z"/><path class="cls-1" d="M61,160a1.79,1.79,0,0,0-.52-1.14l-.52-4.39-.17-.38c0-.19.23-.52.69-1a3,3,0,0,1,.61-.57,2.57,2.57,0,0,1,.78-.43,2.21,2.21,0,0,1,.52-.28,1.32,1.32,0,0,0,.35-.15l.34-.14a2.07,2.07,0,0,0,.61-.28.69.69,0,0,0,.26-.48c0-.67-.87-1.29-2.6-1.86a3.34,3.34,0,0,1-.52-.14l-1.3-.43c-.52-.19-.78-.36-.78-.52a2.85,2.85,0,0,1-.78-.24L56.56,147a2.13,2.13,0,0,0-.78-.05l-3.12,1.71-1.13.29a9.19,9.19,0,0,1-1,.19l-.52.1c-.52,0-1,0-1.48,0l-2.86.24-.69-.09a2.47,2.47,0,0,1-1.21-.77,3.38,3.38,0,0,0-1.48-.42,5.3,5.3,0,0,0-.86,0H40.7c-2.43,0-3.56.44-3.38,1.33l1.56,1a4.92,4.92,0,0,1-.09.91l-.61,2.14c0,.51-.08,1.08-.08,1.72a8.07,8.07,0,0,0,.17,1.33,3.35,3.35,0,0,1,.09,1.24,5.57,5.57,0,0,0-.52,1.57,15.27,15.27,0,0,0-.26,2.62l.26,6.57a1.83,1.83,0,0,0,1.56.86c2.08,0,3.29-.8,3.64-2.38a7.56,7.56,0,0,0,.08-2L43,163.1a4.26,4.26,0,0,1,2.86-.9l1.38,0,3.9-.29c.58,0,1,.5,1.39,1.48a1.84,1.84,0,0,0,1.91,1.48,3.79,3.79,0,0,0,1-.15,6.3,6.3,0,0,0,.78-.28l.43-.19a1.44,1.44,0,0,1,.43-.15,4.57,4.57,0,0,1,1-.28c1.91-.6,2.86-1.46,2.86-2.57ZM41.22,149.48q-.18,0-.18-.09c0-.13.06-.19.18-.19s.08.06.08.19S41.27,149.48,41.22,149.48Zm12.22,6.38a14.86,14.86,0,0,1-.26,3c-.29.6-1.54.92-3.73,1H47.28c-.63,0-.92.09-.86.19l-2.08.09a2.09,2.09,0,0,1-2.17-1.38,4.78,4.78,0,0,1-.26-1.28l-.09-.67a2.67,2.67,0,0,0-.08-.67l.26-4.19c.28-.5,1.61-.84,4-1,.87-.06,1.88-.11,3-.14h2.6a1.23,1.23,0,0,1,1,.76,6.05,6.05,0,0,1,.52,1.76,16.66,16.66,0,0,1,.26,1.77Z"/><path class="cls-1" d="M99.45,147.43,98,146.91a4,4,0,0,1-.78-.29,2.68,2.68,0,0,0-.78-.28A9.9,9.9,0,0,0,95.2,146l-1.38-.38a5.51,5.51,0,0,0-2.86.81,1.6,1.6,0,0,1-.26.19l-1,.52a6.56,6.56,0,0,1-1.39.48l-6.24.28a3.33,3.33,0,0,0-.78.1,4.39,4.39,0,0,0-.69.19.31.31,0,0,0-.18,0l-.43.14a2.33,2.33,0,0,1-.52.09,7.5,7.5,0,0,1-2.43-.66L76,147.34a2.18,2.18,0,0,0-1-.14l-.86-.38a3.47,3.47,0,0,0-1.22-.2,9.2,9.2,0,0,0-1.82.2c-.75.12-1.18.28-1.3.47s.18.19.52.38.52.32.52.38.09.18.26.34a3,3,0,0,0,.44.43,2.41,2.41,0,0,1,.43.42c.17.16.26.27.26.34l-.35.85a1.78,1.78,0,0,1,.26.81l.09,1.19a6.45,6.45,0,0,0,.52,2.58v.19c-.12.09-.2.46-.26,1.09a20.33,20.33,0,0,0-.09,2.14v3.81a15.53,15.53,0,0,1-.52,3.72,1.59,1.59,0,0,1-.34.38c-.23.25-.35.41-.35.48a2.87,2.87,0,0,0,.09.66,3.1,3.1,0,0,0,.52.91,2.43,2.43,0,0,0,2.16,1,10.36,10.36,0,0,0,4.16-2.86l.35-4.48a4.17,4.17,0,0,1,1.3-.38c.58-.12,1.3-.23,2.17-.33q2.42-.24,3.81-.24h1.56a2.61,2.61,0,0,1,1,.19c.41.26.61,1,.61,2.1a.6.6,0,0,1,.26.33V164a.36.36,0,0,0,.09.24,1.12,1.12,0,0,0,.34.52,3,3,0,0,0,1.13.48,1.37,1.37,0,0,0,.52-.1l.43-.09a.49.49,0,0,1,.35.09,23.31,23.31,0,0,0,3.9-1.57c1.38-.76,2.08-1.44,2.08-2.05l-.09-3.95a18.63,18.63,0,0,1-.17-2.24,5.17,5.17,0,0,0-.09-.95l-.17-.86a1.72,1.72,0,0,1-.09-.52,2.57,2.57,0,0,1-.09-.67c0-.54-.08-1.16-.08-1.86,0-.25.57-.58,1.56-1s1.3-.74,1.3-1.09A1,1,0,0,0,99.45,147.43ZM75,167.77c-.11,0-.17,0-.17-.1s.06-.19.17-.19.26.07.26.19S75.19,167.77,75,167.77Zm.09-.76a.3.3,0,0,1-.09-.19c.35,0,.52.09.52.28A.66.66,0,0,1,75.1,167Zm1.3-6.19c0-.13.06-.19.17-.19s.26.06.26.19-.08.09-.26.09S76.4,160.88,76.4,160.82Zm.52,6.09c-.17,0-.26,0-.26-.09s.09-.19.26-.19.09.06.09.19A.08.08,0,0,1,76.92,166.91Zm2.86-17.62c.11,0,.17.07.17.19s-.06.1-.17.1-.17,0-.17-.1S79.66,149.29,79.78,149.29Zm9.62,9.34a6.28,6.28,0,0,1-2.77.85,19.11,19.11,0,0,1-2.95.19l-3.64.38a3.61,3.61,0,0,1-1.56-.14c-.58-.16-.87-.4-.87-.71L78,158c0-.54,0-1.14-.09-1.81l-.34-3.48c-.06-.63-.09-1.22-.09-1.76.23-.48,1.18-.78,2.86-.9l3.38-.29a8.23,8.23,0,0,0,1-.14,15.73,15.73,0,0,0,1.73-.1,7.3,7.3,0,0,0,1.13-.19c.58,0,1,.38,1.3,1.14a8.09,8.09,0,0,1,.52,2.72c.06.86.09,1.9.09,3.14Zm6.24,1.61-.26-.19h.26Z"/><path class="cls-1" d="M84.89,128.24a2.68,2.68,0,0,1,1-1,2.18,2.18,0,0,1,.52-.29l.52-.23c.35-.16.55-.32.61-.48v-1.05a16.36,16.36,0,0,0-3-.81,8.7,8.7,0,0,1-.95-.19l-2.08-.43-.61-.28a.22.22,0,0,0-.17-.1,1.67,1.67,0,0,0-.78-.19,5.57,5.57,0,0,0-1.82.33L75,125.1a3.78,3.78,0,0,1-1.47.33l-1.39-.05a1.34,1.34,0,0,0-.78.15h-5.2l-6.93.19-.35-.19a1.59,1.59,0,0,0-.34-.38c-.29-.26-.44-.42-.44-.48-.86-.22-1.76-.43-2.68-.62a16.89,16.89,0,0,0-2.77-.33,8.79,8.79,0,0,0-2.08.38,4.86,4.86,0,0,0-1,.38c-.24.16-.32.32-.26.48l3.12,1.71-.26,2.76.26,4.67c-.24.13-.35.27-.35.43l.09.47-.26.43a.79.79,0,0,0,.08.34l.09.33a1,1,0,0,1,.09.43v.76a3.27,3.27,0,0,0-.52,2.43v1.09a.63.63,0,0,0,.08.34,6.23,6.23,0,0,1-.08,1.14v.33l.17.43a1.65,1.65,0,0,0,.87.67h-.52c0,.13.17.24.52.33s.52.23.52.38a8.75,8.75,0,0,0,1.47-.14,13.45,13.45,0,0,0,2.08-.52c1.67-.64,2.51-1.56,2.51-2.77l-.08-1.71a1.29,1.29,0,0,1,.17-.71.78.78,0,0,1,.43-.43h1.65c1,0,1.85,0,2.6-.05,1,0,1.87-.08,2.51-.14s1.16-.15,1.21-.24H70l4.5-.14c.18-.16.44,0,.78.38a.62.62,0,0,0,.18.24l.17.23a.54.54,0,0,0,.43.15l-.17.14a3,3,0,0,0,.43,1.9A2.92,2.92,0,0,0,79,141.86a7.34,7.34,0,0,0,4.07-1.47c1.45-1,2.17-1.8,2.17-2.53v-3a8.12,8.12,0,0,0-.17-1.71l-.18-.62a1.36,1.36,0,0,0-.17-.53c0-.12,0-.2-.09-.23l-.17-.67a6.09,6.09,0,0,1,.43-2.86Zm-31.45,6.91h-.26V135h.26Zm.26.71q-.18,0-.18-.09c0-.13.06-.19.18-.19s.08.06.08.19S53.75,135.86,53.7,135.86Zm22.61-1.57a1.35,1.35,0,0,1-1,.86,74.15,74.15,0,0,1-10.92.71c-.29,0-.61,0-.95,0l-1.91.33c-.4,0-.78,0-1.13,0-1,0-1.56-.19-1.73-.57a31.39,31.39,0,0,1-.95-4,20.14,20.14,0,0,1-.43-4,1.19,1.19,0,0,1,.69-.53l.61-.19a4.57,4.57,0,0,0,.78-.33l.51.19h9.88c.7-.09,1.48-.16,2.34-.19h2.34c.81.29,1.27.71,1.39,1.29v1.28l.17.48a20.09,20.09,0,0,0,.18,2.28l.17,1.48Zm4.77,5.57v-.14h.26l.26.14Zm1.3.72c-.12,0-.17-.05-.17-.15s.05-.14.17-.14.17.05.17.14S82.49,140.58,82.38,140.58Z"/><polygon class="cls-1" points="330.7 80.17 330.7 79.91 330.43 79.91 330.7 80.17"/><path class="cls-1" d="M309.06,12.3a.49.49,0,0,1-.25.37,5.87,5.87,0,0,0,4,1.59,6,6,0,0,0,2.09-.39,8.35,8.35,0,1,0,0-11,6,6,0,0,0-2.09-.38,5.87,5.87,0,0,0-3.62,1.24,16.87,16.87,0,0,0,2.42.43,3.81,3.81,0,0,1-3.1.19,5.9,5.9,0,0,0-.07,8Zm18.88-3.71c0-.62.88-.07,1,0C329,9.2,328.1,8.67,327.94,8.59Zm-.15-2.95c.46-1.5.46,1.5,0,0Zm.8,1.14c0,.38-.49.3-.8.39C327.8,6.8,328.28,6.87,328.59,6.78ZM317.28,10.6c.65-.11.7.36,1.21.38C318.65,11.72,316.65,11.53,317.28,10.6Zm4.89-1.76c-.51-.83-1.94-.41-2.36-.74.54-.89,2.82-.15,2.36-2C323.5,6.71,321.64,7.48,322.17,8.84Zm2.38-3.57c1.36-.27.47.63.41,1.13A1,1,0,0,1,324.55,5.27Zm-.8.37c-1.56.79-2-1-4.05-.76C320.55,3.92,323.36,4.14,323.75,5.64Zm-5.26-1.52c1.92,0,0,1.8,0,0Zm0,4c-1-.29,1-.29,0,0Zm-1.84-5.44c-.63-.83.88.59,0,0Zm0,.5c.35.07.21.61.27,1C316.31,4.07,316.31,3.48,316.66,3.16Zm.62,1.72c-1.75.07-1.81-.64-4-.76C314.08,3.35,317.14,3.72,317.28,4.88Zm-4-1.24c-.27,0-.22-.3-.27-.48C313.24,3.16,313.19,3.46,313.26,3.64Zm.25,2.48c-.3,0-.13-.13-.25-.25C312,4.7,314.7,6,313.51,6.12Zm-1.84-.5c.52-.18.7,0,.53.5C311.69,6.3,311.51,6.13,311.67,5.62Zm5.77,2.72c1.39.15,3.29-.27,4.46.74-2.28,2.36-10.21-.11-11.54-1.73C311.83,6.85,314.72,8.06,317.44,8.34Z"/><path class="cls-1" d="M243.94,166.07a5.15,5.15,0,0,0-1.76.59,7.28,7.28,0,1,0,1.34,9.53,5,5,0,0,0,1.85.09,5.15,5.15,0,1,0-1.43-10.21Z"/><path class="cls-1" d="M383,175.63a6.24,6.24,0,0,0-3.67,1.19c-.1-.23-.21-.46-.32-.69-.16.14-.49.12-.73.18,0-.3.34-.31.63-.35a10,10,0,0,0-18.81,3.85,5.19,5.19,0,1,0-4.05,8.43H383a6.31,6.31,0,1,0,0-12.61Zm-4.31,7.16c-1.27-1.26,1-2.37,0,0Z"/><path class="cls-1" d="M138.64,21.07a24.38,24.38,0,0,0-3.54.26c1.05.51,2.19.94,2.21,2.42a5.2,5.2,0,0,1-2.92-2.3,24.69,24.69,0,0,0-20.45,24.32,24.29,24.29,0,0,0,.25,3.43,18,18,0,0,0-1.94-.4s0,.05,0,.09a1.22,1.22,0,0,1-1-.23,19.84,19.84,0,0,0-2.33-.14A20.34,20.34,0,0,0,96.24,53,16.15,16.15,0,0,0,71.92,63.91a11.52,11.52,0,0,0-6.38,20.28A6.43,6.43,0,0,0,63,87.94a2.76,2.76,0,0,0,.72-.19c.1.63-.28.81-.84.82a7.34,7.34,0,0,0-.05.81,6.4,6.4,0,0,0,12,3.09,7.23,7.23,0,0,0,3.22.75,7.36,7.36,0,0,0,7.14-5.61,12.84,12.84,0,0,0,12-2,20.37,20.37,0,0,0,29.25-6.15,15.33,15.33,0,0,0,3.47.42,14.89,14.89,0,0,0,14.07-10A24.7,24.7,0,0,0,163.3,46.61a.49.49,0,0,0-.13,0,.59.59,0,0,1,.14-.19c0-.21,0-.42,0-.64A24.7,24.7,0,0,0,138.64,21.07ZM64.57,88.51c.06-.45.73-.32,1.21-.38C65.71,88.57,65,88.44,64.57,88.51Zm47.69-39.25c.64-.1.69.37,1.21.39C113.63,50.39,111.63,50.2,112.26,49.26Zm2,1.92c1.92,0,0,1.78,0,0Zm1.62,1.9c.88-.07,1.29.31,1.21,1.14C116.22,54.29,115.82,53.91,115.89,53.08Zm8.49,8.76c0-.37.5-.3.81-.38C125.18,61.83,124.69,61.75,124.38,61.84Zm6.87-.38c1.11-1.94,2.73.88,3.23,1.9A11.06,11.06,0,0,1,131.25,61.46Zm4.45,3c.77.16,1.73.14,1.61,1.15C136.54,65.49,135.57,65.51,135.7,64.5Zm2,1.91c.47-1.51.47,1.51,0,0Zm.41-42.66c.32,1,2,.64,2,1.89A2.13,2.13,0,0,1,138.12,23.75Zm1.21,43.81c1.36-.93-1,1.27,0,0Zm.81-41.15c1.54-1.79,3.14,2.16,4.85,2.66C143.41,29.67,142.21,26.62,140.14,26.41Zm9.11,6.32.59.16A.8.8,0,0,1,149.25,32.73Zm2.21,2.45c-.53-.15-.64-.68-1.22-.77C150.41,33.46,151.81,34.39,151.46,35.18Zm.81,1.13v-.75c.86-.18.76.53.8,1.14C152.74,36.62,152.67,36.31,152.27,36.31Zm3.23,2.28c-1.1.29-.82-.74-1.62-.75C154,37,155.8,37.75,155.5,38.59Zm7.27,7.25c-.82-.11-.79-1-1.62-1.14C161.23,44.06,163.07,44.87,162.77,45.84Zm-2.42-2.29c-.77,0-.29-1.25-1.21-1.14C158,41.77,161.2,42.11,160.35,43.55Zm-2.83-3c1.9.59.53,1.88,0,0Zm-1.61-.76c0-.37.49-.3.8-.38C156.7,39.73,156.22,39.66,155.91,39.75Z"/><path class="cls-1" d="M289.13,19.46c.31,0,.59.44.79,0C289.6,19.42,289.33,19,289.13,19.46Z"/><path class="cls-1" d="M357.3,150.2c-.52-.17-.7,0-.53.5C357.29,150.88,357.47,150.71,357.3,150.2Z"/><path class="cls-1" d="M288.49,15.53a10.54,10.54,0,0,1-.93,1,1.07,1.07,0,0,1,1.3,1C289.15,18.64,289,15.45,288.49,15.53Z"/><path class="cls-1" d="M344.35,100.88c.32-.08.81,0,.82-.38C344.85,100.59,344.37,100.51,344.35,100.88Z"/><path class="cls-1" d="M195.08,90.54a13.13,13.13,0,0,0,2.45.25,13.44,13.44,0,0,0,1.69-.12c-.52-1-1.05-2-1.48-2.88C196.86,88.71,196,89.62,195.08,90.54Z"/><path class="cls-1" d="M358.61,148.72a5,5,0,0,0-.69.08,2.55,2.55,0,0,1,.69.4Z"/><path class="cls-1" d="M213,35.48V35a3.62,3.62,0,0,0-.68.08A3,3,0,0,1,213,35.48Z"/><path class="cls-1" d="M401.8,121.85a44.15,44.15,0,0,0-15.21-33.39c.07-1.23.12-2.47.12-3.71A64.22,64.22,0,0,0,368.6,40a.72.72,0,0,1-.29,0,.57.57,0,0,1,0-.31A64.23,64.23,0,0,0,325.83,20.4c-.09.27-.17.53-.26.79a2.06,2.06,0,0,1-.14-.81c-1.05-.05-2.11-.08-3.17-.08A64.46,64.46,0,0,0,310,21.48a.92.92,0,0,1,0,.16.53.53,0,0,1-.25-.12l-.49.09a26.62,26.62,0,0,0-11.48-6.85h0c-.38.13-.57.07-.58-.18a27.1,27.1,0,0,0-3.84-.72c-.77.31-2.11.15-1.34,1.39-.91-.26-1.22-1.81-2.37-1.24a2.92,2.92,0,0,1,.14-.31,27.08,27.08,0,0,0-2.88.22c-.23.78-1.18,1.47-.78,1.74l-.78.26c0-.83.66-1.21.54-1.86a26.57,26.57,0,0,0-10.75,4.38A36.45,36.45,0,0,0,230,18.8a28.91,28.91,0,0,0-43.52,19.45c.67-.56.93-.49.8.22,0,.22-.81.06-1,0l.12-.11a20.6,20.6,0,0,0-11.3,36.27,11.44,11.44,0,0,0,6.33,20.74,5.53,5.53,0,0,1-2.46-1.91c2.55.52,5.37.13,7.94.68a11.47,11.47,0,0,0,4.89-4.69,13.43,13.43,0,0,0,2.79,1,59.16,59.16,0,0,1,10-11.2,50.29,50.29,0,0,1-6.69,8.36,8.61,8.61,0,0,1,2.44,2.87,13.18,13.18,0,0,0,10-9.73A23.16,23.16,0,0,0,217.74,82h.06a47.47,47.47,0,0,0,17,36.37,26.63,26.63,0,0,0,3.66,27.86,2.24,2.24,0,0,0,.86,0c0,.32-.19.42-.51.42a27.13,27.13,0,0,0,6.78,5.71l2.86-5a4.75,4.75,0,0,1,.48-1.8,17.4,17.4,0,0,1,1.45-3.12,5.79,5.79,0,0,1,.91-1.7,6.08,6.08,0,0,1,.9-1.69l1.49-2.94a51.67,51.67,0,0,0,8.3-17.72,7.3,7.3,0,0,1,.57-2.39l2.43-4.44a11,11,0,0,0,.71-1.66,30.44,30.44,0,0,0,1-3.24q1.43-6.54,2.46-15.3l1.13-7.07a37,37,0,0,0,0-10.86c-1.88-3.59-3.84-5.39-5.86-5.4l-2.86,1c-.31.3-.82.76-.18.09l.05,0-3.87,1.35a71.25,71.25,0,0,0-7.19,1.71l-8.53,3.28a12.71,12.71,0,0,1-2.67.88,36.07,36.07,0,0,1-6,1.67,6.84,6.84,0,0,1-1.88-1.37l-1.78-2a14.12,14.12,0,0,1-1.69-2.54,1.63,1.63,0,0,1,1.43-2.17l3.55-1.15c-.56-1,.88-1.68.43-.14l4.25-1.37a132,132,0,0,1,13.92-3.71l1.7-.69,5.69-1,6.2-2.66a8.28,8.28,0,0,0,3.3-1.94c1-1,1.14-3.7.3-8.25a83.51,83.51,0,0,0-2.15-9.51,27.23,27.23,0,0,0-2-4.12,7.27,7.27,0,0,0-2.12-1.46,1.6,1.6,0,0,1,1.16,0,20,20,0,0,0-2.17-2.63l-3.62-2a5.72,5.72,0,0,1-1.8-1,2.71,2.71,0,0,1-1.09-1.52c-.14-.73.53-1.87,2-3.41A9,9,0,0,1,261,20.62a16.66,16.66,0,0,1,7.33.18l1.31.52,4,.78,1.12.56c1,.45,2.3,1.1,3.81,2a19.22,19.22,0,0,1,2,1.15L282.43,27a8,8,0,0,1-.33,4.82l-1.71,3.94Q279,39,280.6,47.87a5.4,5.4,0,0,0,.66,1.4,5.56,5.56,0,0,1,.66,1.4,3,3,0,0,1,.28,1.47,1,1,0,0,0,.33.71q.25.33,2.22,0a6.22,6.22,0,0,0,4.89-4.33,15.4,15.4,0,0,0,2.63-2.2l1.46-2a3.06,3.06,0,0,1,.69-.7,9.67,9.67,0,0,1,5.76-3.92l6.14,2.49q3.23,2.07,4.14,7c.84,2.15,0,4-2.54,5.43a.71.71,0,0,1,.08.15c-.05.3-.19.21-.31,0a13.83,13.83,0,0,1-1.54.74A35.26,35.26,0,0,1,301.34,57l-2.12.58a6.88,6.88,0,0,0-1.73.51l-10.9,4.68a4.69,4.69,0,0,0-2.53,3.89v2.28l.34,1.85q.81,4.41,1.89,9.17L290,95.66q1,4.2,1.58,7.52c.84,4.54,1.15,7.72,1,9.54l6.85,37.22a9.38,9.38,0,0,1,.62,1.27c.55,0,1.31.52,1.11,1.09a.8.8,0,0,1-.71-.05,20.47,20.47,0,0,1,.78,3.07,13.49,13.49,0,0,1,.16,3l-.66,5.26-.11,8.21-.34,2.54c-.06,1.16-1.06,2.73-3,4.74s-3.65,3.34-5.22,3.63c-.52.1-1.12-.24-1.8-1a3.64,3.64,0,0,1-1.16-1.88q-.81-4.43-1.2-7.59a38.73,38.73,0,0,1-.55-4.09l-.32-3.94c-.25-2.12-.61-4.46-1.09-7l-2.54-13.82c-.41-2.18-.72-4.21-1-6.12a4.4,4.4,0,0,1-2.71-2.84c.73.65,1.87.91,2.58,1.57l-.29-4.55L280,118.64q-1.65-6.73-3.81-6.35A7.18,7.18,0,0,0,273.3,114a1,1,0,0,1-.19,1.17,2.17,2.17,0,0,1-.65.89l-.65.88q-2.31,2.89-2,4.74l-.91,1.69A7.77,7.77,0,0,0,268,125l-1.65,3.16c-1.19,2.38-2.24,4.35-3.17,5.92a148.08,148.08,0,0,1-8.72,13.22,7.66,7.66,0,0,0-1.17,1.36l-4.12,5.45c.46.19.93.33,1.4.49a.93.93,0,0,1,.22.08,28.84,28.84,0,0,0,2.8.76A50.72,50.72,0,0,0,349,165.34a44.84,44.84,0,0,0,8.49.82A44.31,44.31,0,0,0,401.8,121.85Zm-2.56,6.85c-1-.29,1-.29,0,0Zm-.52,4.94c-.25,0-.2-.3-.26-.49C398.72,133.16,398.67,133.46,398.72,133.64Zm-5.5,3.22c-.87-.37,1-.62,0,0Zm-.52-14.34c-.88-.36,1-.61,0,0Zm-2.62,18A1,1,0,0,1,389,141.8C389.56,141.57,389.25,140.53,390.08,140.57ZM168.84,52.32c0-.37.49-.3.8-.38C169.63,52.31,169.15,52.23,168.84,52.32Zm.8.76c0-.38.5-.3.81-.38C170.44,53.07,170,53,169.64,53.08Zm8.09.38a.78.78,0,0,0,0,1.14C177.61,55.13,175.31,53.46,177.73,53.46Zm-1.62,5.33c-.17.55-.35,0-.81,0C175.4,58.31,176.11,58.41,176.11,58.79Zm-1.62,33.15c1.38.35,2.75.71,4,1.14C178.05,94.71,174.56,93.17,174.49,91.94Zm5.66-27.81c0-.38.49-.3.81-.39C181,64.12,180.46,64,180.15,64.13Zm1.21-5.34c.47-1.51.47,1.5,0,0Zm.81,1.53c0-.38.49-.31.81-.38C183,60.31,182.49,60.23,182.17,60.32Zm30.3-33.22c-.26,0-.2-.3-.26-.49C212.46,26.62,212.41,26.92,212.47,27.1Zm-1.05,1.48c-.63-.82.88.6,0,0Zm-1.58-3.45c-1-.29,1-.29,0,0Zm0,1.23c-.24,0-.2-.3-.25-.49C209.84,25.87,209.79,26.17,209.84,26.36Zm-.51,2a1.25,1.25,0,0,0,.78.24.72.72,0,0,1-.78.49Zm.26,4.94c1.15-.15.9,1.34-.26,1C209.3,33.82,209.64,33.74,209.59,33.28Zm-1.31-4.7c.7.22-.13,1-.8.74C207.08,28.45,208.38,29.17,208.28,28.58Zm-8.91,1.73c-1.05-.28,1-.28,0,0Zm-6.57-4.2c-1-.29,1-.29,0,0ZM188.87,37c-.57,0-.56-.63-.53-1.24C189.11,35.71,189.15,36.75,188.87,37Zm.26-2.47c.26,0,.21.3.27.49C189.15,35,189.19,34.71,189.13,34.52Zm.79,3.46a.25.25,0,0,1,0-.5C190.3,37.59,189.89,37.7,189.92,38Zm.27-1.49c1,.75-.81.83,0,0Zm1.68,41.73c.46-1.51.46,1.51,0,0Zm-.9-41c-.78-.52.78-.89,1.57-.74C192.67,37.35,191.12,36.64,191,37.23Zm.26-1.48c.26,0,.21.3.26.49C191.24,36.24,191.29,35.94,191.23,35.75Zm1.85,44c.47-1.5.47,1.51,0,0Zm1.62-1.9c0-1.79,1.92,0,0,0Zm.46-40.36c.26,0,.21.3.26.5C195.17,38,195.23,37.68,195.16,37.48ZM193.48,74a7,7,0,0,1,1.22,2.67C194,76.13,192.6,75,193.48,74Zm.41,6.86c1.57.42,2,1.9,2.43,3.43A8,8,0,0,1,193.89,80.89Zm3.24,5.33a1.62,1.62,0,0,1-.81-1.52C197,84.78,197.23,85.35,197.13,86.22Zm5.38-10.92c-.52.09-.38-1.13.26-.75A.55.55,0,0,1,202.51,75.3Zm8.13-37.57a1.43,1.43,0,0,0-1-1.57c-2-1-4.52-.89-6.64-.93a61.51,61.51,0,0,1-10.5-.8A1,1,0,0,1,191,35a1,1,0,0,1,1.18-.64c-.43-.09-2.07-.54-2.43-.59.69.11,2.7-.72,3.62-.71a30.18,30.18,0,0,1,7.55,1.13c3,.83,8.36,1.86,11.28.33-.23-.13-1.23-3,.39-1.59s.86,1.71,1.13,3.76C212,36.33,212.27,37.84,210.64,37.73Zm4.45-2.47c-.6-.2-1.3-1.85,0-1.73C215.5,34.24,214.6,34.17,215.09,35.26Zm.53-.5c-.66-.1,0-.95.52-.74C216.05,34.35,215.68,34.41,215.62,34.76Zm1-3.95c-.46.07-.46-1.39.26-1C217,30.33,216.75,30.48,216.66,30.81Zm17.37,104c.47-1.5.47,1.51,0,0Zm33.54-35c-.08.7-.48,1-1.21.76A.92.92,0,0,1,267.57,99.74Zm-8.89-3c.07.62-2.65.77-2-.38A2.79,2.79,0,0,1,258.68,96.69Zm-1.21-7.62c-.08.71-.48,1-1.21.76A.91.91,0,0,1,257.47,89.07Zm2,32.76c-1.1-1-3.42-.84-3.64-2.66C257,120.11,258.91,120.35,259.49,121.83Zm-4.44-28.57c0,.38-.51.3-.82.39C254.25,93.27,254.73,93.35,255.05,93.26Zm-.41,3.81c0,.37-.5.3-.81.38C253.84,97.08,254.33,97.15,254.64,97.07Zm0,22.1c-1.11.27-.82-.76-1.62-.77C253.15,117.59,254.94,118.32,254.64,119.17Zm-3.24-2.29c-.27,1.14-.86-.36-1.62,0C249.86,115.94,251.15,116.76,251.4,116.88ZM249,115.74c-1.48,1.34-2-1.44,0,0ZM245.75,94a2.06,2.06,0,0,1-2,.76C243.32,93.51,245,94.19,245.75,94Zm-1.62,19.42c0,1-1.37.12-1.61,0C242.57,112.51,243.88,113.35,244.13,113.45Zm-2.83-.76c-1.58.09-2.09-.82-3.23-1.14C238.53,111,241.19,111.64,241.3,112.69Zm-6.06-2.28c-.71-.35-2.17,0-2-1.15C233.92,109.62,235.39,109.25,235.24,110.41Zm-.8-8.76c.4,1.14-.91.67-1.62.76C233.08,101.89,233.68,101.7,234.44,101.65ZM219.35,17.27c.46-1.51.46,1.5,0,0ZM218,32.54c.29-.79,1.52-.7,2.35-1C220.14,33,218.88,32.13,218,32.54ZM264.9,45.39c-.09.8-.75,1.88-1.57,1.23C263.41,45.8,264.21,45.64,264.9,45.39Zm-1.3,5.19c.74.32-.21,1.1-.27,1.48C262.72,51.85,263.55,51,263.6,50.58Zm-4.92-16.36c-.18.55-.36,0-.81,0A.41.41,0,0,1,258.68,34.22Zm-1.12,15.62-.78.49C256.83,49.87,257.09,49.71,257.56,49.84Zm-1.31-.74c-.28.22-.08.91-.78.74C255.42,49.3,255.68,49.05,256.25,49.1ZM253.63,15c-1-.29,1-.29,0,0Zm-.52,4.94c-.26,0-.21-.3-.27-.49C253.1,19.45,253.05,19.74,253.11,19.93Zm-8.65,6.93a1,1,0,0,1-1.05,1.23C244,27.86,243.63,26.82,244.46,26.86Zm-5.3,2.21c1.35-.91-1,1.29,0,0ZM228.47,48.6a.72.72,0,0,1,.78-.5A.72.72,0,0,1,228.47,48.6Zm.51-1c.27-.34.72-.49.79-1C230.43,46.87,229.57,47.72,229,47.62Zm1.81,14c.47-1.5.47,1.51,0,0Zm1.9,1c0-.37.5-.3.81-.38C233.49,62.59,233,62.51,232.69,62.6ZM230.3,44.4a26.66,26.66,0,0,1,4.45-5.19C233.35,41,232.69,43.53,230.3,44.4ZM236.59,37c-.51.55.25-1,.26-1C237.79,35.81,236.59,37,236.59,37Zm.79-19c-.87-.36,1-.61,0,0Zm.28,12.45c0-.37.5-.3.82-.39C238.47,30.39,238,30.32,237.66,30.41Zm3.64.4a5,5,0,0,1-2.87,3.46A10.5,10.5,0,0,1,241.3,30.81ZM239.48,61c.58-1.1,2-1.44,3.14-2C241.89,59.94,240.54,60.32,239.48,61Zm2.88-2.47c-.76-.53.59-1.52,1-1.48C243.69,58.25,243.33,58.74,242.36,58.49Zm1.31,0c0-.82,1.57-1.6,1.57-.25C244.44,58.06,244.47,58.67,243.67,58.49Zm1.84-1c.25,0,.2.3.26.49C245.51,58,245.57,57.69,245.51,57.5Zm-2.19-28.23c.85-1.28,3.1-.88,4.45-.76C246.94,29.37,244.27,28.52,243.32,29.27Zm4.28-6.12c-.86-.37,1-.62,0,0Zm.57,5.74c.07-.45.74-.33,1.21-.38C249.32,29,248.64,28.83,248.17,28.89Zm3.1,17.73c.08-.4.18-.82.27-1.23,1.2.55,2-.09,2.36,1.23A10.52,10.52,0,0,1,251.27,46.62ZM253.43,30c1.19-1.44,1.59,1.38,0,0Zm1.62,2.29c0,.38-.51.3-.82.39C254.25,32.32,254.73,32.4,255.05,32.31ZM256.25,15c-.86-.37.55-.61.27-1.24C257.23,14,256.25,14.62,256.25,15Zm35,5.46c1.26,1.16-1.07,1.84-.26,3.21-1-.61-1.52-4.12-2.9-4.1a.94.94,0,0,0-.25,1.13c-2.2-3-1.15-5.14,2.35-5.92-1.52,1.08,1.26,5.77,2.89,5.18C292.23,21.26,292.5,20.92,291.23,20.45Zm1.83-.74c.27-.36,1.45-1.15,0-.74a.82.82,0,0,1,1.32-.24C294,19.15,293.83,19.69,293.06,19.71Zm5-.74c-1-.61.87-.36,0,0Zm-2.58-2.28c1-1.48.59,1.26,0,0Zm.22-1.18c-1-.29,1-.29,0,0ZM295.42,18c.6-.17.76.07.52.75C295.35,18.9,295.18,18.65,295.42,18Zm.26,13.34c.32-1.09,2.23-.69,2.89-1.48C299.26,31,297.16,31.41,295.68,31.32Zm3.68-11.61c-.51.17-.69,0-.53-.49C299.34,19.05,299.52,19.21,299.36,19.71Zm-.53-1.23c-.17-.91.46-.5.79-.5C299.78,18.57,299.52,18.74,298.83,18.48Zm2.37,1.23c-.27,0-.21-.31-.27-.49C301.18,19.22,301.13,19.52,301.2,19.71Zm0,8.65-.8.5C300.45,28.4,300.72,28.23,301.2,28.36Zm-.8,3c-.64-.31.52-2.71,1.05-1.45C301.72,30.52,300.54,30.9,300.4,31.32Zm1.05-3c.8-.92.88.75,0,0Zm.88-3.28c1.9,0,0,1.78,0,0Zm1.61-1.53c-.77-.28.93-1.38,1.62-1.52C305.86,23.32,304.07,22.65,303.94,23.55Zm.4,8.77q-.37-1.16.78-.75Q305.16,32.41,304.34,32.32Zm2.36-1.24c-.66.17-1.08-1.09-1.58-.25C304.08,30,306.91,30,306.7,31.08Zm.52,0c-1-.28,1-.28,0,0Zm2-9c-.06.44-.72.31-1.21.38C308.05,22,308.72,22.08,309.19,22Zm.12,6.58c-1-.29,1-.29,0,0Zm.27,3.46c-.47.09-.43-1.15.26-.75ZM256.65,161.46c.89-.07,1.29.31,1.22,1.14C257,162.67,256.59,162.29,256.65,161.46Zm1.22,1.52c.65-.11.7.36,1.21.38C259.25,164.1,257.24,163.92,257.87,163Zm2,1.91c1.92,0,0,1.78,0,0Zm1.62,1.9c.88-.07,1.29.31,1.21,1.14C261.84,168,261.44,167.62,261.51,166.79Zm8.49,8.76c0-.37.49-.3.8-.38C270.79,175.54,270.3,175.46,270,175.55Zm-1.62-48c1.92-.66,3.86,1.93,5.66,2.65C272,131,270.39,128.07,268.38,127.56Zm7.68,5.33c1.06-2.08,1.57,1.08,3.23.75C278.43,135.53,277.65,132.62,276.06,132.89Zm.81,42.28c1.1-1.94,2.73.88,3.23,1.9A10.93,10.93,0,0,1,276.87,175.17Zm4.44,3c.78.16,1.73.14,1.62,1.15C282.15,179.2,281.19,179.22,281.31,178.21Zm2,1.91c.47-1.5.47,1.51,0,0Zm1.62,1.15c1.35-.93-1,1.27,0,0Zm5.25,4.18a1.06,1.06,0,0,1,.81,1.15C289.73,186.63,289.46,186.25,290.2,185.45Zm2.83,2.67c1.46.79,3.17,1.33,3.64,3C295,190.57,293.54,189.81,293,188.12Zm5.66,4.19a1.85,1.85,0,0,1,1.62,1.53A1.85,1.85,0,0,1,298.69,192.31Zm60.21-80.38c1.6.12-.3,1.18.82,1.52C358.76,115,357.91,112.39,358.9,111.93Zm0-8c1.24-1-1.09,1.15,0,0Zm1.81,45c-.61-.2-1.3-1.85,0-1.73C361.12,148,360.22,147.88,360.71,149Zm.52-.5c-.65-.1,0-.95.53-.73C361.67,148.06,361.3,148.12,361.23,148.47Zm1-3.95c-.46.08-.47-1.38.26-1C362.66,144,362.36,144.19,362.28,144.52Zm1.31,1.73c.3-.79,1.53-.7,2.36-1C365.76,146.67,364.5,145.84,363.59,146.25ZM365,131c.46-1.51.46,1.5,0,0Zm6.87-42.29c-1-.15,0-1.47.81-1.14C372.5,88.05,371.93,88.15,371.84,88.69Zm2.24,73.62a.73.73,0,0,1,.79-.5A.73.73,0,0,1,374.08,162.31Zm.52-1c.27-.34.71-.49.79-1C376.05,160.58,375.18,161.43,374.6,161.33Zm1.32-3.22a26.66,26.66,0,0,1,4.45-5.19C379,154.73,378.3,157.24,375.92,158.11Zm1.83-39.05h.79c-.1.33-.46.39-.54.74C377.7,119.77,377.79,119.35,377.75,119.06Zm2.1,5.93H378.8c.34-.51.42-1.25,1.31-1.23C380.21,124.36,379.64,124.3,379.85,125Zm-.53-3.2c-1,.19-1-1.19,0-1Zm1.58,4.68c-.52.18-.7,0-.53-.49C380.89,125.81,381.07,126,380.9,126.47Zm1.31,24.23c-.52.55.24-1,.25-1C383.41,149.52,382.21,150.69,382.21,150.7Zm.79-19c-.88-.36,1-.61,0,0Zm4.6-16.7c-.18.56-.35,0-.81,0C386.89,114.5,387.6,114.59,387.6,115Zm-2.83,27.81c1.35-.91-1,1.29,0,0Zm2.15,1.74A5,5,0,0,1,384,148,10.41,10.41,0,0,1,386.92,144.52Zm-6.59-83.26c0,.38-.49.29-.82.38C379.53,61.27,380,61.35,380.33,61.26Zm-2.42.76c-1,1.23-1.64-1.33,0,0ZM366.74,51.59c.51-.17.69,0,.52.5C366.75,52.26,366.57,52.1,366.74,51.59Zm.26,4.2c-1-.28,1-.28,0,0Zm-.52,6.67c.59-.17.77.08.52.75C366.4,63.38,366.23,63.13,366.48,62.46Zm-1.05,6.18c.38.12,0,.23,0,.5A.25.25,0,0,1,365.43,68.64ZM351.79,37c.17.51,0,.67-.52.49C351.1,37,351.28,36.83,351.79,37Zm-4.71-11.37c1,.52-1,1.67-1.58,2.23C344.47,26.52,347,26.69,347.08,25.64ZM344,38c1.51-1.33,2.06,1,0,0Zm-1.33-1c.9.54.29,1.61-.53,1.73A1.8,1.8,0,0,1,342.62,37Zm-1.05-10.38c-.05.28-.48.2-.79.25C340.59,26,341.43,26.62,341.57,26.63Zm-1.05,4.2c-.87-.36,1-.62,0,0Zm-1.57.49c.51-.17.69,0,.52.5C339,32,338.78,31.83,339,31.32Zm-1.31-5.19c.11.52-.19.66-.27,1-.38-.21-.83-.36-.79-1Zm.78,5.44c0,.48-.87-.29-1.57,0C337.06,30.66,337.92,31.37,338.42,31.57ZM335.8,25.4c-.63-.83.88.59,0,0Zm-2.09-1.74c-1-.28,1-.28,0,0Zm-1-.25a.17.17,0,0,1-.08.14A.5.5,0,0,1,332.66,23.41Zm-.43,50.05c-.17.84-2.15.3-2.43,0C330.21,72.38,331.53,73.56,332.23,73.46Zm-1.94-40.9c-.25,0-.2-.3-.26-.49C330.29,32.08,330.23,32.37,330.29,32.56ZM330,23.41c-.39.88-2,.6-3.14.75C326.22,24.16,329.24,23.65,330,23.41Zm-1.31,15.33c-.56-.77-.16-2.35.79-2.47C329.91,36.89,329.66,38.61,328.72,38.74Zm-3.67-17c.86.6-.73,1.18,0,0ZM324.4,26c.42-.56,2.12-.72,2.74-.57C327.13,26.48,324.16,26.3,324.4,26Zm1.44,8.32c-1-.29,1-.29,0,0Zm-1.31,15.57c.43-.83.08-2.38.52-3.22C325.81,47,325.62,49.32,324.53,49.86Zm0,.75c-.64-.84.88.59,0,0Zm0,8.15c-1-.29,1-.29,0,0ZM324,46.16c-.26,0-.2-.31-.27-.5C324,45.67,323.94,46,324,46.16Zm-1.57-23.24c0,.54-.66.53-1.31.49A1.34,1.34,0,0,1,322.43,22.92Zm0,11.13c2,.36-.94-.18,0,0Zm-1.58-7.42c-1-.29,1-.29,0,0Zm-.26,1.24c-.25,0-.2-.31-.25-.5C320.59,27.38,320.54,27.67,320.59,27.87Zm-.78,16.8c-1-.28,1-.28,0,0Zm-1.31-18Zm0,2.26c0,.36-.49.29-.8.38C317.7,28.89,318.18,29,318.49,28.89Zm.79-5.48c1,.23-1.41,1.1-1,0C318.72,23.18,319.11,24.16,319.28,23.41Zm-1.57-2.22c.15.42.33.84.52,1.24h-.79Zm0,23c-.26,0-.21-.3-.27-.5C317.7,43.69,317.65,44,317.71,44.18Zm-1-20c-.87-.36,1-.61,0,0Zm-1,56.15c-.06-.44.1-.68.41-.76C316.13,80,316,80.23,315.66,80.31Zm-1.1-51.45c.39-.3.64-.72,1.31-.75A1.12,1.12,0,0,1,314.56,28.86Zm1.05-4c-.38.13-1.35-.29-1.31.25C313.51,24.76,315.78,23.37,315.61,24.9Zm-1.16,55c.21.14-1.84.34-2.38-.52C310.65,77.15,315,79.89,314.45,79.93Zm-1.21-3.05c1,1.28-1.36-.92,0,0Zm-.51-52c-.18.48-.7.66-1.32.74C311.32,24.89,312.27,25.12,312.73,24.9ZM309.6,73.83c1.91,0,0,1.8,0,0Zm-3.16,17.31a.74.74,0,0,1-.79.49A.7.7,0,0,1,306.44,91.14Zm-2.63,1.23c-.25,0-.2-.3-.27-.49C303.8,91.88,303.76,92.18,303.81,92.37ZM298.69,67c1.9,0,0,1.8,0,0Zm2.83,86.48c0-.37.5-.3.81-.38C302.32,153.45,301.84,153.37,301.52,153.46Zm.53-45.62-.39-4.16a21.52,21.52,0,0,0-4.9-10.36l-1.65-1.81-1.28-1.87a10.85,10.85,0,0,1-1.9-4.23q2.18-.39,3.12.66l.76,1.09a2.26,2.26,0,0,0,.76,1.09c0,.12.58.43,1.67.93s1.66.87,1.7,1.09l1.19,1.37a4,4,0,0,0,1.46.79,18.11,18.11,0,0,1,6.49,2.67L313,98.25a.5.5,0,0,1,.39.1l.92.89q1.1,3-2.13,7.78-2.79,4.22-3.87,4.41C304.71,112.1,302.62,110.9,302.05,107.84Zm1.08,46.38c1.91.59.54,1.88,0,0Zm2.84,3c-.77,0-.29-1.25-1.21-1.14C303.6,155.48,306.82,155.82,306,157.26Zm2.42,2.29c-.82-.11-.79-1-1.62-1.14C306.85,157.77,308.69,158.59,308.39,159.55Zm.4.76c.4-1,1.8.3,1.62,1.15C309.11,161.79,309.86,160.2,308.79,160.31Zm2.83,2.29Zm1.62,2.29c.1-.49.81-.39.81,0C313.87,165.44,313.69,164.84,313.24,164.89Zm1.21,1.14c0-.37.49-.3.8-.38C315.25,166,314.77,165.94,314.45,166Zm.8.76c0-.38.51-.3.82-.38C316.06,166.78,315.57,166.7,315.25,166.79Zm.73-38.27A76,76,0,0,0,325,108a11,11,0,0,1,.21-2.79L326.3,100a5.56,5.56,0,0,1,.44-1.4c.23-.82.29-1.27.19-1.34a3.84,3.84,0,0,1,1.3,1.45,3.91,3.91,0,0,1,.29,1.65l.1.9a2.89,2.89,0,0,1,.09.89,4.81,4.81,0,0,0,.39,1.5,104,104,0,0,1,4.69,13.63,4.72,4.72,0,0,1,.13,1.55l-.74,4.33a3.81,3.81,0,0,1,.83,3.24,3.34,3.34,0,0,1-.53,1.54,5.45,5.45,0,0,1-.6,1.29q-5.76,9.09-13.46,6.5Q314,132.71,316,128.52Zm18.51,12.78c-.1.33-.46.39-.53.75C333.31,142,334,141.09,334.49,141.3Zm-4.72,2.23c-.26,0-.2-.31-.26-.5C329.76,143,329.71,143.34,329.77,143.53Zm-8.85,29c.09-.48.8-.38.8,0C321.55,173.05,321.38,172.46,320.92,172.5Zm2.42-4.19c-.11.53-2.41-1.14,0-1.14A.78.78,0,0,0,323.34,168.31Zm.14-16.87c-.32-.09-.22-.65,0-.74C324.05,150.48,324.09,151.61,323.48,151.44Zm2.29,26.4c0-.38.49-.3.81-.39C326.57,177.83,326.08,177.75,325.77,177.84Zm1.2-5.34c.48-1.51.48,1.5,0,0Zm.82,1.53c0-.38.49-.3.8-.38C328.58,174,328.1,173.94,327.79,174Zm27.49-24.16a7.57,7.57,0,0,0-1.58-.55,12.21,12.21,0,0,0-.89,1.81l-.95,3.06c-1,2.55-2.17,3.82-3.52,3.82a3.65,3.65,0,0,0-1.5.38l-2.17,1.15a1.61,1.61,0,0,1-.68.38,2.68,2.68,0,0,1-1.35.39,12,12,0,0,1-4.61.63,1.87,1.87,0,0,1-1.5-1q-4.33-10.32-14.78-10.32c-.19,0-.27-.12-.27-.38v-.76l3.66-.77a29.52,29.52,0,0,1,5.56-.76l3.93.12c1.33,0,2.41,0,3.26-.09a5.08,5.08,0,0,1,1.06-.18l.5,0c2-.27,3.31-.86,4-1.79a55.23,55.23,0,0,0,2-13.89q.13-2.92,0-7.52v-8.15l.4-1q0-2.67-.4-7l-.14-1.53a10.25,10.25,0,0,1-.13-1.52l-.14-2.3,0-.13c-1.14-.35-3.52-2.48-1.15-1.83-.26-1.14-1.95.2-1.21-1.53a4.13,4.13,0,0,1,2.69.27l-.35-3.66.41-2.67-.41-7Q343.31,83,337.75,83c-3.52,0-6.69.09-9.49.26a36,36,0,0,0-8.14,1.27c-.18,0-.46-.25-.82-.76a9.55,9.55,0,0,1-1.08-1.66,8.62,8.62,0,0,1-1.36-3.44c0-.49.49-.83,1.45-1a.72.72,0,0,1,.19-.34c.09,0,.15.13.17.29.27,0,.57-.07.91-.09l4.61.13a12.91,12.91,0,0,0,1.76-.38l1.49-.38h5.84a25.93,25.93,0,0,1,2.85-.64,5.57,5.57,0,0,1,1.22-.13,3.87,3.87,0,0,1,1.08-.13l2-.25a4.48,4.48,0,0,0,1.62-.51A4.54,4.54,0,0,0,344,72a34.54,34.54,0,0,0,.68-8.16c0-2.55,0-4.54-.13-6a1.33,1.33,0,0,1-.14-.63l-.13-1.53c.18,0,0-.85-.55-2.55-.22-.81-.46-1.58-.71-2.3a1.29,1.29,0,0,1-.39.23c-.54-.37,0-.51.31-.43-.22-.65-.46-1.26-.7-1.83a2.41,2.41,0,0,0-.54-1.28,17.6,17.6,0,0,0-1.36-1.4,3.34,3.34,0,0,0-.81-.76.84.84,0,0,0-.41-.38l-2.17-2q1.21-3.82,6.51-3.82a9.86,9.86,0,0,1,5.29,1.52,11.92,11.92,0,0,0,3,1.66q1.49.77,4.74,2l2.31.89a20.27,20.27,0,0,1,1.9.89c1.27.6,1.9,1,1.9,1.15l-.41.76-6.51,6.12V68.13c.13.06.16.22.07.51l-.07,0v3.1q0,2.8,3.26,2.8a12.81,12.81,0,0,0,6-1.65l3.79-2.55L371,68.58a2,2,0,0,1,1.36-.64l2.71.76A5,5,0,0,1,377.23,70q-.14.88,3.12,3.18l1.22,1a12.09,12.09,0,0,1,1.09,1.15,5.62,5.62,0,0,1,1.08,3.31,2,2,0,0,1-.54,1.27c-.36.51-.73.77-1.09.77H361.36q-4.49,0-5.7,2.55c0,3.48.09,6.67.27,9.55l.14,4.72-.41,1.14.41,1.53.4,23.44-.4,14.53-.41,3.18v1h.07c0,.05-.05.09-.07.13v4.63c.47.21.33.9-.28,1a1,1,0,0,1-.26.18l-.27.13a.36.36,0,0,0-.27.13l-.55.38-.13.18a8.86,8.86,0,0,0,3.89-.77c-.23-.14-1.23-3,.39-1.6s.86,1.71,1.13,3.76c-1.69-.37-1.42,1.14-3.06,1A1.43,1.43,0,0,0,355.28,149.87Zm-17.8-45.18c1.21,0,1.38,1,2.43,1.14C339.28,107.54,337.74,105.63,337.48,104.69Zm.94,35.13c-1-.29,1-.29,0,0Zm2.71-30.18c-.09-1.24,1.88-1.5,1.61,0Zm17,31.17c-.26,0-.21-.3-.27-.49C358.08,140.33,358,140.63,358.09,140.81Zm-1,1.48c-.63-.82.88.6,0,0Z"/><path class="cls-1" d="M211.15,37c.52.18.7,0,.53-.5C211.17,36.32,211,36.48,211.15,37Z"/></g></g></svg>