<svg xmlns="http://www.w3.org/2000/svg" viewBox="0 0 101.49 51.62"><defs><style>.cls-1{fill:#838370;}</style></defs><title>logo_s_06280701</title><g id="圖層_2" data-name="圖層 2"><g id="logo"><path class="cls-1" d="M9.69,51.22a2.18,2.18,0,0,0,.11-.53v-.13a.32.32,0,0,1,0-.14.91.91,0,0,1,.06-.26V48.32l-.13-1.65a.5.5,0,0,1-.09-.23l0-.26a.62.62,0,0,0-.4-.47.26.26,0,0,0-.15,0l-.11,0H8.86c-.19,0-.28-.06-.28-.11s.05-.08.15-.13l.37-.16a3.06,3.06,0,0,1,.86-.17l.32.06a1.78,1.78,0,0,1,.33.07.57.57,0,0,1,.2.09l.2.09.26,0,.59.13.33.1c.08,0,.13.07.13.1a.45.45,0,0,1-.18.29l-.15.14a.81.81,0,0,0-.13.15.36.36,0,0,0-.11.21.5.5,0,0,0,0,.12v.1a.23.23,0,0,0,.11.17.07.07,0,0,0,0,0l0,0L12,47a8,8,0,0,1-.07,1.5l-.06.06v.94c0,.15.12.24.37.27a1.44,1.44,0,0,0,.35,0H13l.66,0h1.31l.66,0s0,0,0,0h.09a.33.33,0,0,0,.13,0,.37.37,0,0,0,.26-.21,1,1,0,0,0,.14-.55.38.38,0,0,0,0-.18l0-.24.05-.18V48a1.72,1.72,0,0,0-.05-.44V44.8l-.09-.47a1.67,1.67,0,0,0-1.18-1.63s0-.09.11-.15a2.93,2.93,0,0,1,.42-.19,4.42,4.42,0,0,1,1-.26,4.83,4.83,0,0,1,1.07.27l.46.17a1.69,1.69,0,0,0,.39.06l.53.11c.2.07.3.15.3.23a.3.3,0,0,1-.06.14l-.07.07,0,.05s0,.07-.07.12l-.22.16c-.21.15-.32.26-.32.32a3.69,3.69,0,0,1-.07.6,1,1,0,0,1,0,.16l-.09.44-.17.37-.05.14.09.7v.44a2.08,2.08,0,0,1-.09.46l0,.2c0,.11,0,.23,0,.37l.11,1.06-.09.11v.35a.62.62,0,0,0,.13.34c.06.07.29.11.68.13h1.84l1,0,.33,0c.07,0,.13,0,.18-.11l0-.12a.19.19,0,0,1,0-.1v-.8l.07-.12a.68.68,0,0,0,.06-.15,2.1,2.1,0,0,0-.06-.38,2,2,0,0,1-.07-.38v-.89a1.59,1.59,0,0,0-.06-.34.87.87,0,0,0-.4-.68.72.72,0,0,0-.21-.09l-.29-.07c-.25-.06-.37-.12-.37-.2l.57-.21a3.81,3.81,0,0,1,1.16-.23,1.67,1.67,0,0,1,.37,0l.22.06.46.16a2,2,0,0,0,.39.08h.07l.7.18a.4.4,0,0,1,.28.36c0,.19-.17.35-.52.47,0,.07,0,.22-.05.47l0,.28c0,.08,0,.12-.05.12l.07,1.31-.13.28.06.07.05.54a2.26,2.26,0,0,1,0,.64,1.09,1.09,0,0,1-.83,1l-1.05.47a1.38,1.38,0,0,1-.27,0c-.26,0-.39-.12-.39-.38l0-.36c0-.06,0-.1,0-.12v-.09s-.07-.07-.2-.09a3.36,3.36,0,0,0-.46-.05h-1l-2.25,0H16.32l-3.08.06a4.51,4.51,0,0,0-1,.07.51.51,0,0,0-.35.53s-.08.1-.24.18-.33.14-.56.23l-.62.21a1.7,1.7,0,0,1-.35.09.45.45,0,0,1-.39-.15ZM17,47.89s0,0,0,0,.07,0,.07,0,0,0-.07,0A0,0,0,0,0,17,47.89Z"/><path class="cls-1" d="M53.59,48.5l-.39-.41c-.17-.19-.33-.35-.46-.47s-.31-.29-.43-.39a.66.66,0,0,0-.32-.15.32.32,0,0,0-.24.09.59.59,0,0,0-.13.18l-.1.22a.76.76,0,0,1-.26.18l-.54.64a1.27,1.27,0,0,1-.69.45l-.19,0-.52.07a5.92,5.92,0,0,1-.71,0,3.24,3.24,0,0,0-.43,0L48,49l-.62.07-.41,0h-.31l-.28,0c-.21,0-.32-.08-.32-.18V47.14l0-.4a.24.24,0,0,0,0-.12.13.13,0,0,0-.09-.09,1.69,1.69,0,0,0,.2-.72,7.7,7.7,0,0,0,.06-1.08c0-.32,0-.74,0-1.27a2.45,2.45,0,0,1,0-.32v-.9l.09-.54c.21,0,.52,0,.93-.07l.3-.05,1.94-.11c.67,0,1.23-.07,1.66-.07h.45a2.81,2.81,0,0,1,.43,0l.28-.12a.27.27,0,0,0,.15-.25.6.6,0,0,0-.06-.27.55.55,0,0,0-.15-.2l-.43-.34a1,1,0,0,1-.31-.29l-.21-.25-.07-.09c-.21-.26-.41-.38-.58-.37l-.39.43a5.16,5.16,0,0,1-.41.41,2.3,2.3,0,0,1-.69.57l-.45.06a.43.43,0,0,0-.21.05.61.61,0,0,0-.18.11H47.12l-.45-.27a.66.66,0,0,1-.35-.5,10.29,10.29,0,0,1,0-1.1V37.67l0-1.15a.32.32,0,0,1,.09-.23l.26-.45a.81.81,0,0,1,.13-.27,1.09,1.09,0,0,0-.61-.41l-.92-.29c-.1,0-.15-.08-.15-.11,0-.28.21-.41.64-.41l.05,0a.36.36,0,0,0,.21.05l.47,0,.93-.15.54,0,.93,0,1.92.09,1,0a.62.62,0,0,0,.38-.18.48.48,0,0,0,.22-.36q0-.3-.45-.66l-.33-.27a.81.81,0,0,1-.21-.23,1.17,1.17,0,0,0-.26-.18l-.32-.2a1.9,1.9,0,0,0-.46-.23h-.19a5.58,5.58,0,0,1-.73.77,3.34,3.34,0,0,1-.89.59l-.64-.07a2.92,2.92,0,0,0-.5.05l-.84.2a1.14,1.14,0,0,1-.41,0l-.26-.06a5.79,5.79,0,0,0-.67,0l-.62.07a8.36,8.36,0,0,1-1.25.09l-.3-.07a.78.78,0,0,0-.22.07l-.17.07-.22,0h-.88a3,3,0,0,0-.86.11,2.49,2.49,0,0,1-.5.05l-.43,0a2.42,2.42,0,0,0-.88.14h-.2l-.19,0-.32,0-.39,0-.22,0-.41.05h-.08c0-.06,0-.1,0-.1l0-.95,0-1a1.69,1.69,0,0,1,0-.3l.06-.27a.79.79,0,0,0,.06-.25,1.12,1.12,0,0,0,0-.24l.64-.58c.54,0,1.05,0,1.51,0l2.21-.19c.45,0,.93,0,1.46,0l.87,0a7.52,7.52,0,0,1,1.13.14l1.75-.08.76,0a7.41,7.41,0,0,0,.9.06.34.34,0,0,1,.26-.08l.78.08.53-.08.17.08h1l.09-.08a1.13,1.13,0,0,1,.41-.06l.37,0,.18.08h1.22a.43.43,0,0,0,.35-.22.7.7,0,0,0,.12-.36l.05.09a.28.28,0,0,0,.15-.22.94.94,0,0,0,0-.28c0-.25-.2-.51-.61-.76l-.5-.33a1.36,1.36,0,0,1-.34-.49,2,2,0,0,0-1-.22c-.2,0-.35.15-.47.44s-.23.44-.41.44l-.32.24a1.43,1.43,0,0,1-.35.27,1.13,1.13,0,0,1-.81.25l-.26-.11-.21,0-.17.05c-.16,0-.23,0-.23,0s-.06,0-.12,0a.29.29,0,0,1-.14-.08c-.2,0-.5,0-.91,0l-.49,0a2.91,2.91,0,0,1-.47,0c-.73,0-1.1-.19-1.1-.47l.11-.32.24-.93a6.13,6.13,0,0,1,.7-1.53c.07-.29-.33-.58-1.23-.88a4.15,4.15,0,0,0-.52-.16l-1-.3a2,2,0,0,1-.29-.14.69.69,0,0,0-.41-.11,1.83,1.83,0,0,0-.35,0l-.55.11a3.91,3.91,0,0,1-.49,0l-.64.11-.06.05q0,.6.75.6a.37.37,0,0,0,.15-.05.45.45,0,0,1,.2-.06,6.65,6.65,0,0,0,.06.85l.12.79-.06.49.06,1.1s0,.07,0,.22l0,.32a.28.28,0,0,0-.2.08.75.75,0,0,0-.15.2L39.42,29h-2l-.32-.22-.32-.17a1.57,1.57,0,0,1-.29-.16,2.32,2.32,0,0,1-.29-.27l-.58,0-.32,0-.78.11a2.83,2.83,0,0,0-.53.08c-.27.08-.41.14-.41.19s.12.22.35.39a1.07,1.07,0,0,0,.59.27.65.65,0,0,1,.26.22,2.3,2.3,0,0,1,.17.35l.12.36a.72.72,0,0,0,.09.22L35.17,33l-.08.36a2.34,2.34,0,0,0-.09.38v.08c.06,0,.1.1.12.25v.68a.05.05,0,0,1,0,0v.33a.52.52,0,0,0,0,.25l-.12,1q.18.06-.18.33l-.26.22a.36.36,0,0,0-.08.27l.11.11-.35.35a5.23,5.23,0,0,1-.64.63v.19a.16.16,0,0,0,.18.14l1,.16,0,.06,0,2.57a1.84,1.84,0,0,1-.06.43l-.32,1a2,2,0,0,0-.09.57,3.59,3.59,0,0,1-.17.69l-.06.19a.27.27,0,0,0-.06.16,1.52,1.52,0,0,0-.12.36,4,4,0,0,1-.81,1.8,1.66,1.66,0,0,1-.12.55c-.06.22-.1.33-.14.33l-.26-.06a2.47,2.47,0,0,0-.3.27L32,48a.92.92,0,0,0-.11.14,6.9,6.9,0,0,1-.53.54,3.49,3.49,0,0,1-.52.47q-.52.49-1,.87c-.31.26-.44.35-.41.28s-.08.06-.2.19-.19.19-.23.19-.26,0-.44.22-.26.23-.26.27.06.27.17.27.17-.07.32-.21l.15-.17.15-.11a8.75,8.75,0,0,0,3.25-2.07l.93-.71q1.17-1.1,1.17-1.26a.34.34,0,0,1,.08-.19l.18-.19c.15-.15.2-.24.14-.28v-.05a2.83,2.83,0,0,1,.27-.33l.29-.33a1.2,1.2,0,0,0,.32-.76,11.24,11.24,0,0,0,.87-4.62s0-.08-.12-.14l-.23-.19a1,1,0,0,1-.23-.22.51.51,0,0,1-.12-.32c.1,0,.18-.09.23-.25l.12-.35h.64V36.84l.06-.16V35.31l0-.08a3.44,3.44,0,0,0,.51-.07l.43-.06a4.51,4.51,0,0,1,.53-.07l4-.41.13-.07a.67.67,0,0,0,.33.07h.32c.52.08.84.49,1,1.24a7.15,7.15,0,0,1,.06,1v1l.09.63-.09.27,0,.12a.41.41,0,0,1,0,.15v7.28l-.17,1.29a.74.74,0,0,1,0,.18c-.08.62-.14,1.1-.2,1.45a.25.25,0,0,1-.17.11.42.42,0,0,1-.17,0H41.54c-.48-.09-.71-.33-.71-.74l.1-2.1c0-.34,0-.66,0-1l-.07-.81a.62.62,0,0,1,.13-.45c0-.17,0-.33,0-.5a2.5,2.5,0,0,1,0-.25l0-.47a1.79,1.79,0,0,0,0-.23c0-.19,0-.38,0-.54l-.06-.54a2.32,2.32,0,0,1,.12-.66,1.72,1.72,0,0,0,.13-.56,1.67,1.67,0,0,0-.45-.84,1.32,1.32,0,0,0-1-.66l-.24,0-.23.06-.43.18-.41.07a1,1,0,0,0-.43.21.54.54,0,0,0,.25.34,1.38,1.38,0,0,0,.2.13l.19.11.15.21.37.7.13,1v2.85l0,.63-.17,2.21a3.91,3.91,0,0,1-.09.86,1.11,1.11,0,0,1-.37.77,1.74,1.74,0,0,1-1.1.34l-1,.05a1.14,1.14,0,0,0-.28,0,4.45,4.45,0,0,0-.58,0c-.23.05-.32.08-.28.1H34v.13l.39.81.26.21a2.73,2.73,0,0,0,1.29-.21v.07a2.65,2.65,0,0,0,.56-.07l.71-.13c.32-.06.61-.11.87-.14a10.28,10.28,0,0,1,1.1-.06.79.79,0,0,0,.23-.07.36.36,0,0,0,.13,0l.11-.07.24-.06a.22.22,0,0,1,.19,0l.17,0,.31-.16.17,0,.84.07,1.29-.14A.9.9,0,0,1,43.2,50h.41a8.43,8.43,0,0,0,.92-.06l.63-.07.69,0c.27,0,.39,0,.34-.09l.13.07,4.16.07a.48.48,0,0,0,.22,0h.23a.53.53,0,0,1,.2.05l.45.13a1,1,0,0,0,.26.05l.88.09c.33,0,.62,0,.87,0,.43,0,.64-.29.64-.88a1.17,1.17,0,0,0-.21-.59A.92.92,0,0,0,53.59,48.5Zm-.44-18.62,0-.09,0-.05c.06,0,.09,0,.09.05A.08.08,0,0,1,53.15,29.88Zm.44-.09a.29.29,0,0,1-.06.22.17.17,0,0,1-.12,0h-.17l.14-.16A.29.29,0,0,1,53.59,29.79ZM53,29.22h.29c0,.11-.1.16-.29.16Zm-.18-.44h.12v.11h-.12Zm-.23,1.1a.08.08,0,0,1-.09-.09c0-.05,0-.08.09-.08s0,0,0,.08S52.56,29.88,52.54,29.88Zm0-.44q-.09,0-.09-.06c0-.07,0-.11.09-.11s0,0,0,.11S52.56,29.44,52.54,29.44Zm0-.38a.35.35,0,0,1-.29-.11.38.38,0,0,1-.06-.22Zm-.35.73h-.12v-.08h.12Zm-.29-1.23.17.06H51.9Zm-1.22.66s0,0,0,.08,0,.08,0,.08-.06,0-.06-.08S50.64,29.22,50.68,29.22Zm-2,.57s.06,0,.06.11a.05.05,0,0,1-.06.06q-.09,0-.09-.06C48.58,29.83,48.61,29.79,48.67,29.79Zm-.17.09s.06,0,.06.08,0,.08-.06.08-.09,0-.09-.08S48.44,29.88,48.5,29.88Zm-.09-.61s0,0,0,.11,0,.06,0,.06a.05.05,0,0,1-.06-.06C48.35,29.31,48.37,29.27,48.41,29.27Zm-3.49-2.34V27h-.09Zm-6.37,2.95.06.16,0,0,0,.05Zm-4,8.11s-.06,0-.06-.05,0-.11.06-.11,0,0,0,.11S34.61,38,34.59,38Zm0-.38s-.06,0-.06-.08,0-.09.06-.09,0,0,0,.09S34.61,37.61,34.59,37.61ZM32.76,47.69H32.5s0,0,.08-.06h.27S32.82,47.67,32.76,47.69Z"/><path class="cls-1" d="M30.37,41.54c0,.71.27,1,.79,1a3.73,3.73,0,0,1,.61-.79l.79-.76a1.84,1.84,0,0,1,.34-.25s0,0,.06,0l.38-.24c.35-.26.5-.47.44-.66,0,0,0,0-.09-.11l-.09,0h-1l-.18.11h-2s0,0-.08.11l-.18.11.44,1.09a.44.44,0,0,0-.15.25A.7.7,0,0,0,30.37,41.54Z"/><path class="cls-1" d="M34,34.38a2,2,0,0,0-.32-1L33,32.5l-.52-.17c-.22-.07-.33-.18-.35-.32l-1.48-1a1.74,1.74,0,0,0-.82-.27,1.19,1.19,0,0,0,.44.73l.06,0s0,.06,0,.06a.4.4,0,0,0,.12.11l.23.24a5.24,5.24,0,0,1,.53.71,4.52,4.52,0,0,1,.29,1,6.35,6.35,0,0,1,.05.93c0,.24.18.45.53.63a1.82,1.82,0,0,0,.75.22C33.6,35.48,34,35.11,34,34.38Z"/><path class="cls-1" d="M25.28,28.21l-.5-.33a1.36,1.36,0,0,1-.34-.49,2.07,2.07,0,0,0-1-.22c-.2,0-.35.15-.47.44s-.23.44-.41.44l-.32.24a1.85,1.85,0,0,1-.35.28,1.12,1.12,0,0,1-.81.24l-.26-.11-.21,0-.17.05c-.16,0-.23,0-.23,0s-.06,0-.12,0A.29.29,0,0,1,20,28.7c-.2,0-.5,0-.91,0l-.49,0a3,3,0,0,1-.47,0c-.73,0-1.1-.19-1.1-.46l.11-.33.24-.93a6.51,6.51,0,0,1,.7-1.53c.07-.29-.33-.58-1.23-.87a4,4,0,0,0-.52-.17l-1-.3a1.3,1.3,0,0,1-.29-.14.69.69,0,0,0-.41-.1,1.89,1.89,0,0,0-.35,0l-.55.11a3.91,3.91,0,0,1-.49,0l-.64.11-.06.05q0,.6.75.6a.26.26,0,0,0,.15-.05.45.45,0,0,1,.2-.06,6.65,6.65,0,0,0,.06.85l.12.79-.06.5.06,1.09s0,.07,0,.22l0,.33a.24.24,0,0,0-.2.08.7.7,0,0,0-.15.19l-2.27-.11h-2l-.32-.22-.32-.16a2,2,0,0,1-.3-.17,2.32,2.32,0,0,1-.29-.27,4.73,4.73,0,0,0-.58,0l-.32,0-.78.11a2.39,2.39,0,0,0-.53.09c-.27.07-.4.13-.4.19s.11.22.34.38a1.07,1.07,0,0,0,.59.27.65.65,0,0,1,.26.22,2,2,0,0,1,.17.36l.12.35a.72.72,0,0,0,.09.22l0,2.62-.08.36a2.62,2.62,0,0,0-.09.38v.08c.06,0,.1.1.12.25v.68a.09.09,0,0,1,0,.06v.32a.52.52,0,0,0,0,.25l-.12,1c.12,0,.06.15-.17.33l-.27.22a.36.36,0,0,0-.08.27l.11.11L6,37.23a7.3,7.3,0,0,1-.64.63v.19a.16.16,0,0,0,.18.13l1,.17.06,0L6.49,41a1.92,1.92,0,0,1-.06.44l-.32,1a2,2,0,0,0-.09.58,3.52,3.52,0,0,1-.17.68l-.06.19a.29.29,0,0,0-.06.16,1.52,1.52,0,0,0-.12.36,4,4,0,0,1-.81,1.8,1.66,1.66,0,0,1-.12.55c0,.22-.1.33-.14.33L4.28,47a1.68,1.68,0,0,0-.29.28l-.3.32a.92.92,0,0,0-.11.14c-.2.22-.37.4-.53.55a3.36,3.36,0,0,1-.52.46c-.35.33-.68.62-1,.88s-.44.34-.41.27-.08.06-.2.19-.19.19-.23.19-.26.06-.44.22-.26.24-.26.27.06.28.17.28.17-.08.32-.22l.15-.17.15-.11A8.62,8.62,0,0,0,4,48.43L5,47.72q1.17-1.09,1.17-1.26a.32.32,0,0,1,.09-.19l.17-.19q.22-.22.15-.27v-.06a1.92,1.92,0,0,1,.26-.33l.29-.33a1.18,1.18,0,0,0,.32-.76,11.2,11.2,0,0,0,.87-4.62s0-.08-.12-.13l-.23-.2a1.2,1.2,0,0,1-.23-.21.56.56,0,0,1-.12-.33c.1,0,.18-.08.24-.25l.11-.35h.64V36.43l.06-.16V34.9l.09-.19.06-.3c.07-.23,0-.73,0-.73l0-1,0-1a1.69,1.69,0,0,1,0-.3l.06-.27A.79.79,0,0,0,9,30.94a1.12,1.12,0,0,0,0-.24l.64-.58,1.51,0,2.21-.2,1.46,0,.87,0a9.15,9.15,0,0,1,1.13.14L18.56,30l.76,0c.33,0,.63.05.9.05a.38.38,0,0,1,.26-.08l.78.08.53-.08L22,30h1L23,30a1.13,1.13,0,0,1,.41-.06l.38,0L24,30h1.22a.41.41,0,0,0,.35-.22.67.67,0,0,0,.12-.35l.06.08a.3.3,0,0,0,.14-.22.91.91,0,0,0,0-.27C25.89,28.72,25.69,28.47,25.28,28.21Zm-19,9.37s-.06,0-.06,0,0-.11.06-.11,0,0,0,.11S6.33,37.58,6.31,37.58Zm0-.38s-.06,0-.06-.08,0-.08.06-.08,0,0,0,.08S6.33,37.2,6.31,37.2ZM4.48,47.28H4.22s0,0,.09-.05h.26S4.54,47.26,4.48,47.28ZM7.59,33.89s-.06,0-.06-.08,0-.08.06-.08.09,0,.09.08S7.65,33.89,7.59,33.89Zm2.71-4.23,0,.05v-.24l.06.16Zm6.34-3.09h-.09l.09-.05ZM20.07,29c0-.08,0-.11.06-.11s0,0,0,.11,0,.05,0,.05S20.07,29,20.07,29Zm.15.65c-.06,0-.09,0-.09-.08s0-.08.09-.08.06,0,.06.08S20.26,29.63,20.22,29.63Zm.17-.08c-.06,0-.09,0-.09-.05s0-.11.09-.11.06,0,.06.11S20.43,29.55,20.39,29.55Zm2-.57s-.06,0-.06-.09,0-.08.06-.08,0,0,0,.08S22.42,29,22.4,29Zm1.22-.77v-.05l.18.05Zm.29,1.18H23.8V29.3h.11Zm0-1.07.35.33a.35.35,0,0,1-.29-.11A.38.38,0,0,1,23.91,28.32Zm.35,1.15c-.06,0-.09,0-.09-.08a.08.08,0,0,1,.09-.09s0,0,0,.09S24.28,29.47,24.26,29.47Zm0-.44c-.06,0-.09,0-.09-.05s0-.11.09-.11,0,0,0,.11S24.28,29,24.26,29Zm.35-.55h-.12v-.1h.12Zm.06.33H25c0,.11-.1.17-.29.17Zm.2.66,0-.08,0-.06q.09,0,.09.06C25,29.44,24.93,29.47,24.87,29.47Zm.38.13a.17.17,0,0,1-.12,0H25l.14-.16a.28.28,0,0,1,.21-.08Q25.31,29.56,25.25,29.6Z"/><path class="cls-1" d="M2.09,41.13c0,.71.27,1,.79,1a3.73,3.73,0,0,1,.61-.8l.79-.76a2.17,2.17,0,0,1,.35-.25s0,0,0,0L5.06,40c.35-.25.5-.47.44-.66a.29.29,0,0,0-.09-.1l-.09-.06h-1l-.18.11h-2s0,.05-.08.11l-.18.11.44,1.09a.47.47,0,0,0-.15.25A.7.7,0,0,0,2.09,41.13Z"/><path class="cls-1" d="M2.07,31.13s0,.06.05.06a.4.4,0,0,0,.12.11l.23.24a5.24,5.24,0,0,1,.53.71,4.52,4.52,0,0,1,.29,1,6.22,6.22,0,0,1,.06.93c0,.24.17.45.52.63a1.68,1.68,0,0,0,.76.22c.69,0,1-.37,1-1.09a2,2,0,0,0-.32-1l-.61-.9-.52-.16c-.22-.08-.33-.19-.35-.33l-1.48-1a1.74,1.74,0,0,0-.82-.27,1.21,1.21,0,0,0,.44.74Z"/><path class="cls-1" d="M15.4,40.4a.49.49,0,0,0-.13-.29L15.14,39l-.05-.1s.06-.13.18-.25a.54.54,0,0,1,.15-.15.62.62,0,0,1,.2-.1.49.49,0,0,1,.13-.08l.09,0,.09,0a.53.53,0,0,0,.15-.07.19.19,0,0,0,.07-.12c0-.17-.22-.33-.66-.47l-.13,0-.33-.1c-.13-.05-.2-.1-.2-.14a.63.63,0,0,1-.2-.06l-.35-.14a.41.41,0,0,0-.19,0l-.79.43-.28.07-.25,0-.13,0-.37,0-.72.06-.18,0a.57.57,0,0,1-.3-.19.86.86,0,0,0-.38-.11h-.41c-.61,0-.9.11-.85.34l.39.24a2.15,2.15,0,0,1,0,.23l-.16.54c0,.12,0,.27,0,.43a2.47,2.47,0,0,0,.05.34.88.88,0,0,1,0,.31,1.4,1.4,0,0,0-.13.4,3.37,3.37,0,0,0-.07.66l.07,1.66a.46.46,0,0,0,.39.21c.53,0,.83-.2.92-.6a1.62,1.62,0,0,0,0-.51l0-.47a1.07,1.07,0,0,1,.72-.23h.35l1-.08c.14,0,.26.13.35.38a.46.46,0,0,0,.48.37.78.78,0,0,0,.26,0,1,1,0,0,0,.2-.07l.11-.05a.29.29,0,0,1,.11,0,.85.85,0,0,1,.24-.08c.48-.15.72-.36.72-.65Zm-5-2.64s0,0,0,0,0,0,0,0,0,0,0,0S10.42,37.76,10.41,37.76Zm3.09,1.61a3.79,3.79,0,0,1-.07.74c-.07.16-.39.24-.94.24h-.55c-.16,0-.23,0-.22,0l-.52,0a.53.53,0,0,1-.55-.35,1.08,1.08,0,0,1-.06-.33l0-.17a.39.39,0,0,0,0-.16l.07-1.06c.07-.13.41-.22,1-.26l.77,0H13a.3.3,0,0,1,.26.19,1.43,1.43,0,0,1,.13.45c0,.13.05.28.07.44Z"/><path class="cls-1" d="M25.12,37.24l-.37-.13-.2-.08a1,1,0,0,0-.2-.07,2.52,2.52,0,0,0-.3-.09l-.35-.1A1.47,1.47,0,0,0,23,37a.1.1,0,0,1-.06.05l-.24.13a1.32,1.32,0,0,1-.35.12l-1.58.08-.2,0-.17.05h0l-.11,0-.14,0a1.71,1.71,0,0,1-.61-.17l-.28-.11a.57.57,0,0,0-.24,0l-.22-.1a1,1,0,0,0-.31,0,2.58,2.58,0,0,0-.46,0q-.29,0-.33.12s.05,0,.13.1.14.08.14.1a.21.21,0,0,0,.06.08l.11.11c.06,0,.1.08.11.11s.07.06.07.08l-.09.22a.39.39,0,0,1,.06.2l0,.3a1.41,1.41,0,0,0,.13.65v.05s-.05.12-.07.28,0,.31,0,.54v1a3.9,3.9,0,0,1-.13.94l-.09.09a.52.52,0,0,0-.09.12.55.55,0,0,0,0,.17.71.71,0,0,0,.67.48,2.45,2.45,0,0,0,1.05-.72l.09-1.13a1.16,1.16,0,0,1,.33-.09,4.85,4.85,0,0,1,.55-.09q.61-.06,1-.06h.39a.63.63,0,0,1,.25.05c.1.06.15.24.15.53a.1.1,0,0,1,.06.08v.06a.06.06,0,0,0,0,.06.34.34,0,0,0,.08.14,1.2,1.2,0,0,0,.29.12.31.31,0,0,0,.13,0l.11,0,.09,0a5.14,5.14,0,0,0,1-.4c.35-.19.53-.36.53-.51l0-1a5.07,5.07,0,0,1-.05-.57,1.94,1.94,0,0,0,0-.24l0-.21a.39.39,0,0,1,0-.14.88.88,0,0,1,0-.16c0-.14,0-.3,0-.47s.15-.15.39-.26.33-.18.33-.27A.25.25,0,0,0,25.12,37.24ZM19,42.37s-.05,0-.05,0A0,0,0,0,1,19,42.3s.06,0,.06.05S19,42.37,19,42.37Zm0-.19s0,0,0,0,.13,0,.13.08S19,42.2,19,42.18Zm.33-1.56s0,0,0,0,.07,0,.07,0,0,0-.07,0S19.3,40.63,19.3,40.62Zm.13,1.54c-.05,0-.07,0-.07,0s0,0,.07,0,0,0,0,0S19.44,42.16,19.43,42.16Zm.72-4.45s0,0,0,0,0,0,0,0,0,0,0,0S20.12,37.71,20.15,37.71Zm2.43,2.36a1.66,1.66,0,0,1-.7.21,5.06,5.06,0,0,1-.74,0l-.92.1a1.07,1.07,0,0,1-.4,0c-.14,0-.22-.1-.22-.18l.09-.31c0-.14,0-.29,0-.46l-.09-.88c0-.16,0-.31,0-.44s.3-.2.72-.23l.86-.07.26,0,.44,0,.28,0c.15,0,.26.09.33.29a1.9,1.9,0,0,1,.13.68c0,.22,0,.48,0,.8Zm1.58.4-.07,0h.07Z"/><path class="cls-1" d="M21.44,32.39a.76.76,0,0,1,.26-.24l.14-.07L22,32c.08,0,.14-.08.15-.12v-.27a4.72,4.72,0,0,0-.74-.2l-.24-.05-.53-.11-.15-.07a.06.06,0,0,0-.05,0,.32.32,0,0,0-.19-.05,1.54,1.54,0,0,0-.46.08L19,31.6a1.08,1.08,0,0,1-.38.08h-.35c-.1,0-.16,0-.19,0H16.71l-1.75,0-.08,0s0,0-.09-.1-.11-.1-.11-.12L14,31.33a4.94,4.94,0,0,0-.7-.08,2.39,2.39,0,0,0-.53.09l-.26.1q-.09.06-.06.12l.78.43-.06.7.06,1.18a.14.14,0,0,0-.08.11l0,.12-.07.11a.31.31,0,0,0,0,.08l0,.09a.3.3,0,0,1,0,.1v.2a.81.81,0,0,0-.13.61v.28a.11.11,0,0,0,0,.08,1.85,1.85,0,0,1,0,.29V36l0,.11a.44.44,0,0,0,.22.17h-.13s0,.06.13.08.13.06.13.1a1.8,1.8,0,0,0,.37,0,2.74,2.74,0,0,0,.53-.13c.42-.16.63-.39.63-.7l0-.43A.35.35,0,0,1,15,35a.22.22,0,0,1,.1-.11h1.08l.63,0c.19,0,.29,0,.31-.07h.57l1.14,0s.1,0,.19.1,0,0,0,.06l0,.06a.13.13,0,0,0,.11,0l0,0a.7.7,0,0,0,.78.79,1.83,1.83,0,0,0,1-.37c.37-.24.55-.45.55-.64v-.76a2.74,2.74,0,0,0,0-.43l0-.16a.3.3,0,0,0,0-.13.08.08,0,0,0,0-.06l-.05-.17a1.22,1.22,0,0,1,0-.27A.88.88,0,0,1,21.44,32.39ZM13.5,34.14h-.07v0h.07Zm.06.18s0,0,0,0,0,0,0,0,0,0,0,0S13.58,34.32,13.56,34.32Zm5.72-.4a.39.39,0,0,1-.25.22,18.36,18.36,0,0,1-2.75.18H16l-.49.08h-.28c-.25,0-.39,0-.44-.14a6.81,6.81,0,0,1-.24-1,5.36,5.36,0,0,1-.11-1,.28.28,0,0,1,.18-.13l.15-.05A1.21,1.21,0,0,0,15,32l.13.05h2.49l.59-.05h.6c.2.08.32.18.35.33v.32l0,.12a4.94,4.94,0,0,0,0,.58l.05.37Zm1.2,1.41v0h.06l.07,0Zm.33.18a0,0,0,1,1,0-.08,0,0,0,1,1,0,.08Z"/><polygon class="cls-1" points="83.53 20.25 83.53 20.18 83.46 20.18 83.53 20.25"/><path class="cls-1" d="M78.06,3.11A.12.12,0,0,1,78,3.2a1.46,1.46,0,0,0,1,.4,1.51,1.51,0,0,0,.53-.1,2.11,2.11,0,1,0,0-2.78A1.32,1.32,0,0,0,79,.62a1.51,1.51,0,0,0-.91.31,4.21,4.21,0,0,0,.61.11,1,1,0,0,1-.78.05,1.49,1.49,0,0,0-.41,1,1.51,1.51,0,0,0,.39,1Zm4.77-.94c0-.16.22,0,.26,0S82.87,2.19,82.83,2.17Zm0-.74c.12-.38.12.37,0,0Zm.21.28c0,.1-.13.08-.21.1S82.92,1.74,83,1.71Zm-2.86,1c.16,0,.17.09.3.09C80.48,3,80,2.91,80.14,2.68Zm1.23-.45c-.13-.21-.49-.1-.59-.19.13-.22.71,0,.59-.49C81.71,1.69,81.24,1.89,81.37,2.23Zm.61-.9c.34-.07.11.16.1.29A.25.25,0,0,1,82,1.33Zm-.21.1c-.39.19-.5-.25-1-.2C81,1,81.67,1.05,81.77,1.43ZM80.44,1c.49,0,0,.46,0,0Zm0,1c-.27-.07.26-.07,0,0ZM80,.67c-.16-.21.22.15,0,0ZM80,.8c.09,0,.06.15.07.25C79.89,1,79.89.88,80,.8Zm.16.43c-.44,0-.46-.16-1-.19C79.33.85,80.1.94,80.14,1.23Zm-1-.31c-.06,0-.05-.08-.07-.12S79.1.87,79.12.92Zm.07.63c-.08,0,0,0-.07-.07C78.81,1.19,79.49,1.51,79.19,1.55Zm-.47-.13c.13,0,.18,0,.14.13S78.68,1.55,78.72,1.42Zm1.46.69c.35,0,.83-.07,1.13.18-.58.6-2.58,0-2.92-.43C78.76,1.73,79.49,2,80.18,2.11Z"/><path class="cls-1" d="M61.61,42a1.26,1.26,0,0,0-.44.14,1.84,1.84,0,1,0,.34,2.41,1.06,1.06,0,0,0,.47,0A1.3,1.3,0,0,0,61.61,42Z"/><path class="cls-1" d="M96.74,44.36a1.56,1.56,0,0,0-.92.3l-.09-.17a.48.48,0,0,1-.18,0c0-.07.09-.08.16-.09a2.54,2.54,0,0,0-4.75,1,1.31,1.31,0,1,0-1,2.13h6.8a1.6,1.6,0,1,0,0-3.19Zm-1.09,1.81c-.32-.32.26-.6,0,0Z"/><path class="cls-1" d="M35,5.32a6.69,6.69,0,0,0-.9.07c.27.13.56.23.56.61a1.36,1.36,0,0,1-.74-.58,6.23,6.23,0,0,0-5.16,6.14,6.36,6.36,0,0,0,.06.87,3.88,3.88,0,0,0-.49-.11v0a.3.3,0,0,1-.24-.06,5.49,5.49,0,0,0-.58,0,5.11,5.11,0,0,0-3.22,1.13,4.06,4.06,0,0,0-6.14,2.75A2.91,2.91,0,0,0,15.52,19a2.87,2.87,0,0,0,1,2.22,1.61,1.61,0,0,0-.64.95.61.61,0,0,0,.18-.05c0,.16-.07.21-.21.21a1.48,1.48,0,0,0,0,.21,1.61,1.61,0,0,0,1.62,1.61,1.59,1.59,0,0,0,1.41-.83,1.85,1.85,0,0,0,2.62-1.23,3.3,3.3,0,0,0,1,.17,3.26,3.26,0,0,0,2-.67,5.08,5.08,0,0,0,3,.95,5.16,5.16,0,0,0,4.41-2.5,4.32,4.32,0,0,0,.88.1,3.76,3.76,0,0,0,3.55-2.53,6.24,6.24,0,0,0,4.88-5.88h0l0,0c0-.05,0-.1,0-.16A6.25,6.25,0,0,0,35,5.32Zm-18.71,17c0-.12.18-.09.3-.1S16.43,22.34,16.31,22.36Zm12-9.92c.17,0,.18.1.31.1C28.7,12.73,28.19,12.68,28.35,12.44Zm.51.49c.49,0,0,.45,0,0Zm.41.48c.22,0,.33.07.31.28C29.35,13.71,29.25,13.62,29.27,13.41Zm2.15,2.21c0-.09.12-.08.2-.1S31.49,15.6,31.42,15.62Zm1.73-.1c.28-.49.69.22.82.48A2.65,2.65,0,0,1,33.15,15.52Zm1.12.77c.2,0,.44,0,.41.29C34.49,16.54,34.24,16.55,34.27,16.29Zm.51.48c.12-.38.12.38,0,0ZM34.89,6c.08.24.5.16.51.48A.54.54,0,0,1,34.89,6Zm.3,11.06c.34-.23-.25.33,0,0ZM35.4,6.67c.39-.45.79.55,1.22.67C36.22,7.49,35.92,6.72,35.4,6.67Zm2.3,1.6.15,0A.27.27,0,0,1,37.7,8.27Zm.56.62c-.14,0-.17-.18-.31-.2C38,8.45,38.34,8.69,38.26,8.89Zm.2.28V9c.22,0,.19.14.2.29C38.58,9.25,38.56,9.17,38.46,9.17Zm.82.58c-.28.07-.21-.19-.41-.19C38.9,9.35,39.35,9.54,39.28,9.75Zm1.83,1.83c-.2,0-.2-.26-.41-.29C40.72,11.13,41.19,11.33,41.11,11.58ZM40.5,11c-.19,0-.07-.32-.3-.29C39.9,10.55,40.72,10.64,40.5,11Zm-.71-.77c.48.15.13.48,0,0ZM39.38,10c0-.09.12-.08.2-.1S39.46,10,39.38,10Z"/><path class="cls-1" d="M73,4.92c.08,0,.15.11.2,0S73.08,4.8,73,4.92Z"/><path class="cls-1" d="M90.25,37.94c-.13,0-.18,0-.14.12S90.29,38.07,90.25,37.94Z"/><path class="cls-1" d="M72.87,3.92l-.24.25c.19,0,.29.06.33.25S73,3.9,72.87,3.92Z"/><path class="cls-1" d="M87,25.48c.08,0,.2,0,.2-.1S87,25.39,87,25.48Z"/><path class="cls-1" d="M49.27,22.87a3.18,3.18,0,0,0,.62.06,3,3,0,0,0,.43,0c-.13-.26-.27-.5-.38-.73C49.72,22.41,49.5,22.64,49.27,22.87Z"/><path class="cls-1" d="M90.58,37.56l-.18,0a.77.77,0,0,1,.18.1Z"/><path class="cls-1" d="M53.8,9V8.84l-.18,0A.77.77,0,0,1,53.8,9Z"/><path class="cls-1" d="M101.49,30.78a11.15,11.15,0,0,0-3.85-8.44q0-.46,0-.93A16.21,16.21,0,0,0,93.1,10.1H93A.32.32,0,0,1,93,10,16.22,16.22,0,0,0,82.3,5.15a1.18,1.18,0,0,1-.07.2.64.64,0,0,1,0-.2c-.27,0-.54,0-.8,0a15.82,15.82,0,0,0-3.1.3v0l-.06,0-.13,0a6.65,6.65,0,0,0-2.9-1.73h0c-.09,0-.14,0-.14,0a6.4,6.4,0,0,0-1-.19c-.2.08-.54,0-.34.35-.23-.06-.31-.45-.6-.31l0-.08q-.36,0-.72.06c-.06.2-.3.37-.2.44l-.2.06c0-.21.17-.3.14-.47A6.71,6.71,0,0,0,69.5,4.66a9.23,9.23,0,0,0-11.41.09,7.2,7.2,0,0,0-3.8-1.08,7.33,7.33,0,0,0-7.19,6q.26-.21.21.06s-.21,0-.27,0l0,0a5.21,5.21,0,0,0-2.85,9.16,2.89,2.89,0,0,0,1.6,5.24,1.44,1.44,0,0,1-.62-.48c.64.13,1.35,0,2,.17a3,3,0,0,0,1.24-1.19,2.92,2.92,0,0,0,.7.25A14.81,14.81,0,0,1,51.68,20,13.14,13.14,0,0,1,50,22.13a2.23,2.23,0,0,1,.61.72,3.33,3.33,0,0,0,2.52-2.45,5.84,5.84,0,0,0,1.88.31h0A12,12,0,0,0,59.3,29.9a6.56,6.56,0,0,0-.6,2.77,6.69,6.69,0,0,0,1.52,4.26.54.54,0,0,0,.22,0c0,.08,0,.11-.13.11A6.75,6.75,0,0,0,62,38.48l.72-1.27a1.3,1.3,0,0,1,.12-.45,4.72,4.72,0,0,1,.37-.79,1.4,1.4,0,0,1,.23-.43,1.4,1.4,0,0,1,.23-.43l.37-.74a12.94,12.94,0,0,0,2.1-4.48,1.81,1.81,0,0,1,.14-.6l.62-1.12c.07-.15.13-.28.18-.42.11-.31.2-.58.26-.82.24-1.1.44-2.39.62-3.87l.28-1.78a9.25,9.25,0,0,0,0-2.74c-.48-.91-1-1.37-1.48-1.37l-.72.26c-.08.07-.21.19,0,0h0l-1,.34c-.63.12-1.24.26-1.82.43L61.09,19a3.52,3.52,0,0,1-.68.22,8.76,8.76,0,0,1-1.51.42,1.68,1.68,0,0,1-.47-.34l-.45-.5a3,3,0,0,1-.43-.64.41.41,0,0,1,.36-.55l.9-.29c-.14-.25.22-.42.11,0L60,17A35.59,35.59,0,0,1,63.51,16l.43-.17,1.43-.26,1.57-.68a2.09,2.09,0,0,0,.83-.49c.26-.24.29-.93.08-2.08A20.66,20.66,0,0,0,67.3,10a5.92,5.92,0,0,0-.51-1,1.68,1.68,0,0,0-.53-.37.41.41,0,0,1,.29,0A5.07,5.07,0,0,0,66,7.89l-.91-.51a1.53,1.53,0,0,1-.46-.25.68.68,0,0,1-.27-.38c0-.19.13-.48.5-.87a2.28,2.28,0,0,1,1.06-.67,4.25,4.25,0,0,1,1.85,0l.33.13,1,.2.28.14c.26.12.58.28,1,.5.14.07.32.17.51.29l.46.3A1.93,1.93,0,0,1,71.25,8l-.43,1a6.12,6.12,0,0,0,.05,3.07,1.43,1.43,0,0,0,.17.35,1.63,1.63,0,0,1,.17.36.79.79,0,0,1,.07.37.25.25,0,0,0,.08.18c0,.05.23.05.56,0a1.57,1.57,0,0,0,1.24-1.09,3.94,3.94,0,0,0,.66-.56l.37-.5a1.49,1.49,0,0,1,.17-.18,2.5,2.5,0,0,1,1.46-1l1.55.63a2.58,2.58,0,0,1,1,1.78c.21.55,0,1-.64,1.38v0c0,.08,0,.06-.07,0a3.54,3.54,0,0,1-.39.19,8.86,8.86,0,0,1-1.22.37l-.53.14a1.68,1.68,0,0,0-.44.13l-2.75,1.18a1.19,1.19,0,0,0-.64,1v.57l.09.47c.13.74.29,1.52.47,2.32l.94,4c.16.71.3,1.34.4,1.9a9.81,9.81,0,0,1,.24,2.41l1.73,9.4a3.18,3.18,0,0,1,.16.32c.14,0,.33.13.28.28a.2.2,0,0,1-.18,0,6.79,6.79,0,0,1,.2.78,3.07,3.07,0,0,1,0,.76L76,41.32l0,2.08-.09.64a2.18,2.18,0,0,1-.75,1.19,2.54,2.54,0,0,1-1.32.92c-.13,0-.28-.06-.45-.25a.83.83,0,0,1-.29-.48c-.14-.74-.24-1.38-.31-1.91s-.12-.75-.14-1l-.08-1c-.06-.54-.15-1.13-.27-1.78l-.65-3.49c-.1-.55-.18-1.06-.24-1.55a1.09,1.09,0,0,1-.68-.71c.18.16.47.23.65.39l-.08-1.15L70.73,30c-.28-1.14-.6-1.67-1-1.61a1.83,1.83,0,0,0-.74.43c0,.09,0,.18,0,.3a.55.55,0,0,1-.16.22l-.17.22a1.66,1.66,0,0,0-.49,1.2l-.23.43a2,2,0,0,0-.23.42l-.42.8c-.3.6-.56,1.1-.8,1.5a39.08,39.08,0,0,1-2.2,3.34,1.41,1.41,0,0,0-.29.34l-1,1.38.35.12.05,0c.24.07.47.14.71.19a12.81,12.81,0,0,0,24.09,2.49,10.79,10.79,0,0,0,2.14.21A11.19,11.19,0,0,0,101.49,30.78Zm-.65,1.73c-.26-.08.26-.08,0,0Zm-.13,1.25c-.07,0,0-.08-.07-.13S100.69,33.71,100.71,33.76Zm-1.39.81c-.22-.09.26-.16,0,0ZM99.19,31c-.22-.09.25-.16,0,0Zm-.66,4.55a.27.27,0,0,1-.27.32C98.4,35.76,98.32,35.49,98.53,35.5ZM42.65,13.21c0-.09.12-.07.2-.09S42.72,13.19,42.65,13.21Zm.2.2c0-.1.12-.08.2-.1S42.93,13.39,42.85,13.41Zm2,.09a.2.2,0,0,0,0,.29C44.86,13.92,44.28,13.5,44.89,13.5Zm-.41,1.35c0,.14-.09,0-.2,0S44.48,14.75,44.48,14.85Zm-.41,8.37c.35.09.7.18,1,.29C45,23.92,44.09,23.53,44.07,23.22Zm1.43-7c0-.1.13-.08.21-.1S45.58,16.18,45.5,16.2Zm.31-1.35c.12-.38.12.38,0,0Zm.2.38c0-.09.13-.07.21-.09S46.09,15.21,46,15.23Zm7.66-8.39c-.07,0-.06-.07-.07-.12S53.65,6.8,53.67,6.84Zm-.27.38c-.16-.21.22.15,0,0ZM53,6.35c-.26-.08.26-.08,0,0Zm0,.31c-.06,0,0-.08-.06-.13S53,6.61,53,6.66Zm-.13.5a.36.36,0,0,0,.2.06.17.17,0,0,1-.2.12Zm.07,1.24c.29,0,.23.34-.07.26C52.86,8.54,53,8.52,52.94,8.4Zm-.33-1.18c.17,0,0,.25-.2.19C52.3,7.18,52.63,7.37,52.61,7.22Zm-2.25.44c-.27-.07.26-.07,0,0ZM48.7,6.6c-.26-.08.26-.08,0,0Zm-1,2.74c-.14,0-.14-.16-.13-.31C47.77,9,47.77,9.28,47.7,9.34Zm.07-.62c.07,0,0,.07.07.12S47.79,8.77,47.77,8.72Zm.2.87a.06.06,0,0,1,0-.12C48.07,9.5,48,9.52,48,9.59ZM48,9.22c.24.19-.21.21,0,0Zm.42,10.54c.12-.38.12.38,0,0ZM48.23,9.4c-.19-.13.2-.22.4-.18C48.67,9.43,48.27,9.25,48.23,9.4ZM48.3,9c.07,0,.05.08.07.12S48.31,9.08,48.3,9Zm.47,11.11c.12-.38.12.38,0,0Zm.41-.48c0-.45.48,0,0,0Zm.11-10.19c.07,0,.06.07.07.12S49.31,9.52,49.29,9.47Zm-.42,9.23a1.73,1.73,0,0,1,.31.67C49,19.23,48.65,18.94,48.87,18.7Zm.1,1.73c.4.11.51.48.62.87A2.11,2.11,0,0,1,49,20.43Zm.82,1.35a.42.42,0,0,1-.2-.39C49.76,21.41,49.82,21.56,49.79,21.78ZM51.15,19c-.13,0-.1-.29.07-.19A.14.14,0,0,1,51.15,19ZM53.2,9.53c0-.19-.09-.32-.24-.4a4.15,4.15,0,0,0-1.68-.23,15.69,15.69,0,0,1-2.65-.2.26.26,0,0,1-.4.14.26.26,0,0,1,.3-.16c-.1,0-.52-.14-.61-.15.17,0,.68-.18.91-.18a7.68,7.68,0,0,1,1.91.29,4.63,4.63,0,0,0,2.85.08c-.06,0-.31-.76.1-.4s.22.43.28.95C53.55,9.18,53.62,9.56,53.2,9.53Zm1.13-.62c-.16-.06-.33-.47,0-.44C54.43,8.65,54.2,8.63,54.33,8.91Zm.13-.13c-.17,0,0-.24.13-.19C54.57,8.68,54.48,8.69,54.46,8.78Zm.26-1c-.11,0-.11-.35.07-.25S54.75,7.7,54.72,7.78ZM59.11,34c.12-.38.12.38,0,0Zm8.47-8.85c0,.18-.12.25-.3.19A.23.23,0,0,1,67.58,25.19Zm-2.24-.77c0,.16-.67.2-.51-.09A.71.71,0,0,1,65.34,24.42ZM65,22.5c0,.18-.12.24-.3.19A.22.22,0,0,1,65,22.5Zm.51,8.27c-.28-.25-.86-.21-.92-.67C64.92,30.34,65.4,30.4,65.54,30.77Zm-1.12-7.21c0,.09-.13.07-.21.09S64.34,23.58,64.42,23.56Zm-.1,1c0,.09-.13.07-.21.09S64.24,24.54,64.32,24.52Zm0,5.58c-.28.07-.21-.19-.41-.19C63.94,29.7,64.39,29.89,64.32,30.1Zm-.82-.58c-.07.29-.22-.09-.41,0C63.11,29.28,63.44,29.49,63.5,29.52Zm-.61-.29c-.38.34-.5-.36,0,0Zm-.82-5.48c-.08.14-.26.2-.51.19C61.46,23.62,61.88,23.79,62.07,23.75Zm-.41,4.91c0,.24-.34,0-.41,0C61.27,28.42,61.6,28.63,61.66,28.66Zm-.71-.2c-.4,0-.53-.2-.82-.29C60.25,28,60.92,28.2,61,28.46Zm-1.53-.57c-.18-.09-.55,0-.52-.29C59.08,27.69,59.45,27.59,59.42,27.89Zm-.21-2.22c.11.29-.22.17-.41.2A.48.48,0,0,1,59.21,25.67ZM55.4,4.36c.12-.38.12.38,0,0Zm-.34,3.86c.07-.2.38-.18.59-.25C55.6,8.32,55.29,8.11,55.06,8.22Zm11.85,3.24c0,.21-.19.48-.4.32C66.53,11.57,66.73,11.53,66.91,11.46Zm-.33,1.32c.19.08,0,.27-.07.37C66.36,13.1,66.57,12.88,66.58,12.78ZM65.34,8.64c0,.14-.09,0-.21,0C65.16,8.52,65.34,8.55,65.34,8.64Zm-.28,3.95-.2.12C64.87,12.6,64.94,12.56,65.06,12.59Zm-.34-.19c-.07.06,0,.23-.19.19C64.51,12.45,64.58,12.39,64.72,12.4Zm-.66-8.61c-.26-.08.26-.08,0,0ZM63.93,5c-.06,0,0-.07-.07-.12S63.91,5,63.93,5ZM61.75,6.78a.27.27,0,0,1-.27.32C61.62,7,61.54,6.77,61.75,6.78Zm-1.34.56c.34-.23-.25.33,0,0Zm-2.7,4.94a.17.17,0,0,1,.19-.13A.18.18,0,0,1,57.71,12.28Zm.13-.25c.06-.09.18-.13.2-.25C58.2,11.84,58,12.05,57.84,12Zm.45,3.54c.12-.38.12.38,0,0Zm.48.24c0-.09.13-.07.21-.1S58.85,15.79,58.77,15.81Zm-.6-4.6A7,7,0,0,1,59.29,9.9C58.94,10.36,58.77,11,58.17,11.21Zm1.59-1.87c-.13.14.06-.25.06-.25C60.06,9,59.76,9.34,59.76,9.34Zm.2-4.8c-.22-.1.26-.16,0,0ZM60,7.68c0-.09.12-.07.2-.1S60.11,7.66,60,7.68Zm.92.1a1.25,1.25,0,0,1-.73.88A2.61,2.61,0,0,1,61,7.78Zm-.46,7.62c.14-.28.49-.37.79-.5A2.54,2.54,0,0,1,60.49,15.4Zm.72-.63c-.19-.13.15-.38.27-.37C61.55,14.71,61.46,14.84,61.21,14.77Zm.34,0c0-.2.39-.4.39-.06C61.74,14.67,61.75,14.82,61.55,14.77Zm.46-.25c.06,0,.05.08.07.13S62,14.57,62,14.52Zm-.55-7.13c.21-.32.78-.22,1.12-.19C62.37,7.42,61.7,7.2,61.46,7.39Zm1.08-1.54c-.22-.1.26-.16,0,0Zm.14,1.45c0-.12.19-.09.31-.1S62.8,7.28,62.68,7.3Zm.79,4.48.06-.32c.31.14.52,0,.6.32A3.64,3.64,0,0,1,63.47,11.78ZM64,7.58c.3-.36.4.35,0,0Zm.41.58c0,.1-.13.08-.21.1S64.34,8.18,64.42,8.16Zm.3-4.37c-.21-.1.14-.16.07-.32C65,3.53,64.72,3.69,64.72,3.79Zm8.84,1.37c.32.3-.27.47-.07.82-.26-.16-.38-1-.73-1a.24.24,0,0,0-.06.29c-.56-.77-.29-1.3.59-1.5C72.91,4,73.61,5.19,74,5,73.81,5.37,73.88,5.28,73.56,5.16ZM74,5c.07-.09.37-.29,0-.19a.2.2,0,0,1,.33-.06C74.27,4.84,74.21,5,74,5Zm1.26-.19c-.26-.15.22-.09,0,0Zm-.65-.57c.25-.38.15.31,0,0Zm.05-.3c-.26-.08.27-.08,0,0Zm-.06.62c.15,0,.19,0,.13.19S74.56,4.71,74.62,4.54Zm.06,3.37c.08-.28.57-.17.73-.37C75.59,7.83,75.06,7.93,74.68,7.91ZM75.61,5c-.13,0-.17,0-.13-.13S75.65,4.85,75.61,5Zm-.13-.31c0-.23.11-.13.2-.13C75.72,4.69,75.65,4.73,75.48,4.67Zm.6.31C76,5,76,4.9,76,4.85S76.06,4.93,76.08,5Zm0,2.18-.21.13C75.89,7.17,76,7.13,76.08,7.16Zm-.21.75c-.16-.08.14-.68.27-.37S75.91,7.8,75.87,7.91Zm.27-.75c.2-.23.22.19,0,0Zm.22-.83c.48,0,0,.45,0,0ZM76.77,6c-.2-.07.23-.35.41-.39C77.25,5.89,76.8,5.72,76.77,6Zm.1,2.21c-.06-.19,0-.25.2-.19C77.08,8.11,77,8.18,76.87,8.16Zm.59-.31c-.16,0-.27-.28-.39-.06C76.8,7.56,77.52,7.57,77.46,7.85Zm.14,0c-.26-.07.26-.07,0,0Zm.5-2.29c0,.11-.19.08-.31.1S78,5.58,78.1,5.56Zm0,1.67c-.26-.08.26-.08,0,0Zm.06.87c-.11,0-.11-.29.07-.19A1.46,1.46,0,0,1,78.19,8.1ZM64.83,40.78c.22,0,.32.08.3.29C64.91,41.09,64.81,41,64.83,40.78Zm.3.38c.17,0,.18.1.31.1C65.48,41.45,65,41.4,65.13,41.16Zm.51.49c.49,0,0,.45,0,0Zm.41.48c.22,0,.33.08.31.28C66.13,42.43,66,42.34,66.05,42.13Zm2.15,2.21c0-.09.12-.08.2-.1S68.27,44.32,68.2,44.34Zm-.41-12.12c.48-.17,1,.49,1.43.67C68.69,33.09,68.3,32.35,67.79,32.22Zm1.94,1.34c.26-.52.39.28.81.2C70.32,34.23,70.13,33.5,69.73,33.56Zm.2,10.68c.28-.48.69.23.82.48A2.65,2.65,0,0,1,69.93,44.24Zm1.12.77c.2,0,.44,0,.41.29C71.27,45.26,71,45.27,71.05,45Zm.51.48c.12-.38.12.38,0,0Zm.41.3c.34-.24-.25.32,0,0Zm1.33,1.05a.26.26,0,0,1,.2.29C73.18,47.14,73.11,47,73.3,46.84Zm.71.67c.37.2.8.34.92.78A1.31,1.31,0,0,1,74,47.51Zm1.43,1.06a.47.47,0,0,1,.41.39A.47.47,0,0,1,75.44,48.57Zm15.21-20.3c.4,0-.08.3.21.39C90.62,29,90.4,28.39,90.65,28.27Zm0-2c.31-.26-.28.29,0,0Zm.46,11.38c-.16-.05-.33-.47,0-.44C91.21,37.37,91,37.35,91.11,37.63Zm.13-.13c-.17,0,0-.24.13-.19C91.35,37.4,91.26,37.41,91.24,37.5Zm.26-1c-.11,0-.11-.35.07-.25S91.53,36.42,91.5,36.5Zm.34.44c.07-.2.38-.18.59-.25C92.38,37,92.07,36.84,91.84,36.94Zm.34-3.86c.12-.38.12.38,0,0ZM93.92,22.4c-.26,0,0-.37.2-.29C94.09,22.24,93.94,22.26,93.92,22.4ZM94.49,41a.17.17,0,0,1,.19-.13A.18.18,0,0,1,94.49,41Zm.13-.25c.06-.09.18-.12.2-.25C95,40.56,94.76,40.77,94.62,40.75Zm.33-.81a6.41,6.41,0,0,1,1.12-1.31C95.72,39.08,95.55,39.71,95,39.94Zm.46-9.87h.2c0,.08-.12.1-.13.19S95.42,30.15,95.41,30.07Zm.53,1.5h-.26c.08-.13.1-.32.33-.31C96,31.41,95.89,31.39,95.94,31.57Zm-.13-.81c-.26,0-.26-.3,0-.25Zm.4,1.18c-.13,0-.18,0-.14-.12S96.25,31.82,96.21,31.94Zm.33,6.12c-.13.14.06-.24.06-.25C96.84,37.77,96.54,38.06,96.54,38.06Zm.2-4.8c-.22-.09.26-.16,0,0ZM97.9,29c-.05.14-.09,0-.21,0C97.72,28.92,97.9,28.94,97.9,29Zm-.71,7c.34-.23-.25.33,0,0Zm.54.44a1.25,1.25,0,0,1-.73.88A2.71,2.71,0,0,1,97.73,36.5Zm-1.67-21c0,.1-.12.08-.2.1S96,15.5,96.06,15.47Zm-.61.2c-.24.31-.41-.34,0,0ZM92.63,13c.13,0,.17,0,.13.13S92.59,13.16,92.63,13Zm.07,1.06c-.27-.07.26-.07,0,0Zm-.13,1.69c.15,0,.19,0,.13.19S92.5,16,92.57,15.78Zm-.27,1.56c.09,0,0,.05,0,.12A.06.06,0,1,1,92.3,17.34Zm-3.45-8c.05.13,0,.17-.13.12S88.73,9.3,88.85,9.35ZM87.67,6.48c.26.13-.26.42-.41.56C87,6.7,87.63,6.74,87.67,6.48ZM86.88,9.6c.38-.33.51.27,0,0Zm-.34-.25c.22.13.07.4-.14.43A.45.45,0,0,1,86.54,9.35Zm-.27-2.62c0,.07-.12,0-.2.06C86,6.57,86.24,6.72,86.27,6.73ZM86,7.79c-.22-.09.26-.16,0,0Zm-.4.12c.13,0,.18,0,.13.13S85.57,8,85.61,7.91ZM85.28,6.6c0,.13,0,.17-.07.25S85,6.76,85,6.6ZM85.48,8c0,.13-.22-.07-.4,0C85.13,7.74,85.35,7.92,85.48,8Zm-.66-1.56c-.16-.21.22.15,0,0ZM84.29,6c-.27-.08.26-.08,0,0ZM84,5.91a.05.05,0,0,1,0,0S84,5.92,84,5.91Zm-.1,12.64c0,.22-.55.08-.62,0C83.4,18.28,83.74,18.58,83.92,18.55ZM83.43,8.22c-.07,0-.06-.07-.07-.12S83.41,8.18,83.43,8.22Zm-.07-2.31c-.1.23-.51.15-.8.19A8.09,8.09,0,0,1,83.36,5.91ZM83,9.78c-.14-.19,0-.59.2-.62C83.33,9.32,83.26,9.75,83,9.78Zm-.93-4.3c.22.15-.18.3,0,0Zm-.16,1.08c.1-.14.53-.18.69-.15C82.63,6.69,81.88,6.64,81.94,6.56Zm.36,2.1c-.26-.07.26-.07,0,0ZM82,12.59c.11-.21,0-.6.13-.81C82.29,11.88,82.24,12.46,82,12.59Zm0,.19c-.16-.21.22.15,0,0Zm0,2.06c-.26-.07.26-.07,0,0Zm-.14-3.18c-.06,0,0-.08-.06-.13S81.82,11.61,81.83,11.66Zm-.39-5.87c0,.14-.17.13-.33.12Q81.19,5.78,81.44,5.79Zm0,2.81ZM81,6.73c-.26-.08.26-.08,0,0ZM81,7c-.06,0,0-.08-.06-.13S81,7,81,7Zm-.19,4.24c-.27-.07.26-.07,0,0Zm-.33-4.55c.85,0-.24,0,0,0Zm0,.57c0,.09-.12.07-.2.09S80.37,7.32,80.44,7.3Zm.2-1.39c.25.06-.35.28-.26,0C80.5,5.85,80.6,6.1,80.64,5.91Zm-.39-.56c0,.11.08.21.13.32h-.2C80.2,5.56,80.22,5.46,80.25,5.35Zm0,5.81c-.07,0-.06-.08-.07-.13S80.23,11.11,80.25,11.16ZM80,6.1c-.22-.09.26-.15,0,0Zm-.25,14.18c0-.11,0-.17.1-.19S79.81,20.26,79.73,20.28Zm-.28-13c.1-.08.16-.18.33-.19A.28.28,0,0,1,79.45,7.29Zm.27-1c-.1,0-.35-.07-.34.06C79.19,6.25,79.76,5.9,79.72,6.29Zm-.3,13.9c.06,0-.46.09-.6-.13C78.46,19.49,79.57,20.18,79.42,20.19Zm-.3-.77c.24.32-.35-.23,0,0ZM79,6.29a.38.38,0,0,1-.33.19C78.63,6.29,78.87,6.35,79,6.29ZM78.2,18.65c.48,0,0,.45,0,0ZM77.4,23a.17.17,0,0,1-.2.12A.19.19,0,0,1,77.4,23Zm-.66.31c-.07,0,0-.08-.07-.12S76.72,23.28,76.74,23.33Zm-1.3-6.41c.48,0,0,.45,0,0Zm.72,21.84c0-.09.12-.08.2-.1S76.24,38.74,76.16,38.76Zm.13-11.52-.1-1A5.31,5.31,0,0,0,75,23.57l-.41-.46-.33-.47a3,3,0,0,1-.48-1.07.82.82,0,0,1,.79.17l.2.28a.54.54,0,0,0,.19.27s.14.11.42.23.42.22.43.28l.3.35a1,1,0,0,0,.37.19,4.89,4.89,0,0,1,1.64.68l1,.8a.12.12,0,0,1,.1,0l.23.23a2.26,2.26,0,0,1-.53,2c-.47.71-.8,1.08-1,1.11Q76.5,28.39,76.29,27.24ZM76.57,39c.48.15.13.48,0,0Zm.71.77c-.19,0-.07-.32-.31-.29C76.68,39.27,77.5,39.36,77.28,39.72Zm.61.58c-.2,0-.2-.26-.41-.29C77.5,39.85,78,40.06,77.89,40.3Zm.1.19c.11-.24.46.08.41.29C78.08,40.86,78.26,40.46,78,40.49Zm.72.58Zm.41.58a.1.1,0,0,1,.2,0C79.28,41.79,79.23,41.64,79.12,41.65Zm.3.29c0-.1.13-.08.21-.1S79.5,41.91,79.42,41.94Zm.21.19c0-.1.12-.08.2-.1S79.71,42.11,79.63,42.13Zm.18-9.67a19.56,19.56,0,0,0,2.29-5.19,2.83,2.83,0,0,1,.05-.71l.27-1.31a1.43,1.43,0,0,1,.11-.35c.06-.21.07-.32,0-.34a.91.91,0,0,1,.33.37,1,1,0,0,1,.08.42l0,.22a1,1,0,0,1,0,.23,1,1,0,0,0,.09.38,26.36,26.36,0,0,1,1.19,3.44,1.29,1.29,0,0,1,0,.39l-.19,1.09a.93.93,0,0,1,.21.82.79.79,0,0,1-.13.39,1.66,1.66,0,0,1-.15.33c-1,1.53-2.11,2.08-3.4,1.64C79.76,33.77,79.48,33.17,79.81,32.46Zm4.67,3.23c0,.08-.11.1-.13.19S84.35,35.64,84.48,35.69Zm-1.19.56c-.06,0-.05-.07-.06-.12S83.28,36.2,83.29,36.25Zm-2.23,7.32c0-.12.2-.1.2,0S81.17,43.56,81.06,43.57Zm.61-1.06c0,.14-.61-.29,0-.29A.2.2,0,0,0,81.67,42.51Zm0-4.26c-.08,0,0-.16,0-.19S81.86,38.29,81.7,38.25Zm.58,6.67c0-.1.13-.08.21-.1S82.36,44.9,82.28,44.92Zm.31-1.35c.12-.38.12.38,0,0Zm.2.39c0-.1.13-.08.21-.1S82.87,43.93,82.79,44Zm6.95-6.11a2.7,2.7,0,0,0-.4-.14,3.91,3.91,0,0,0-.23.46l-.24.78c-.25.64-.55,1-.89,1a.79.79,0,0,0-.37.1l-.55.29a.56.56,0,0,1-.17.09.67.67,0,0,1-.35.1,2.91,2.91,0,0,1-1.16.16.49.49,0,0,1-.38-.26,3.81,3.81,0,0,0-3.73-2.6s-.07,0-.07-.1V37.5l.92-.2a8.34,8.34,0,0,1,1.41-.19l1,0,.82,0a1.12,1.12,0,0,1,.27,0h.13a1.47,1.47,0,0,0,1-.45,13.56,13.56,0,0,0,.51-3.51c0-.49,0-1.13,0-1.9V29.16l.11-.25c0-.46,0-1.05-.11-1.77l0-.39a3.22,3.22,0,0,1,0-.39l0-.58v0c-.28-.09-.88-.62-.28-.46-.07-.29-.5.05-.31-.39a1.07,1.07,0,0,1,.68.07l-.09-.92.1-.68-.1-1.77A2.13,2.13,0,0,0,85.31,21Q84,21,82.91,21a9.35,9.35,0,0,0-2,.32s-.12-.06-.21-.19a2.55,2.55,0,0,1-.27-.42,2.25,2.25,0,0,1-.35-.87c0-.12.13-.21.37-.25a.13.13,0,0,1,0-.09s0,0,0,.07l.23,0,1.16,0a4.13,4.13,0,0,0,.45-.1l.38-.1h1.47c.23-.06.47-.12.72-.16a1.42,1.42,0,0,1,.31,0,1,1,0,0,1,.27,0l.51-.07a1.09,1.09,0,0,0,.42-.13,1.17,1.17,0,0,0,.48-.8,9.12,9.12,0,0,0,.17-2.06c0-.64,0-1.15,0-1.51a.41.41,0,0,1,0-.16l0-.39s0-.21-.13-.64c-.06-.21-.12-.4-.18-.58l-.1.06c-.14-.1,0-.13.08-.12l-.18-.46A.64.64,0,0,0,86.3,12c-.07-.08-.18-.2-.34-.35a.81.81,0,0,0-.21-.2.18.18,0,0,0-.1-.09l-.55-.52q.32-1,1.65-1a2.51,2.51,0,0,1,1.33.38,3.07,3.07,0,0,0,.76.42c.25.13.65.3,1.2.52l.58.22a3.68,3.68,0,0,1,.48.23c.32.15.48.24.48.29l-.1.19-1.65,1.54v3.53s0,.05,0,.13h0v.79c0,.47.28.7.82.7a3.2,3.2,0,0,0,1.51-.42l1-.64.58-.45a.51.51,0,0,1,.35-.16l.68.19a1.4,1.4,0,0,1,.55.32c0,.15.24.42.79.81l.31.26a2.32,2.32,0,0,1,.27.29,1.4,1.4,0,0,1,.27.83.47.47,0,0,1-.13.32.38.38,0,0,1-.28.2H91.27c-.75,0-1.23.21-1.44.64,0,.88,0,1.69.07,2.41l0,1.2-.11.28.11.39.1,5.92-.1,3.67-.11.8v.25h0l0,0v1.17c.12.06.09.23-.07.25l-.06,0-.07,0a.1.1,0,0,0-.07,0l-.14.09,0,0a2.15,2.15,0,0,0,1-.2c-.06,0-.31-.76.1-.4s.21.43.28,1c-.42-.09-.35.29-.77.26C90,38.06,89.89,37.93,89.74,37.85Zm-4.5-11.41c.31,0,.35.25.61.29C85.69,27.16,85.3,26.68,85.24,26.44Zm.24,8.88c-.26-.08.26-.08,0,0Zm.68-7.63c0-.31.48-.38.41,0Zm4.28,7.88c-.06,0,0-.08-.06-.13S90.43,35.52,90.44,35.57Zm-.26.37c-.16-.21.22.15,0,0Z"/><path class="cls-1" d="M53.33,9.34c.13.05.18,0,.14-.12S53.29,9.21,53.33,9.34Z"/></g></g></svg>